<?xml version="1.0" encoding="utf-8"?>
<!-- Generator: Adobe Illustrator 24.2.1, SVG Export Plug-In . SVG Version: 6.00 Build 0)  -->
<svg version="1.1" id="Layer_1" xmlns="http://www.w3.org/2000/svg" xmlns:xlink="http://www.w3.org/1999/xlink" x="0px" y="0px"
	 viewBox="0 0 500 500" style="enable-background:new 0 0 500 500;" xml:space="preserve">
<style type="text/css">
	.st0{fill:#E7515B;}
	.st1{opacity:0.2;}
	.st2{fill:#FFFFFF;}
	.st3{opacity:0.3;}
	.st4{opacity:0.2;fill:#FFFFFF;}
	.st5{opacity:0.3;fill:#FFFFFF;}
	.st6{fill:#3168B2;}
	.st7{font-family:'MyriadPro-Bold';}
	.st8{font-size:53.6302px;}
	.st9{letter-spacing:2;}

	#corona {
		transform-box: fill-box;
 		 transform-origin: center;
  		<!-- transform: rotate(45deg); -->
		  animation: rotate 3s linear infinite alternate;
	}
	#corona1 {
		  animation: dots .6s .2s linear infinite alternate;
	}
	#corona2 {
		  animation: dots .6s .4s linear infinite alternate;
	}
	#corona3 {
		  animation: dots .6s .6s linear infinite alternate;
	}
	#corona4 {
		  animation: dots .6s .8s linear infinite alternate;
	}
	@keyframes rotate {
		0% {
			transform: rotate(0deg);
		}
		10% {
			transform: translate(10px,20px)
		}
		20% {
			transform: translate(-10px,-20px)
		}
		50% {
			transform: translate(-15px,10px)
		}
		70% {
			transform: translate(-10px,20px)
		}
		100% {
			transform: rotate(360deg);
		}
	}
	@keyframes dots {
		from {
			opacity:1;
		}
		to {
			opacity:0;
		}
	}
</style>
<g id="corona">
	<path class="st0" d="M328.4,250.2c3.9-9.9,5.9-20.6,5.7-31.7c6.9-5.8,32.2-11.7,32.2-11.7l-1.9-9.5c-10.2,2-30.8-0.6-33.7-1
		c-2.5-8.3-6.2-16-10.9-22.9c2.7-8.3,13.9-17.9,13.9-17.9l-6.4-7.3c-7.8,6.9-17.5,11.3-18.8,11.9c-4.6-4.4-9.7-8.2-15.1-11.4
		c-1.7-8.6,6.1-33.9,6.1-33.9l-9.2-3.2c-3.7,10.5-17.8,28.3-17.8,28.4c-7.7-2-15.9-2.9-24.2-2.6c-5.6-6.7-8.4-21.3-8.4-21.3
		l-9.5,1.9c2.1,10.8,0.9,21.5,0.9,21.9c-7.1,1.8-13.7,4.5-19.8,7.9c-8.6-3.3-26.4-22.1-26.4-22.1l-7.4,6.5
		c6.6,7.5,14.1,25.2,15.8,29.1c-6.5,6.5-11.8,14-15.8,22.2c-8.6,1-20.8-3.2-20.8-3.2l-3.1,9.3c8.1,2.7,15.2,7.1,18.2,9.1
		c-1.9,7-2.8,14.4-2.7,21.9c-8.9,5.3-30.5,10.4-30.5,10.4l1.9,9.6c8.9-1.7,25.3,0,31.5,0.8c2.5,9,6.4,17.4,11.4,24.8
		c-3.5,7.9-13.2,16.2-13.2,16.2l6.5,7.3c6.4-5.6,13.8-9.6,17.1-11.1c8.4,8.2,18.4,14.6,29.5,18.6c3.1,9.4,1.8,33.3,1.8,33.3l9.8,0.9
		c0.8-8.8,6.7-23.4,9.3-29.5c7.2,0.6,14.6,0.4,22-0.9c3.7-0.7,7.3-1.7,10.9-2.8c5.9,6.3,9.7,18,9.7,18l9.2-3.2
		c-3.3-9.3-3.8-19.1-3.9-21.4c10.2-5.8,19-13.6,25.8-22.8c10.2,1.7,30,12.2,30,12.2l4.9-8.5C343.9,267.7,330.8,253,328.4,250.2z
		 M233.6,139.6c-0.1,0-0.2,0-0.3,0.1C233.4,139.6,233.5,139.6,233.6,139.6z"/>
	<g>
		<g class="st1">
			<path class="st2" d="M310.3,240.8c-4.1-1.3-4.7-9.7-7.8-20.6c-0.3-1.4-0.9-2.8-1.3-4.2s-1-2.9-1.5-4.4c-1.2-3-2.4-6.1-4.1-9.2
				c-3.2-6.2-7.5-12.3-12.9-17.6c-5.5-5.2-11.8-9.2-18.1-12.2c-3.1-1.5-6.3-2.6-9.4-3.7c-1.5-0.4-3-0.9-4.5-1.3
				c-1.5-0.3-2.9-0.8-4.3-1.1c-11-2.6-19.4-2.9-20.9-6.9c-0.3-1-0.2-2.1,0.5-3.3s1.8-2.7,3.6-3.9c3.4-2.8,9.1-5.4,16.7-6.9
				c1.9-0.4,3.9-0.6,6-0.8s4.3-0.2,6.6-0.2c4.6,0.2,9.5,0.8,14.5,2.1c5,1.4,10.3,3.2,15.3,6.1c5.1,2.8,10,6.3,14.6,10.6
				c4.5,4.3,8.2,9.2,11.2,14.1c3,4.9,5.1,10.1,6.7,15c1.6,5,2.3,9.9,2.7,14.4c0.1,2.3,0.2,4.5,0.1,6.6s-0.2,4.1-0.5,6
				c-1.1,7.6-3.6,13.4-6.2,17c-1.2,1.8-2.6,3-3.8,3.7C312.4,240.9,311.3,241.1,310.3,240.8z"/>
		</g>
		<g>
			<g>
				<path class="st0" d="M186.6,120.8c1.2,1.3-1.1,5.4-5.2,9c-1.4,1.2-2.8,2.3-4.1,3.1c-2.5,1.5-4.7,2.1-5.4,1.2
					c-1.2-1.3,1.1-5.4,5.2-9C181.2,121.3,185.4,119.4,186.6,120.8z"/>
				<path class="st3" d="M177.7,132.6c0,0,4.8-3.1,7.2-6.7c1.3,1.3,2.7,2.8,4.2,4.3c0,0-6.7,4-10.1,4.1L177.7,132.6z"/>
			</g>
			<g>
				<path class="st0" d="M155.5,175.2c1.7,0.5,1.7,5.2,0.1,10.4c-0.6,1.8-1.2,3.4-2,4.7c-1.4,2.6-3,4.1-4.1,3.8
					c-1.7-0.5-1.7-5.2-0.1-10.4C151.1,178.5,153.8,174.7,155.5,175.2z"/>
				<path class="st3" d="M153.9,189.9c0,0,2.9-4.9,2.8-9.4c1.7,0.6,3.6,1.1,5.7,1.7c0,0-3.7,6.7-6.5,8.4L153.9,189.9z"/>
			</g>
			<g>
				<path class="st0" d="M134.9,227.2c1.7-0.4,4.1,3.7,5.2,9c0.4,1.8,0.6,3.5,0.6,5c0,3-0.6,5.1-1.7,5.3c-1.7,0.4-4.1-3.7-5.2-9
					C132.7,232.2,133.2,227.6,134.9,227.2z"/>
				<path class="st3" d="M140.7,240.9c0,0-0.3-5.7-2.1-9.6c1.8-0.4,3.8-0.9,5.8-1.5c0,0,0.1,7.8-1.5,10.7L140.7,240.9z"/>
			</g>
			<g>
				<path class="st0" d="M165,281.1c1.3-1.2,5.4,1.1,9,5.2c1.2,1.4,2.3,2.8,3.1,4c1.5,2.5,2.1,4.6,1.2,5.4c-1.3,1.2-5.4-1.1-9-5.2
					C165.6,286.5,163.7,282.2,165,281.1z"/>
				<path class="st3" d="M176.9,289.9c0,0-2.8-4.9-6.7-7.2c1.4-1.2,2.8-2.6,4.3-4.1c0,0,3.9,6.5,4,9.9L176.9,289.9z"/>
			</g>
		</g>
		<g>
			<g>
				<path class="st0" d="M220.2,333.2c0.1-1.8,4.7-2.9,10.1-2.5c1.8,0.1,3.6,0.4,5,0.8c2.8,0.8,4.7,1.9,4.6,3.1
					c-0.1,1.8-4.7,2.9-10.1,2.5S220.1,335,220.2,333.2z"/>
				<path class="st3" d="M234.9,331.4c0,0-5.6-1.3-9.8-0.6c0.1-1.8,0.2-3.9,0.2-6c0,0,7.5,2.1,9.9,4.5L234.9,331.4z"/>
			</g>
			<g>
				<path class="st0" d="M283.3,320.7c-0.6-1.7,3.1-4.5,8.2-6.4c1.7-0.6,3.4-1.1,4.9-1.3c2.9-0.5,5.1-0.2,5.5,0.9
					c0.6,1.7-3.1,4.5-8.2,6.4C288.6,322.2,283.9,322.4,283.3,320.7z"/>
				<path class="st3" d="M296,313.1c0,0-5.6,0.7-9.2,3.5c-0.6-1.7-1.3-3.6-2.1-5.5c0,0,7.5-1.2,10.7,0L296,313.1z"/>
			</g>
			<g>
				<path class="st0" d="M348,286.7c-1.6-0.9-0.7-5.4,2-10.2c0.9-1.6,1.9-3,2.9-4.2c1.9-2.3,3.7-3.5,4.8-2.9c1.6,0.9,0.7,5.4-2,10.2
					C353,284.4,349.6,287.6,348,286.7z"/>
				<path class="st3" d="M352.6,272.6c0,0-3.5,4.5-4.7,8.6c-1.6-0.8-3.5-1.8-5.3-2.7c0,0,5.1-5.9,8.2-7.1L352.6,272.6z"/>
			</g>
		</g>
		<g>
			<path class="st3" d="M218.9,237.9c1.1,6.3-1.4,12-5.6,12.8c-4.2,0.8-8.6-3.7-9.7-10c-1.1-6.3,1.4-12,5.6-12.8
				C213.4,227.2,217.7,231.7,218.9,237.9z"/>
			<path class="st0" d="M214.8,232c1.1,6.3-1.4,12-5.6,12.8c-4.2,0.8-8.6-3.7-9.7-10c-1.1-6.3,1.4-12,5.6-12.8
				C209.4,221.2,213.7,225.7,214.8,232z"/>
			<path class="st4" d="M214.8,232c1.1,6.3-1.4,12-5.6,12.8c-4.2,0.8-8.6-3.7-9.7-10c-1.1-6.3,1.4-12,5.6-12.8
				C209.4,221.2,213.7,225.7,214.8,232z"/>
		</g>
		<g>
			<path class="st3" d="M204,173c5-3.9,11.3-4.4,13.9-1c2.7,3.4,0.7,9.3-4.3,13.3c-5,3.9-11.3,4.4-13.9,1
				C197.1,182.9,199,177,204,173z"/>
			<path class="st0" d="M199.6,167.7c5-3.9,11.3-4.4,13.9-1c2.7,3.4,0.7,9.3-4.3,13.3s-11.3,4.4-13.9,1
				C192.6,177.5,194.6,171.6,199.6,167.7z"/>
			<path class="st4" d="M199.6,167.7c5-3.9,11.3-4.4,13.9-1c2.7,3.4,0.7,9.3-4.3,13.3s-11.3,4.4-13.9,1
				C192.6,177.5,194.6,171.6,199.6,167.7z"/>
		</g>
		<g>
			<path class="st3" d="M247.6,268.1c0.7,4.1-2,8.1-6.2,8.8c-4.1,0.7-8.1-2-8.8-6.2c-0.7-4.1,2-8.1,6.2-8.8
				C242.9,261.2,246.8,264,247.6,268.1z"/>
			<path class="st0" d="M246.8,264.1c0.7,4.1-2,8.1-6.2,8.8c-4.1,0.7-8.1-2-8.8-6.2c-0.7-4.1,2-8.1,6.2-8.8
				C242.1,257.2,246.1,260,246.8,264.1z"/>
			<path class="st5" d="M246.8,264.1c0.7,4.1-2,8.1-6.2,8.8c-4.1,0.7-8.1-2-8.8-6.2c-0.7-4.1,2-8.1,6.2-8.8
				C242.1,257.2,246.1,260,246.8,264.1z"/>
		</g>
		<g>
			<ellipse class="st3" cx="277.5" cy="187.5" rx="9.4" ry="9.4"/>
			<path class="st0" d="M288.1,188.3c-2.8,4.4-8.6,5.7-12.9,2.9c-4.4-2.8-5.7-8.6-2.9-12.9c2.8-4.4,8.6-5.7,12.9-2.9
				C289.6,178.2,290.9,183.9,288.1,188.3z"/>
			<path class="st5" d="M288.1,188.3c-2.8,4.4-8.6,5.7-12.9,2.9c-4.4-2.8-5.7-8.6-2.9-12.9c2.8-4.4,8.6-5.7,12.9-2.9
				C289.6,178.2,290.9,183.9,288.1,188.3z"/>
		</g>
		<g>
			<path class="st3" d="M287.1,268.7c0.5,3-1.5,5.9-4.5,6.5c-3,0.5-5.9-1.5-6.5-4.5c-0.5-3,1.5-5.9,4.5-6.5S286.5,265.7,287.1,268.7
				z"/>
			<path class="st0" d="M286.5,265.7c0.5,3-1.5,5.9-4.5,6.5c-3,0.5-5.9-1.5-6.5-4.5c-0.5-3,1.5-5.9,4.5-6.5
				C283.1,260.7,286,262.7,286.5,265.7z"/>
			<path class="st5" d="M286.5,265.7c0.5,3-1.5,5.9-4.5,6.5c-3,0.5-5.9-1.5-6.5-4.5c-0.5-3,1.5-5.9,4.5-6.5
				C283.1,260.7,286,262.7,286.5,265.7z"/>
		</g>
		<g>
			<g>
				<path class="st0" d="M369.8,210.9c-1.7,0.4-4-3.6-5.1-8.9c-0.4-1.8-0.6-3.5-0.6-5c0-2.9,0.6-5,1.7-5.2c1.7-0.4,4,3.6,5.1,8.9
					C372.1,206,371.6,210.5,369.8,210.9z"/>
				<path class="st3" d="M364.1,197.4c0,0,0.3,5.6,2.1,9.5c-1.7,0.4-3.7,0.9-5.7,1.4c0,0,0-7.7,1.5-10.6L364.1,197.4z"/>
			</g>
			<g>
				<path class="st0" d="M338.8,157.3c-1.3,1.2-5.3-1.1-8.9-5.1c-1.2-1.4-2.3-2.7-3-4c-1.5-2.5-2.1-4.6-1.2-5.4
					c1.3-1.2,5.3,1.1,8.9,5.1C338.2,151.9,340.1,156.1,338.8,157.3z"/>
				<path class="st3" d="M327.1,148.5c0,0,2.7,4.9,6.6,7.1c-1.4,1.2-2.8,2.5-4.2,4c0,0-3.9-6.4-4-9.8L327.1,148.5z"/>
			</g>
			<g>
				<path class="st0" d="M304.6,113.8c-0.6,1.7-5.2,1.6-10.3-0.1c-1.7-0.6-3.3-1.3-4.6-2c-2.5-1.4-4-3-3.7-4.1
					c0.6-1.7,5.2-1.6,10.3,0.1C301.5,109.4,305.2,112.2,304.6,113.8z"/>
				<path class="st3" d="M290.1,112c0,0,5,2.6,9.2,3c-0.5,1.7-1.1,3.7-1.6,5.7c0,0-6.7-3.8-8.4-6.7L290.1,112z"/>
			</g>
			<g>
				<g>
					<path class="st0" d="M243.8,112.7c0.4,1.7-3.6,4-8.9,5.2c-1.8,0.4-3.5,0.6-5,0.6c-2.9,0.1-5-0.5-5.2-1.7
						c-0.4-1.7,3.6-4,8.9-5.2C238.8,110.5,243.4,111,243.8,112.7z"/>
				</g>
				<path class="st3" d="M230.3,118.5c0,0,5.6,0.1,9.5-2.1c0.3,1.8,0.8,3.7,1.3,5.7c0,0-7.5,0.1-10.4-1.5L230.3,118.5z"/>
			</g>
		</g>
		<g>
			<path class="st3" d="M303.7,245.7c-1.9,6.1-6.8,10-10.9,8.7s-5.8-7.3-3.9-13.4c1.9-6.1,6.8-10,10.9-8.7
				C303.9,233.6,305.6,239.6,303.7,245.7z"/>
			<path class="st0" d="M306.4,242c-1.9,6.1-6.8,10-10.9,8.7s-5.8-7.3-3.9-13.4c1.9-6.1,6.8-10,10.9-8.7
				C306.6,229.9,308.4,235.9,306.4,242z"/>
			<path class="st5" d="M306.4,242c-1.9,6.1-6.8,10-10.9,8.7s-5.8-7.3-3.9-13.4c1.9-6.1,6.8-10,10.9-8.7
				C306.6,229.9,308.4,235.9,306.4,242z"/>
		</g>
		<g>
			<path class="st3" d="M262.6,215.6c1.1,6.3-3.1,12.3-9.4,13.4c-6.3,1.1-12.3-3.1-13.4-9.4c-1.1-6.3,3.1-12.3,9.4-13.4
				C255.4,205.1,261.4,209.3,262.6,215.6z"/>
			<path class="st0" d="M261.4,208.9c1.1,6.3-3.1,12.3-9.4,13.4c-6.3,1.1-12.3-3.1-13.4-9.4c-1.1-6.3,3.1-12.3,9.4-13.4
				C254.2,198.5,260.2,202.6,261.4,208.9z"/>
			<path class="st4" d="M261.4,208.9c1.1,6.3-3.1,12.3-9.4,13.4c-6.3,1.1-12.3-3.1-13.4-9.4c-1.1-6.3,3.1-12.3,9.4-13.4
				C254.2,198.5,260.2,202.6,261.4,208.9z"/>
		</g>
		<g class="st6">
			<path d="M303.3,272.6c0.7,0.8-0.1,2.7-2.4,5.5c-2.2,2.8-6.1,6.3-11.5,9.8c-2.7,1.7-5.8,3.4-9.3,4.9s-7.3,2.9-11.5,3.9
				c-8.3,2.1-17.9,3-27.9,1.9c-10-1.2-19.1-4.3-26.7-8.3c-3.8-2-7.2-4.2-10.3-6.5c-3-2.3-5.7-4.6-7.9-6.9c-4.5-4.6-7.4-8.9-8.9-12.1
				s-1.8-5.3-1-5.9c1.8-1.3,7.2,3.8,16.7,10c2.4,1.5,5,3.1,7.9,4.7c2.9,1.5,6,3.1,9.4,4.4c6.7,2.8,14.4,4.9,22.6,5.9
				c8.2,0.9,16.2,0.6,23.4-0.5c3.6-0.5,7-1.3,10.2-2.1c3.1-0.9,6.1-1.8,8.7-2.7C295.4,274.7,301.8,270.9,303.3,272.6z"/>
		</g>
		<g class="st6">
			<path d="M179.7,230.4c4-0.9,8,1.4,8.8,5.2c0.9,3.8-1.7,7.6-5.7,8.5s-8-1.4-8.8-5.2C173.1,235.2,175.7,231.3,179.7,230.4z"/>
		</g>
	</g>
</g>
<path id="circle" class="st7" d="M252.4,28c-107,0-193.8,86.8-193.8,193.8s86.8,193.8,193.8,193.8s193.8-86.8,193.8-193.8
	S359.4,28,252.4,28z M252.4,79.4c42.6,0,80.8,18.7,106.9,48.3l-242,139.6c-4.8-14.3-7.4-29.6-7.4-45.5
	C109.9,143.2,173.7,79.4,252.4,79.4z M252.4,364.3c-43.7,0-82.8-19.7-109-50.7l242.9-140.3c5.5,15.1,8.5,31.5,8.5,48.5
	C394.8,300.5,331.1,364.3,252.4,364.3z"/>
<text id="covac" transform="matrix(0.8646 -0.5024 0.5024 0.8646 158.6374 294.5926)" class="st2 st8 st9 st10">COVID-19</text>
<g id="corona1">
	<path class="st0" d="M155.6,465.3c0.8-2.1,1.2-4.3,1.2-6.6c1.4-1.2,6.7-2.4,6.7-2.4l-0.4-2c-2.1,0.4-6.4-0.1-7-0.2
		c-0.5-1.7-1.3-3.3-2.3-4.8c0.6-1.7,2.9-3.7,2.9-3.7l-1.3-1.5c-1.6,1.4-3.7,2.4-3.9,2.5c-1-0.9-2-1.7-3.2-2.4
		c-0.4-1.8,1.3-7.1,1.3-7.1l-1.9-0.7c-0.8,2.2-3.7,5.9-3.7,5.9c-1.6-0.4-3.3-0.6-5.1-0.5c-1.2-1.4-1.8-4.4-1.8-4.4l-2,0.4
		c0.4,2.3,0.2,4.5,0.2,4.6c-1.5,0.4-2.9,0.9-4.1,1.7c-1.8-0.7-5.5-4.6-5.5-4.6l-1.5,1.4c1.4,1.6,3,5.3,3.3,6.1
		c-1.4,1.4-2.5,2.9-3.3,4.6c-1.8,0.2-4.4-0.7-4.4-0.7l-0.6,1.9c1.7,0.6,3.2,1.5,3.8,1.9c-0.4,1.5-0.6,3-0.6,4.6
		c-1.9,1.1-6.4,2.2-6.4,2.2l0.4,2c1.9-0.4,5.3,0,6.6,0.2c0.5,1.9,1.3,3.6,2.4,5.2c-0.7,1.7-2.8,3.4-2.8,3.4l1.4,1.5
		c1.3-1.2,2.9-2,3.6-2.3c1.8,1.7,3.9,3,6.2,3.9c0.6,2,0.4,7,0.4,7l2,0.2c0.2-1.8,1.4-4.9,1.9-6.2c1.5,0.1,3,0.1,4.6-0.2
		c0.8-0.1,1.5-0.3,2.3-0.6c1.2,1.3,2,3.8,2,3.8l1.9-0.7c-0.7-2-0.8-4-0.8-4.5c2.1-1.2,4-2.8,5.4-4.8c2.1,0.4,6.3,2.5,6.3,2.5l1-1.8
		C158.8,469,156.1,465.9,155.6,465.3z M135.8,442.2C135.8,442.2,135.7,442.2,135.8,442.2C135.7,442.2,135.8,442.2,135.8,442.2z"/>
	<g>
		<g class="st1">
			<path class="st2" d="M151.8,463.3c-0.9-0.3-1-2-1.6-4.3c-0.1-0.3-0.2-0.6-0.3-0.9s-0.2-0.6-0.3-0.9c-0.3-0.6-0.5-1.3-0.9-1.9
				c-0.7-1.3-1.6-2.6-2.7-3.7c-1.1-1.1-2.5-1.9-3.8-2.5c-0.7-0.3-1.3-0.5-2-0.8c-0.3-0.1-0.6-0.2-0.9-0.3c-0.3-0.1-0.6-0.2-0.9-0.2
				c-2.3-0.5-4.1-0.6-4.4-1.4c-0.1-0.2,0-0.4,0.1-0.7c0.1-0.2,0.4-0.6,0.7-0.8c0.7-0.6,1.9-1.1,3.5-1.4c0.4-0.1,0.8-0.1,1.3-0.2
				c0.4,0,0.9,0,1.4,0c1,0,2,0.2,3,0.4c1.1,0.3,2.1,0.7,3.2,1.3c1.1,0.6,2.1,1.3,3,2.2c0.9,0.9,1.7,1.9,2.3,3c0.6,1,1.1,2.1,1.4,3.1
				c0.3,1,0.5,2.1,0.6,3c0,0.5,0,0.9,0,1.4c0,0.4,0,0.9-0.1,1.3c-0.2,1.6-0.7,2.8-1.3,3.5c-0.3,0.4-0.6,0.6-0.8,0.8
				C152.2,463.4,152,463.4,151.8,463.3z"/>
		</g>
		<g>
			<g>
				<path class="st0" d="M125.9,438.2c0.2,0.3-0.2,1.1-1.1,1.9c-0.3,0.3-0.6,0.5-0.8,0.6c-0.5,0.3-1,0.4-1.1,0.2
					c-0.2-0.3,0.2-1.1,1.1-1.9C124.8,438.3,125.7,438,125.9,438.2z"/>
				<path class="st3" d="M124.1,440.7c0,0,1-0.7,1.5-1.4c0.3,0.3,0.6,0.6,0.9,0.9c0,0-1.4,0.8-2.1,0.8L124.1,440.7z"/>
			</g>
			<g>
				<path class="st0" d="M119.4,449.6c0.4,0.1,0.4,1.1,0,2.2c-0.1,0.4-0.3,0.7-0.4,1c-0.3,0.5-0.6,0.9-0.9,0.8
					c-0.4-0.1-0.4-1.1,0-2.2S119.1,449.5,119.4,449.6z"/>
				<path class="st3" d="M119.1,452.7c0,0,0.6-1,0.6-2c0.4,0.1,0.8,0.2,1.2,0.3c0,0-0.8,1.4-1.4,1.8L119.1,452.7z"/>
			</g>
			<g>
				<path class="st0" d="M115.1,460.5c0.4-0.1,0.8,0.8,1.1,1.9c0.1,0.4,0.1,0.7,0.1,1.1c0,0.6-0.1,1.1-0.4,1.1
					c-0.4,0.1-0.8-0.8-1.1-1.9C114.7,461.6,114.8,460.6,115.1,460.5z"/>
				<path class="st3" d="M116.3,463.4c0,0-0.1-1.2-0.4-2c0.4-0.1,0.8-0.2,1.2-0.3c0,0,0,1.6-0.3,2.2L116.3,463.4z"/>
			</g>
			<g>
				<path class="st0" d="M121.4,471.8c0.3-0.2,1.1,0.2,1.9,1.1c0.3,0.3,0.5,0.6,0.6,0.8c0.3,0.5,0.4,1,0.3,1.1
					c-0.3,0.2-1.1-0.2-1.9-1.1C121.5,472.9,121.1,472,121.4,471.8z"/>
				<path class="st3" d="M123.9,473.6c0,0-0.6-1-1.4-1.5c0.3-0.2,0.6-0.5,0.9-0.9c0,0,0.8,1.4,0.8,2.1L123.9,473.6z"/>
			</g>
		</g>
		<g>
			<g>
				<path class="st0" d="M133,482.7c0-0.4,1-0.6,2.1-0.5c0.4,0,0.7,0.1,1,0.2c0.6,0.2,1,0.4,1,0.7c0,0.4-1,0.6-2.1,0.5
					C133.8,483.4,132.9,483,133,482.7z"/>
				<path class="st3" d="M136,482.3c0,0-1.2-0.3-2-0.1c0-0.4,0-0.8,0-1.2c0,0,1.6,0.4,2.1,0.9L136,482.3z"/>
			</g>
			<g>
				<path class="st0" d="M146.2,480.1c-0.1-0.3,0.6-1,1.7-1.3c0.4-0.1,0.7-0.2,1-0.3c0.6-0.1,1.1,0,1.1,0.2c0.1,0.3-0.6,1-1.7,1.3
					C147.3,480.4,146.3,480.4,146.2,480.1z"/>
				<path class="st3" d="M148.8,478.5c0,0-1.2,0.1-1.9,0.7c-0.1-0.4-0.3-0.7-0.4-1.2c0,0,1.6-0.2,2.2,0L148.8,478.5z"/>
			</g>
			<g>
				<path class="st0" d="M159.7,472.9c-0.3-0.2-0.1-1.1,0.4-2.1c0.2-0.3,0.4-0.6,0.6-0.9c0.4-0.5,0.8-0.7,1-0.6
					c0.3,0.2,0.1,1.1-0.4,2.1C160.7,472.5,160,473.1,159.7,472.9z"/>
				<path class="st3" d="M160.7,470c0,0-0.7,0.9-1,1.8c-0.3-0.2-0.7-0.4-1.1-0.6c0,0,1.1-1.2,1.7-1.5L160.7,470z"/>
			</g>
		</g>
		<g>
			<path class="st3" d="M132.7,462.7c0.2,1.3-0.3,2.5-1.2,2.7s-1.8-0.8-2-2.1s0.3-2.5,1.2-2.7S132.5,461.4,132.7,462.7z"/>
			<path class="st0" d="M131.8,461.5c0.2,1.3-0.3,2.5-1.2,2.7s-1.8-0.8-2-2.1c-0.2-1.3,0.3-2.5,1.2-2.7
				C130.7,459.2,131.6,460.2,131.8,461.5z"/>
			<path class="st4" d="M131.8,461.5c0.2,1.3-0.3,2.5-1.2,2.7s-1.8-0.8-2-2.1c-0.2-1.3,0.3-2.5,1.2-2.7
				C130.7,459.2,131.6,460.2,131.8,461.5z"/>
		</g>
		<g>
			<path class="st3" d="M129.6,449.2c1.1-0.8,2.4-0.9,2.9-0.2c0.6,0.7,0.2,2-0.9,2.8c-1.1,0.8-2.4,0.9-2.9,0.2
				C128.1,451.2,128.5,450,129.6,449.2z"/>
			<path class="st0" d="M128.7,448c1.1-0.8,2.4-0.9,2.9-0.2c0.6,0.7,0.2,2-0.9,2.8s-2.4,0.9-2.9,0.2
				C127.2,450.1,127.6,448.9,128.7,448z"/>
			<path class="st4" d="M128.7,448c1.1-0.8,2.4-0.9,2.9-0.2c0.6,0.7,0.2,2-0.9,2.8s-2.4,0.9-2.9,0.2
				C127.2,450.1,127.6,448.9,128.7,448z"/>
		</g>
		<g>
			<path class="st3" d="M138.7,469.1c0.2,0.9-0.4,1.7-1.3,1.9c-0.9,0.2-1.7-0.4-1.9-1.3s0.4-1.7,1.3-1.9
				C137.7,467.6,138.5,468.2,138.7,469.1z"/>
			<path class="st0" d="M138.5,468.2c0.2,0.9-0.4,1.7-1.3,1.9c-0.9,0.2-1.7-0.4-1.9-1.3s0.4-1.7,1.3-1.9
				C137.6,466.8,138.4,467.4,138.5,468.2z"/>
			<path class="st5" d="M138.5,468.2c0.2,0.9-0.4,1.7-1.3,1.9c-0.9,0.2-1.7-0.4-1.9-1.3s0.4-1.7,1.3-1.9
				C137.6,466.8,138.4,467.4,138.5,468.2z"/>
		</g>
		<g>
			<circle class="st3" cx="145" cy="452.2" r="2"/>
			<path class="st0" d="M147.2,452.4c-0.6,0.9-1.8,1.2-2.7,0.6s-1.2-1.8-0.6-2.7c0.6-0.9,1.8-1.2,2.7-0.6S147.7,451.4,147.2,452.4z"
				/>
			<path class="st5" d="M147.2,452.4c-0.6,0.9-1.8,1.2-2.7,0.6s-1.2-1.8-0.6-2.7c0.6-0.9,1.8-1.2,2.7-0.6S147.7,451.4,147.2,452.4z"
				/>
		</g>
		<g>
			<path class="st3" d="M147,469.2c0.1,0.6-0.3,1.2-0.9,1.4c-0.6,0.1-1.2-0.3-1.4-0.9c-0.1-0.6,0.3-1.2,0.9-1.4
				C146.2,468.1,146.8,468.5,147,469.2z"/>
			<path class="st0" d="M146.8,468.6c0.1,0.6-0.3,1.2-0.9,1.4c-0.6,0.1-1.2-0.3-1.4-0.9c-0.1-0.6,0.3-1.2,0.9-1.4
				S146.7,467.9,146.8,468.6z"/>
			<path class="st5" d="M146.8,468.6c0.1,0.6-0.3,1.2-0.9,1.4c-0.6,0.1-1.2-0.3-1.4-0.9c-0.1-0.6,0.3-1.2,0.9-1.4
				S146.7,467.9,146.8,468.6z"/>
		</g>
		<g>
			<g>
				<path class="st0" d="M164.3,457.1c-0.4,0.1-0.8-0.8-1.1-1.9c-0.1-0.4-0.1-0.7-0.1-1c0-0.6,0.1-1,0.4-1.1
					c0.4-0.1,0.8,0.8,1.1,1.9C164.7,456.1,164.6,457,164.3,457.1z"/>
				<path class="st3" d="M163.1,454.3c0,0,0.1,1.2,0.4,2c-0.4,0.1-0.8,0.2-1.2,0.3c0,0,0-1.6,0.3-2.2L163.1,454.3z"/>
			</g>
			<g>
				<path class="st0" d="M157.8,445.9c-0.3,0.2-1.1-0.2-1.9-1.1c-0.3-0.3-0.5-0.6-0.6-0.8c-0.3-0.5-0.4-1-0.3-1.1
					c0.3-0.2,1.1,0.2,1.9,1.1C157.7,444.7,158.1,445.6,157.8,445.9z"/>
				<path class="st3" d="M155.3,444c0,0,0.6,1,1.4,1.5c-0.3,0.2-0.6,0.5-0.9,0.8c0,0-0.8-1.3-0.8-2L155.3,444z"/>
			</g>
			<g>
				<path class="st0" d="M150.6,436.8c-0.1,0.3-1.1,0.3-2.2,0c-0.4-0.1-0.7-0.3-1-0.4c-0.5-0.3-0.8-0.6-0.8-0.9
					c0.1-0.3,1.1-0.3,2.2,0S150.7,436.4,150.6,436.8z"/>
				<path class="st3" d="M147.6,436.4c0,0,1.1,0.5,1.9,0.6c-0.1,0.4-0.2,0.8-0.3,1.2c0,0-1.4-0.8-1.8-1.4L147.6,436.4z"/>
			</g>
			<g>
				<g>
					<path class="st0" d="M137.9,436.5c0.1,0.4-0.8,0.8-1.9,1.1c-0.4,0.1-0.7,0.1-1,0.1c-0.6,0-1-0.1-1.1-0.3
						c-0.1-0.4,0.8-0.8,1.9-1.1C136.9,436.1,137.8,436.2,137.9,436.5z"/>
				</g>
				<path class="st3" d="M135.1,437.8c0,0,1.2,0,2-0.4c0.1,0.4,0.2,0.8,0.3,1.2c0,0-1.6,0-2.2-0.3L135.1,437.8z"/>
			</g>
		</g>
		<g>
			<path class="st3" d="M150.4,464.4c-0.4,1.3-1.4,2.1-2.3,1.8c-0.9-0.3-1.2-1.5-0.8-2.8s1.4-2.1,2.3-1.8
				C150.5,461.8,150.8,463.1,150.4,464.4z"/>
			<path class="st0" d="M151,463.6c-0.4,1.3-1.4,2.1-2.3,1.8c-0.9-0.3-1.2-1.5-0.8-2.8s1.4-2.1,2.3-1.8
				C151,461.1,151.4,462.3,151,463.6z"/>
			<path class="st5" d="M151,463.6c-0.4,1.3-1.4,2.1-2.3,1.8c-0.9-0.3-1.2-1.5-0.8-2.8s1.4-2.1,2.3-1.8
				C151,461.1,151.4,462.3,151,463.6z"/>
		</g>
		<g>
			<path class="st3" d="M141.8,458.1c0.2,1.3-0.6,2.6-2,2.8c-1.3,0.2-2.6-0.6-2.8-2c-0.2-1.3,0.6-2.6,2-2.8
				C140.3,455.9,141.6,456.7,141.8,458.1z"/>
			<path class="st0" d="M141.6,456.7c0.2,1.3-0.6,2.6-2,2.8c-1.3,0.2-2.6-0.6-2.8-2c-0.2-1.3,0.6-2.6,2-2.8
				C140.1,454.5,141.3,455.4,141.6,456.7z"/>
			<path class="st4" d="M141.6,456.7c0.2,1.3-0.6,2.6-2,2.8c-1.3,0.2-2.6-0.6-2.8-2c-0.2-1.3,0.6-2.6,2-2.8
				C140.1,454.5,141.3,455.4,141.6,456.7z"/>
		</g>
		<g class="st6">
			<path d="M150.3,470c0.1,0.2,0,0.6-0.5,1.2s-1.3,1.3-2.4,2c-0.6,0.4-1.2,0.7-1.9,1s-1.5,0.6-2.4,0.8c-1.7,0.4-3.7,0.6-5.8,0.4
				c-2.1-0.3-4-0.9-5.6-1.7c-0.8-0.4-1.5-0.9-2.2-1.4c-0.6-0.5-1.2-1-1.7-1.5c-0.9-1-1.5-1.9-1.9-2.5c-0.3-0.7-0.4-1.1-0.2-1.2
				c0.4-0.3,1.5,0.8,3.5,2.1c0.5,0.3,1,0.6,1.6,1c0.6,0.3,1.3,0.6,2,0.9c1.4,0.6,3,1,4.7,1.2s3.4,0.1,4.9-0.1
				c0.8-0.1,1.5-0.3,2.1-0.4c0.7-0.2,1.3-0.4,1.8-0.6C148.7,470.4,150,469.6,150.3,470z"/>
		</g>
		<g class="st6">
			<path d="M124.5,461.2c0.8-0.2,1.7,0.3,1.8,1.1c0.2,0.8-0.4,1.6-1.2,1.8c-0.8,0.2-1.7-0.3-1.8-1.1
				C123.1,462.2,123.6,461.4,124.5,461.2z"/>
		</g>
	</g>
</g>
<g id="corona2">
	<path class="st0" d="M227,465.3c0.8-2.1,1.2-4.3,1.2-6.6c1.4-1.2,6.7-2.4,6.7-2.4l-0.4-2c-2.1,0.4-6.4-0.1-7-0.2
		c-0.5-1.7-1.3-3.3-2.3-4.8c0.6-1.7,2.9-3.7,2.9-3.7l-1.3-1.5c-1.6,1.4-3.7,2.4-3.9,2.5c-1-0.9-2-1.7-3.2-2.4
		c-0.4-1.8,1.3-7.1,1.3-7.1l-1.9-0.7c-0.8,2.2-3.7,5.9-3.7,5.9c-1.6-0.4-3.3-0.6-5.1-0.5c-1.2-1.4-1.8-4.4-1.8-4.4l-2,0.4
		c0.4,2.3,0.2,4.5,0.2,4.6c-1.5,0.4-2.9,0.9-4.1,1.7c-1.8-0.7-5.5-4.6-5.5-4.6l-1.5,1.4c1.4,1.6,3,5.3,3.3,6.1
		c-1.4,1.4-2.5,2.9-3.3,4.6c-1.8,0.2-4.4-0.7-4.4-0.7l-0.6,1.9c1.7,0.6,3.2,1.5,3.8,1.9c-0.4,1.5-0.6,3-0.6,4.6
		c-1.9,1.1-6.4,2.2-6.4,2.2l0.4,2c1.9-0.4,5.3,0,6.6,0.2c0.5,1.9,1.3,3.6,2.4,5.2c-0.7,1.7-2.8,3.4-2.8,3.4l1.4,1.5
		c1.3-1.2,2.9-2,3.6-2.3c1.8,1.7,3.9,3,6.2,3.9c0.6,2,0.4,7,0.4,7l2,0.2c0.2-1.8,1.4-4.9,1.9-6.2c1.5,0.1,3,0.1,4.6-0.2
		c0.8-0.1,1.5-0.3,2.3-0.6c1.2,1.3,2,3.8,2,3.8l1.9-0.7c-0.7-2-0.8-4-0.8-4.5c2.1-1.2,4-2.8,5.4-4.8c2.1,0.4,6.3,2.5,6.3,2.5l1-1.8
		C230.2,469,227.5,465.9,227,465.3z M207.2,442.2C207.1,442.2,207.1,442.2,207.2,442.2C207.1,442.2,207.1,442.2,207.2,442.2z"/>
	<g>
		<g class="st1">
			<path class="st2" d="M223.2,463.3c-0.9-0.3-1-2-1.6-4.3c-0.1-0.3-0.2-0.6-0.3-0.9s-0.2-0.6-0.3-0.9c-0.3-0.6-0.5-1.3-0.9-1.9
				c-0.7-1.3-1.6-2.6-2.7-3.7c-1.1-1.1-2.5-1.9-3.8-2.5c-0.7-0.3-1.3-0.5-2-0.8c-0.3-0.1-0.6-0.2-0.9-0.3c-0.3-0.1-0.6-0.2-0.9-0.2
				c-2.3-0.5-4.1-0.6-4.4-1.4c-0.1-0.2,0-0.4,0.1-0.7c0.1-0.2,0.4-0.6,0.7-0.8c0.7-0.6,1.9-1.1,3.5-1.4c0.4-0.1,0.8-0.1,1.3-0.2
				c0.4,0,0.9,0,1.4,0c1,0,2,0.2,3,0.4c1.1,0.3,2.1,0.7,3.2,1.3c1.1,0.6,2.1,1.3,3,2.2c0.9,0.9,1.7,1.9,2.3,3c0.6,1,1.1,2.1,1.4,3.1
				c0.3,1,0.5,2.1,0.6,3c0,0.5,0,0.9,0,1.4c0,0.4,0,0.9-0.1,1.3c-0.2,1.6-0.7,2.8-1.3,3.5c-0.3,0.4-0.6,0.6-0.8,0.8
				C223.6,463.4,223.4,463.4,223.2,463.3z"/>
		</g>
		<g>
			<g>
				<path class="st0" d="M197.3,438.2c0.2,0.3-0.2,1.1-1.1,1.9c-0.3,0.3-0.6,0.5-0.8,0.6c-0.5,0.3-1,0.4-1.1,0.2
					c-0.2-0.3,0.2-1.1,1.1-1.9C196.2,438.3,197.1,438,197.3,438.2z"/>
				<path class="st3" d="M195.5,440.7c0,0,1-0.7,1.5-1.4c0.3,0.3,0.6,0.6,0.9,0.9c0,0-1.4,0.8-2.1,0.8L195.5,440.7z"/>
			</g>
			<g>
				<path class="st0" d="M190.8,449.6c0.4,0.1,0.4,1.1,0,2.2c-0.1,0.4-0.3,0.7-0.4,1c-0.3,0.5-0.6,0.9-0.9,0.8
					c-0.4-0.1-0.4-1.1,0-2.2S190.5,449.5,190.8,449.6z"/>
				<path class="st3" d="M190.5,452.7c0,0,0.6-1,0.6-2c0.4,0.1,0.8,0.2,1.2,0.3c0,0-0.8,1.4-1.4,1.8L190.5,452.7z"/>
			</g>
			<g>
				<path class="st0" d="M186.5,460.5c0.4-0.1,0.8,0.8,1.1,1.9c0.1,0.4,0.1,0.7,0.1,1.1c0,0.6-0.1,1.1-0.4,1.1
					c-0.4,0.1-0.8-0.8-1.1-1.9C186.1,461.6,186.2,460.6,186.5,460.5z"/>
				<path class="st3" d="M187.7,463.4c0,0-0.1-1.2-0.4-2c0.4-0.1,0.8-0.2,1.2-0.3c0,0,0,1.6-0.3,2.2L187.7,463.4z"/>
			</g>
			<g>
				<path class="st0" d="M192.8,471.8c0.3-0.2,1.1,0.2,1.9,1.1c0.3,0.3,0.5,0.6,0.6,0.8c0.3,0.5,0.4,1,0.3,1.1
					c-0.3,0.2-1.1-0.2-1.9-1.1C192.9,472.9,192.5,472,192.8,471.8z"/>
				<path class="st3" d="M195.3,473.6c0,0-0.6-1-1.4-1.5c0.3-0.2,0.6-0.5,0.9-0.9c0,0,0.8,1.4,0.8,2.1L195.3,473.6z"/>
			</g>
		</g>
		<g>
			<g>
				<path class="st0" d="M204.4,482.7c0-0.4,1-0.6,2.1-0.5c0.4,0,0.7,0.1,1,0.2c0.6,0.2,1,0.4,1,0.7c0,0.4-1,0.6-2.1,0.5
					C205.2,483.4,204.3,483,204.4,482.7z"/>
				<path class="st3" d="M207.4,482.3c0,0-1.2-0.3-2-0.1c0-0.4,0-0.8,0-1.2c0,0,1.6,0.4,2.1,0.9L207.4,482.3z"/>
			</g>
			<g>
				<path class="st0" d="M217.6,480.1c-0.1-0.3,0.6-1,1.7-1.3c0.4-0.1,0.7-0.2,1-0.3c0.6-0.1,1.1,0,1.1,0.2c0.1,0.3-0.6,1-1.7,1.3
					C218.7,480.4,217.7,480.4,217.6,480.1z"/>
				<path class="st3" d="M220.2,478.5c0,0-1.2,0.1-1.9,0.7c-0.1-0.4-0.3-0.7-0.4-1.2c0,0,1.6-0.2,2.2,0L220.2,478.5z"/>
			</g>
			<g>
				<path class="st0" d="M231.1,472.9c-0.3-0.2-0.1-1.1,0.4-2.1c0.2-0.3,0.4-0.6,0.6-0.9c0.4-0.5,0.8-0.7,1-0.6
					c0.3,0.2,0.1,1.1-0.4,2.1C232.1,472.5,231.4,473.1,231.1,472.9z"/>
				<path class="st3" d="M232.1,470c0,0-0.7,0.9-1,1.8c-0.3-0.2-0.7-0.4-1.1-0.6c0,0,1.1-1.2,1.7-1.5L232.1,470z"/>
			</g>
		</g>
		<g>
			<path class="st3" d="M204.1,462.7c0.2,1.3-0.3,2.5-1.2,2.7s-1.8-0.8-2-2.1s0.3-2.5,1.2-2.7S203.8,461.4,204.1,462.7z"/>
			<path class="st0" d="M203.2,461.5c0.2,1.3-0.3,2.5-1.2,2.7s-1.8-0.8-2-2.1c-0.2-1.3,0.3-2.5,1.2-2.7
				C202.1,459.2,203,460.2,203.2,461.5z"/>
			<path class="st4" d="M203.2,461.5c0.2,1.3-0.3,2.5-1.2,2.7s-1.8-0.8-2-2.1c-0.2-1.3,0.3-2.5,1.2-2.7
				C202.1,459.2,203,460.2,203.2,461.5z"/>
		</g>
		<g>
			<path class="st3" d="M201,449.2c1.1-0.8,2.4-0.9,2.9-0.2c0.6,0.7,0.2,2-0.9,2.8c-1.1,0.8-2.4,0.9-2.9,0.2
				C199.5,451.2,199.9,450,201,449.2z"/>
			<path class="st0" d="M200,448c1.1-0.8,2.4-0.9,2.9-0.2c0.6,0.7,0.2,2-0.9,2.8c-1.1,0.8-2.4,0.9-2.9,0.2S199,448.9,200,448z"/>
			<path class="st4" d="M200,448c1.1-0.8,2.4-0.9,2.9-0.2c0.6,0.7,0.2,2-0.9,2.8c-1.1,0.8-2.4,0.9-2.9,0.2S199,448.9,200,448z"/>
		</g>
		<g>
			<path class="st3" d="M210.1,469.1c0.2,0.9-0.4,1.7-1.3,1.9c-0.9,0.2-1.7-0.4-1.9-1.3s0.4-1.7,1.3-1.9
				C209.1,467.6,209.9,468.2,210.1,469.1z"/>
			<path class="st0" d="M209.9,468.2c0.2,0.9-0.4,1.7-1.3,1.9c-0.9,0.2-1.7-0.4-1.9-1.3s0.4-1.7,1.3-1.9
				C208.9,466.8,209.8,467.4,209.9,468.2z"/>
			<path class="st5" d="M209.9,468.2c0.2,0.9-0.4,1.7-1.3,1.9c-0.9,0.2-1.7-0.4-1.9-1.3s0.4-1.7,1.3-1.9
				C208.9,466.8,209.8,467.4,209.9,468.2z"/>
		</g>
		<g>
			<circle class="st3" cx="216.3" cy="452.2" r="2"/>
			<path class="st0" d="M218.6,452.4c-0.6,0.9-1.8,1.2-2.7,0.6s-1.2-1.8-0.6-2.7c0.6-0.9,1.8-1.2,2.7-0.6S219.1,451.4,218.6,452.4z"
				/>
			<path class="st5" d="M218.6,452.4c-0.6,0.9-1.8,1.2-2.7,0.6s-1.2-1.8-0.6-2.7c0.6-0.9,1.8-1.2,2.7-0.6S219.1,451.4,218.6,452.4z"
				/>
		</g>
		<g>
			<path class="st3" d="M218.4,469.2c0.1,0.6-0.3,1.2-0.9,1.4c-0.6,0.1-1.2-0.3-1.4-0.9c-0.1-0.6,0.3-1.2,0.9-1.4
				C217.6,468.1,218.2,468.5,218.4,469.2z"/>
			<path class="st0" d="M218.2,468.6c0.1,0.6-0.3,1.2-0.9,1.4c-0.6,0.1-1.2-0.3-1.4-0.9c-0.1-0.6,0.3-1.2,0.9-1.4
				C217.5,467.5,218.1,467.9,218.2,468.6z"/>
			<path class="st5" d="M218.2,468.6c0.1,0.6-0.3,1.2-0.9,1.4c-0.6,0.1-1.2-0.3-1.4-0.9c-0.1-0.6,0.3-1.2,0.9-1.4
				C217.5,467.5,218.1,467.9,218.2,468.6z"/>
		</g>
		<g>
			<g>
				<path class="st0" d="M235.7,457.1c-0.4,0.1-0.8-0.8-1.1-1.9c-0.1-0.4-0.1-0.7-0.1-1c0-0.6,0.1-1,0.4-1.1
					c0.4-0.1,0.8,0.8,1.1,1.9C236.1,456.1,236,457,235.7,457.1z"/>
				<path class="st3" d="M234.5,454.3c0,0,0.1,1.2,0.4,2c-0.4,0.1-0.8,0.2-1.2,0.3c0,0,0-1.6,0.3-2.2L234.5,454.3z"/>
			</g>
			<g>
				<path class="st0" d="M229.2,445.9c-0.3,0.2-1.1-0.2-1.9-1.1c-0.3-0.3-0.5-0.6-0.6-0.8c-0.3-0.5-0.4-1-0.3-1.1
					c0.3-0.2,1.1,0.2,1.9,1.1C229.1,444.7,229.4,445.6,229.2,445.9z"/>
				<path class="st3" d="M226.7,444c0,0,0.6,1,1.4,1.5c-0.3,0.2-0.6,0.5-0.9,0.8c0,0-0.8-1.3-0.8-2L226.7,444z"/>
			</g>
			<g>
				<path class="st0" d="M222,436.8c-0.1,0.3-1.1,0.3-2.2,0c-0.4-0.1-0.7-0.3-1-0.4c-0.5-0.3-0.8-0.6-0.8-0.9c0.1-0.3,1.1-0.3,2.2,0
					C221.4,435.9,222.1,436.4,222,436.8z"/>
				<path class="st3" d="M219,436.4c0,0,1.1,0.5,1.9,0.6c-0.1,0.4-0.2,0.8-0.3,1.2c0,0-1.4-0.8-1.8-1.4L219,436.4z"/>
			</g>
			<g>
				<g>
					<path class="st0" d="M209.3,436.5c0.1,0.4-0.8,0.8-1.9,1.1c-0.4,0.1-0.7,0.1-1,0.1c-0.6,0-1-0.1-1.1-0.3
						c-0.1-0.4,0.8-0.8,1.9-1.1C208.3,436.1,209.2,436.2,209.3,436.5z"/>
				</g>
				<path class="st3" d="M206.5,437.8c0,0,1.2,0,2-0.4c0.1,0.4,0.2,0.8,0.3,1.2c0,0-1.6,0-2.2-0.3L206.5,437.8z"/>
			</g>
		</g>
		<g>
			<path class="st3" d="M221.8,464.4c-0.4,1.3-1.4,2.1-2.3,1.8c-0.9-0.3-1.2-1.5-0.8-2.8s1.4-2.1,2.3-1.8
				C221.9,461.8,222.2,463.1,221.8,464.4z"/>
			<path class="st0" d="M222.4,463.6c-0.4,1.3-1.4,2.1-2.3,1.8c-0.9-0.3-1.2-1.5-0.8-2.8s1.4-2.1,2.3-1.8
				C222.4,461.1,222.8,462.3,222.4,463.6z"/>
			<path class="st5" d="M222.4,463.6c-0.4,1.3-1.4,2.1-2.3,1.8c-0.9-0.3-1.2-1.5-0.8-2.8s1.4-2.1,2.3-1.8
				C222.4,461.1,222.8,462.3,222.4,463.6z"/>
		</g>
		<g>
			<path class="st3" d="M213.2,458.1c0.2,1.3-0.6,2.6-2,2.8c-1.3,0.2-2.6-0.6-2.8-2c-0.2-1.3,0.6-2.6,2-2.8
				C211.7,455.9,213,456.7,213.2,458.1z"/>
			<path class="st0" d="M213,456.7c0.2,1.3-0.6,2.6-2,2.8c-1.3,0.2-2.6-0.6-2.8-2c-0.2-1.3,0.6-2.6,2-2.8
				C211.5,454.5,212.7,455.4,213,456.7z"/>
			<path class="st4" d="M213,456.7c0.2,1.3-0.6,2.6-2,2.8c-1.3,0.2-2.6-0.6-2.8-2c-0.2-1.3,0.6-2.6,2-2.8
				C211.5,454.5,212.7,455.4,213,456.7z"/>
		</g>
		<g class="st6">
			<path d="M221.7,470c0.1,0.2,0,0.6-0.5,1.2s-1.3,1.3-2.4,2c-0.6,0.4-1.2,0.7-1.9,1s-1.5,0.6-2.4,0.8c-1.7,0.4-3.7,0.6-5.8,0.4
				c-2.1-0.3-4-0.9-5.6-1.7c-0.8-0.4-1.5-0.9-2.2-1.4c-0.6-0.5-1.2-1-1.7-1.5c-0.9-1-1.5-1.9-1.9-2.5c-0.3-0.7-0.4-1.1-0.2-1.2
				c0.4-0.3,1.5,0.8,3.5,2.1c0.5,0.3,1,0.6,1.6,1c0.6,0.3,1.3,0.6,2,0.9c1.4,0.6,3,1,4.7,1.2s3.4,0.1,4.9-0.1
				c0.8-0.1,1.5-0.3,2.1-0.4c0.7-0.2,1.3-0.4,1.8-0.6C220.1,470.4,221.4,469.6,221.7,470z"/>
		</g>
		<g class="st6">
			<path d="M195.9,461.2c0.8-0.2,1.7,0.3,1.8,1.1c0.2,0.8-0.4,1.6-1.2,1.8c-0.8,0.2-1.7-0.3-1.8-1.1
				C194.5,462.2,195,461.4,195.9,461.2z"/>
		</g>
	</g>
</g>
<g id="corona3">
	<path class="st0" d="M298.4,465.3c0.8-2.1,1.2-4.3,1.2-6.6c1.4-1.2,6.7-2.4,6.7-2.4l-0.4-2c-2.1,0.4-6.4-0.1-7-0.2
		c-0.5-1.7-1.3-3.3-2.3-4.8c0.6-1.7,2.9-3.7,2.9-3.7l-1.3-1.5c-1.6,1.4-3.7,2.4-3.9,2.5c-1-0.9-2-1.7-3.2-2.4
		c-0.4-1.8,1.3-7.1,1.3-7.1l-1.9-0.7c-0.8,2.2-3.7,5.9-3.7,5.9c-1.6-0.4-3.3-0.6-5.1-0.5c-1.2-1.4-1.8-4.4-1.8-4.4l-2,0.4
		c0.4,2.3,0.2,4.5,0.2,4.6c-1.5,0.4-2.9,0.9-4.1,1.7c-1.8-0.7-5.5-4.6-5.5-4.6l-1.5,1.4c1.4,1.6,3,5.3,3.3,6.1
		c-1.4,1.4-2.5,2.9-3.3,4.6c-1.8,0.2-4.4-0.7-4.4-0.7l-0.6,1.9c1.7,0.6,3.2,1.5,3.8,1.9c-0.4,1.5-0.6,3-0.6,4.6
		c-1.9,1.1-6.4,2.2-6.4,2.2l0.4,2c1.9-0.4,5.3,0,6.6,0.2c0.5,1.9,1.3,3.6,2.4,5.2c-0.7,1.7-2.8,3.4-2.8,3.4l1.4,1.5
		c1.3-1.2,2.9-2,3.6-2.3c1.8,1.7,3.9,3,6.2,3.9c0.6,2,0.4,7,0.4,7l2,0.2c0.2-1.8,1.4-4.9,1.9-6.2c1.5,0.1,3,0.1,4.6-0.2
		c0.8-0.1,1.5-0.3,2.3-0.6c1.2,1.3,2,3.8,2,3.8l1.9-0.7c-0.7-2-0.8-4-0.8-4.5c2.1-1.2,4-2.8,5.4-4.8c2.1,0.4,6.3,2.5,6.3,2.5l1-1.8
		C301.6,469,298.9,465.9,298.4,465.3z M278.6,442.2C278.5,442.2,278.5,442.2,278.6,442.2C278.5,442.2,278.5,442.2,278.6,442.2z"/>
	<g>
		<g class="st1">
			<path class="st2" d="M294.6,463.3c-0.9-0.3-1-2-1.6-4.3c-0.1-0.3-0.2-0.6-0.3-0.9c-0.1-0.3-0.2-0.6-0.3-0.9
				c-0.3-0.6-0.5-1.3-0.9-1.9c-0.7-1.3-1.6-2.6-2.7-3.7s-2.5-1.9-3.8-2.5c-0.7-0.3-1.3-0.5-2-0.8c-0.3-0.1-0.6-0.2-0.9-0.3
				c-0.3-0.1-0.6-0.2-0.9-0.2c-2.3-0.5-4.1-0.6-4.4-1.4c-0.1-0.2,0-0.4,0.1-0.7c0.1-0.2,0.4-0.6,0.7-0.8c0.7-0.6,1.9-1.1,3.5-1.4
				c0.4-0.1,0.8-0.1,1.3-0.2c0.4,0,0.9,0,1.4,0c1,0,2,0.2,3,0.4c1.1,0.3,2.1,0.7,3.2,1.3c1.1,0.6,2.1,1.3,3,2.2
				c0.9,0.9,1.7,1.9,2.3,3c0.6,1,1.1,2.1,1.4,3.1s0.5,2.1,0.6,3c0,0.5,0,0.9,0,1.4c0,0.4,0,0.9-0.1,1.3c-0.2,1.6-0.7,2.8-1.3,3.5
				c-0.3,0.4-0.6,0.6-0.8,0.8C295,463.4,294.8,463.4,294.6,463.3z"/>
		</g>
		<g>
			<g>
				<path class="st0" d="M268.7,438.2c0.2,0.3-0.2,1.1-1.1,1.9c-0.3,0.3-0.6,0.5-0.8,0.6c-0.5,0.3-1,0.4-1.1,0.2
					c-0.2-0.3,0.2-1.1,1.1-1.9C267.6,438.3,268.5,438,268.7,438.2z"/>
				<path class="st3" d="M266.9,440.7c0,0,1-0.7,1.5-1.4c0.3,0.3,0.6,0.6,0.9,0.9c0,0-1.4,0.8-2.1,0.8L266.9,440.7z"/>
			</g>
			<g>
				<path class="st0" d="M262.2,449.6c0.4,0.1,0.4,1.1,0,2.2c-0.1,0.4-0.3,0.7-0.4,1c-0.3,0.5-0.6,0.9-0.9,0.8
					c-0.4-0.1-0.4-1.1,0-2.2S261.9,449.5,262.2,449.6z"/>
				<path class="st3" d="M261.9,452.7c0,0,0.6-1,0.6-2c0.4,0.1,0.8,0.2,1.2,0.3c0,0-0.8,1.4-1.4,1.8L261.9,452.7z"/>
			</g>
			<g>
				<path class="st0" d="M257.9,460.5c0.4-0.1,0.8,0.8,1.1,1.9c0.1,0.4,0.1,0.7,0.1,1.1c0,0.6-0.1,1.1-0.4,1.1
					c-0.4,0.1-0.8-0.8-1.1-1.9C257.5,461.6,257.6,460.6,257.9,460.5z"/>
				<path class="st3" d="M259.1,463.4c0,0-0.1-1.2-0.4-2c0.4-0.1,0.8-0.2,1.2-0.3c0,0,0,1.6-0.3,2.2L259.1,463.4z"/>
			</g>
			<g>
				<path class="st0" d="M264.2,471.8c0.3-0.2,1.1,0.2,1.9,1.1c0.3,0.3,0.5,0.6,0.6,0.8c0.3,0.5,0.4,1,0.3,1.1
					c-0.3,0.2-1.1-0.2-1.9-1.1C264.3,472.9,263.9,472,264.2,471.8z"/>
				<path class="st3" d="M266.7,473.6c0,0-0.6-1-1.4-1.5c0.3-0.2,0.6-0.5,0.9-0.9c0,0,0.8,1.4,0.8,2.1L266.7,473.6z"/>
			</g>
		</g>
		<g>
			<g>
				<path class="st0" d="M275.8,482.7c0-0.4,1-0.6,2.1-0.5c0.4,0,0.7,0.1,1,0.2c0.6,0.2,1,0.4,1,0.7c0,0.4-1,0.6-2.1,0.5
					C276.6,483.4,275.7,483,275.8,482.7z"/>
				<path class="st3" d="M278.8,482.3c0,0-1.2-0.3-2-0.1c0-0.4,0-0.8,0-1.2c0,0,1.6,0.4,2.1,0.9L278.8,482.3z"/>
			</g>
			<g>
				<path class="st0" d="M289,480.1c-0.1-0.3,0.6-1,1.7-1.3c0.4-0.1,0.7-0.2,1-0.3c0.6-0.1,1.1,0,1.1,0.2c0.1,0.3-0.6,1-1.7,1.3
					C290.1,480.4,289.1,480.4,289,480.1z"/>
				<path class="st3" d="M291.6,478.5c0,0-1.2,0.1-1.9,0.7c-0.1-0.4-0.3-0.7-0.4-1.2c0,0,1.6-0.2,2.2,0L291.6,478.5z"/>
			</g>
			<g>
				<path class="st0" d="M302.5,472.9c-0.3-0.2-0.1-1.1,0.4-2.1c0.2-0.3,0.4-0.6,0.6-0.9c0.4-0.5,0.8-0.7,1-0.6
					c0.3,0.2,0.1,1.1-0.4,2.1C303.5,472.5,302.8,473.1,302.5,472.9z"/>
				<path class="st3" d="M303.5,470c0,0-0.7,0.9-1,1.8c-0.3-0.2-0.7-0.4-1.1-0.6c0,0,1.1-1.2,1.7-1.5L303.5,470z"/>
			</g>
		</g>
		<g>
			<path class="st3" d="M275.5,462.7c0.2,1.3-0.3,2.5-1.2,2.7c-0.9,0.2-1.8-0.8-2-2.1s0.3-2.5,1.2-2.7
				C274.3,460.5,275.2,461.4,275.5,462.7z"/>
			<path class="st0" d="M274.6,461.5c0.2,1.3-0.3,2.5-1.2,2.7c-0.9,0.2-1.8-0.8-2-2.1c-0.2-1.3,0.3-2.5,1.2-2.7
				C273.5,459.2,274.4,460.2,274.6,461.5z"/>
			<path class="st4" d="M274.6,461.5c0.2,1.3-0.3,2.5-1.2,2.7c-0.9,0.2-1.8-0.8-2-2.1c-0.2-1.3,0.3-2.5,1.2-2.7
				C273.5,459.2,274.4,460.2,274.6,461.5z"/>
		</g>
		<g>
			<path class="st3" d="M272.4,449.2c1.1-0.8,2.4-0.9,2.9-0.2c0.6,0.7,0.2,2-0.9,2.8s-2.4,0.9-2.9,0.2
				C270.9,451.2,271.3,450,272.4,449.2z"/>
			<path class="st0" d="M271.4,448c1.1-0.8,2.4-0.9,2.9-0.2c0.6,0.7,0.2,2-0.9,2.8s-2.4,0.9-2.9,0.2S270.4,448.9,271.4,448z"/>
			<path class="st4" d="M271.4,448c1.1-0.8,2.4-0.9,2.9-0.2c0.6,0.7,0.2,2-0.9,2.8s-2.4,0.9-2.9,0.2S270.4,448.9,271.4,448z"/>
		</g>
		<g>
			<path class="st3" d="M281.5,469.1c0.2,0.9-0.4,1.7-1.3,1.9c-0.9,0.2-1.7-0.4-1.9-1.3s0.4-1.7,1.3-1.9
				C280.5,467.6,281.3,468.2,281.5,469.1z"/>
			<path class="st0" d="M281.3,468.2c0.2,0.9-0.4,1.7-1.3,1.9c-0.9,0.2-1.7-0.4-1.9-1.3c-0.2-0.9,0.4-1.7,1.3-1.9
				C280.3,466.8,281.2,467.4,281.3,468.2z"/>
			<path class="st5" d="M281.3,468.2c0.2,0.9-0.4,1.7-1.3,1.9c-0.9,0.2-1.7-0.4-1.9-1.3c-0.2-0.9,0.4-1.7,1.3-1.9
				C280.3,466.8,281.2,467.4,281.3,468.2z"/>
		</g>
		<g>
			<circle class="st3" cx="287.7" cy="452.2" r="2"/>
			<path class="st0" d="M290,452.4c-0.6,0.9-1.8,1.2-2.7,0.6c-0.9-0.6-1.2-1.8-0.6-2.7c0.6-0.9,1.8-1.2,2.7-0.6
				C290.3,450.2,290.5,451.4,290,452.4z"/>
			<path class="st5" d="M290,452.4c-0.6,0.9-1.8,1.2-2.7,0.6c-0.9-0.6-1.2-1.8-0.6-2.7c0.6-0.9,1.8-1.2,2.7-0.6
				C290.3,450.2,290.5,451.4,290,452.4z"/>
		</g>
		<g>
			<path class="st3" d="M289.7,469.2c0.1,0.6-0.3,1.2-0.9,1.4s-1.2-0.3-1.4-0.9s0.3-1.2,0.9-1.4C289,468.1,289.6,468.5,289.7,469.2z
				"/>
			<path class="st0" d="M289.6,468.6c0.1,0.6-0.3,1.2-0.9,1.4c-0.6,0.1-1.2-0.3-1.4-0.9c-0.1-0.6,0.3-1.2,0.9-1.4
				S289.5,467.9,289.6,468.6z"/>
			<path class="st5" d="M289.6,468.6c0.1,0.6-0.3,1.2-0.9,1.4c-0.6,0.1-1.2-0.3-1.4-0.9c-0.1-0.6,0.3-1.2,0.9-1.4
				S289.5,467.9,289.6,468.6z"/>
		</g>
		<g>
			<g>
				<path class="st0" d="M307.1,457.1c-0.4,0.1-0.8-0.8-1.1-1.9c-0.1-0.4-0.1-0.7-0.1-1c0-0.6,0.1-1,0.4-1.1
					c0.4-0.1,0.8,0.8,1.1,1.9C307.5,456.1,307.4,457,307.1,457.1z"/>
				<path class="st3" d="M305.9,454.3c0,0,0.1,1.2,0.4,2c-0.4,0.1-0.8,0.2-1.2,0.3c0,0,0-1.6,0.3-2.2L305.9,454.3z"/>
			</g>
			<g>
				<path class="st0" d="M300.6,445.9c-0.3,0.2-1.1-0.2-1.9-1.1c-0.3-0.3-0.5-0.6-0.6-0.8c-0.3-0.5-0.4-1-0.3-1.1
					c0.3-0.2,1.1,0.2,1.9,1.1C300.4,444.7,300.8,445.6,300.6,445.9z"/>
				<path class="st3" d="M298.1,444c0,0,0.6,1,1.4,1.5c-0.3,0.2-0.6,0.5-0.9,0.8c0,0-0.8-1.3-0.8-2L298.1,444z"/>
			</g>
			<g>
				<path class="st0" d="M293.4,436.8c-0.1,0.3-1.1,0.3-2.2,0c-0.4-0.1-0.7-0.3-1-0.4c-0.5-0.3-0.8-0.6-0.8-0.9
					c0.1-0.3,1.1-0.3,2.2,0C292.8,435.9,293.5,436.4,293.4,436.8z"/>
				<path class="st3" d="M290.4,436.4c0,0,1.1,0.5,1.9,0.6c-0.1,0.4-0.2,0.8-0.3,1.2c0,0-1.4-0.8-1.8-1.4L290.4,436.4z"/>
			</g>
			<g>
				<g>
					<path class="st0" d="M280.7,436.5c0.1,0.4-0.8,0.8-1.9,1.1c-0.4,0.1-0.7,0.1-1,0.1c-0.6,0-1-0.1-1.1-0.3
						c-0.1-0.4,0.8-0.8,1.9-1.1C279.7,436.1,280.6,436.2,280.7,436.5z"/>
				</g>
				<path class="st3" d="M277.9,437.8c0,0,1.2,0,2-0.4c0.1,0.4,0.2,0.8,0.3,1.2c0,0-1.6,0-2.2-0.3L277.9,437.8z"/>
			</g>
		</g>
		<g>
			<path class="st3" d="M293.2,464.4c-0.4,1.3-1.4,2.1-2.3,1.8c-0.9-0.3-1.2-1.5-0.8-2.8s1.4-2.1,2.3-1.8
				C293.3,461.8,293.6,463.1,293.2,464.4z"/>
			<path class="st0" d="M293.8,463.6c-0.4,1.3-1.4,2.1-2.3,1.8c-0.9-0.3-1.2-1.5-0.8-2.8c0.4-1.3,1.4-2.1,2.3-1.8
				C293.8,461.1,294.2,462.3,293.8,463.6z"/>
			<path class="st5" d="M293.8,463.6c-0.4,1.3-1.4,2.1-2.3,1.8c-0.9-0.3-1.2-1.5-0.8-2.8c0.4-1.3,1.4-2.1,2.3-1.8
				C293.8,461.1,294.2,462.3,293.8,463.6z"/>
		</g>
		<g>
			<path class="st3" d="M284.6,458.1c0.2,1.3-0.6,2.6-2,2.8c-1.3,0.2-2.6-0.6-2.8-2c-0.2-1.3,0.6-2.6,2-2.8
				C283.1,455.9,284.4,456.7,284.6,458.1z"/>
			<path class="st0" d="M284.4,456.7c0.2,1.3-0.6,2.6-2,2.8c-1.3,0.2-2.6-0.6-2.8-2c-0.2-1.3,0.6-2.6,2-2.8
				C282.9,454.5,284.1,455.4,284.4,456.7z"/>
			<path class="st4" d="M284.4,456.7c0.2,1.3-0.6,2.6-2,2.8c-1.3,0.2-2.6-0.6-2.8-2c-0.2-1.3,0.6-2.6,2-2.8
				C282.9,454.5,284.1,455.4,284.4,456.7z"/>
		</g>
		<g class="st6">
			<path d="M293.1,470c0.1,0.2,0,0.6-0.5,1.2s-1.3,1.3-2.4,2c-0.6,0.4-1.2,0.7-1.9,1c-0.7,0.3-1.5,0.6-2.4,0.8
				c-1.7,0.4-3.7,0.6-5.8,0.4c-2.1-0.3-4-0.9-5.6-1.7c-0.8-0.4-1.5-0.9-2.2-1.4c-0.6-0.5-1.2-1-1.7-1.5c-0.9-1-1.5-1.9-1.9-2.5
				c-0.3-0.7-0.4-1.1-0.2-1.2c0.4-0.3,1.5,0.8,3.5,2.1c0.5,0.3,1,0.6,1.6,1c0.6,0.3,1.3,0.6,2,0.9c1.4,0.6,3,1,4.7,1.2
				s3.4,0.1,4.9-0.1c0.8-0.1,1.5-0.3,2.1-0.4c0.7-0.2,1.3-0.4,1.8-0.6C291.5,470.4,292.8,469.6,293.1,470z"/>
		</g>
		<g class="st6">
			<path d="M267.3,461.2c0.8-0.2,1.7,0.3,1.8,1.1c0.2,0.8-0.4,1.6-1.2,1.8c-0.8,0.2-1.7-0.3-1.8-1.1
				C265.9,462.2,266.4,461.4,267.3,461.2z"/>
		</g>
	</g>
</g>
<g id="corona4">
	<path class="st0" d="M369.8,465.3c0.8-2.1,1.2-4.3,1.2-6.6c1.4-1.2,6.7-2.4,6.7-2.4l-0.4-2c-2.1,0.4-6.4-0.1-7-0.2
		c-0.5-1.7-1.3-3.3-2.3-4.8c0.6-1.7,2.9-3.7,2.9-3.7l-1.3-1.5c-1.6,1.4-3.7,2.4-3.9,2.5c-1-0.9-2-1.7-3.2-2.4
		c-0.4-1.8,1.3-7.1,1.3-7.1l-1.9-0.7c-0.8,2.2-3.7,5.9-3.7,5.9c-1.6-0.4-3.3-0.6-5.1-0.5c-1.2-1.4-1.8-4.4-1.8-4.4l-2,0.4
		c0.4,2.3,0.2,4.5,0.2,4.6c-1.5,0.4-2.9,0.9-4.1,1.7c-1.8-0.7-5.5-4.6-5.5-4.6l-1.5,1.4c1.4,1.6,3,5.3,3.3,6.1
		c-1.4,1.4-2.5,2.9-3.3,4.6c-1.8,0.2-4.4-0.7-4.4-0.7l-0.6,1.9c1.7,0.6,3.2,1.5,3.8,1.9c-0.4,1.5-0.6,3-0.6,4.6
		c-1.9,1.1-6.4,2.2-6.4,2.2l0.4,2c1.9-0.4,5.3,0,6.6,0.2c0.5,1.9,1.3,3.6,2.4,5.2c-0.7,1.7-2.8,3.4-2.8,3.4l1.4,1.5
		c1.3-1.2,2.9-2,3.6-2.3c1.8,1.7,3.9,3,6.2,3.9c0.6,2,0.4,7,0.4,7l2,0.2c0.2-1.8,1.4-4.9,1.9-6.2c1.5,0.1,3,0.1,4.6-0.2
		c0.8-0.1,1.5-0.3,2.3-0.6c1.2,1.3,2,3.8,2,3.8l1.9-0.7c-0.7-2-0.8-4-0.8-4.5c2.1-1.2,4-2.8,5.4-4.8c2.1,0.4,6.3,2.5,6.3,2.5l1-1.8
		C373,469,370.3,465.9,369.8,465.3z M350,442.2C349.9,442.2,349.9,442.2,350,442.2C349.9,442.2,349.9,442.2,350,442.2z"/>
	<g>
		<g class="st1">
			<path class="st2" d="M366,463.3c-0.9-0.3-1-2-1.6-4.3c-0.1-0.3-0.2-0.6-0.3-0.9c-0.1-0.3-0.2-0.6-0.3-0.9
				c-0.3-0.6-0.5-1.3-0.9-1.9c-0.7-1.3-1.6-2.6-2.7-3.7s-2.5-1.9-3.8-2.5c-0.7-0.3-1.3-0.5-2-0.8c-0.3-0.1-0.6-0.2-0.9-0.3
				c-0.3-0.1-0.6-0.2-0.9-0.2c-2.3-0.5-4.1-0.6-4.4-1.4c-0.1-0.2,0-0.4,0.1-0.7c0.1-0.2,0.4-0.6,0.7-0.8c0.7-0.6,1.9-1.1,3.5-1.4
				c0.4-0.1,0.8-0.1,1.3-0.2c0.4,0,0.9,0,1.4,0c1,0,2,0.2,3,0.4c1.1,0.3,2.1,0.7,3.2,1.3c1.1,0.6,2.1,1.3,3,2.2
				c0.9,0.9,1.7,1.9,2.3,3c0.6,1,1.1,2.1,1.4,3.1s0.5,2.1,0.6,3c0,0.5,0,0.9,0,1.4c0,0.4,0,0.9-0.1,1.3c-0.2,1.6-0.7,2.8-1.3,3.5
				c-0.3,0.4-0.6,0.6-0.8,0.8C366.4,463.4,366.2,463.4,366,463.3z"/>
		</g>
		<g>
			<g>
				<path class="st0" d="M340.1,438.2c0.2,0.3-0.2,1.1-1.1,1.9c-0.3,0.3-0.6,0.5-0.8,0.6c-0.5,0.3-1,0.4-1.1,0.2
					c-0.2-0.3,0.2-1.1,1.1-1.9C339,438.3,339.9,438,340.1,438.2z"/>
				<path class="st3" d="M338.3,440.7c0,0,1-0.7,1.5-1.4c0.3,0.3,0.6,0.6,0.9,0.9c0,0-1.4,0.8-2.1,0.8L338.3,440.7z"/>
			</g>
			<g>
				<path class="st0" d="M333.6,449.6c0.4,0.1,0.4,1.1,0,2.2c-0.1,0.4-0.3,0.7-0.4,1c-0.3,0.5-0.6,0.9-0.9,0.8
					c-0.4-0.1-0.4-1.1,0-2.2S333.3,449.5,333.6,449.6z"/>
				<path class="st3" d="M333.3,452.7c0,0,0.6-1,0.6-2c0.4,0.1,0.8,0.2,1.2,0.3c0,0-0.8,1.4-1.4,1.8L333.3,452.7z"/>
			</g>
			<g>
				<path class="st0" d="M329.3,460.5c0.4-0.1,0.8,0.8,1.1,1.9c0.1,0.4,0.1,0.7,0.1,1.1c0,0.6-0.1,1.1-0.4,1.1
					c-0.4,0.1-0.8-0.8-1.1-1.9C328.8,461.6,329,460.6,329.3,460.5z"/>
				<path class="st3" d="M330.5,463.4c0,0-0.1-1.2-0.4-2c0.4-0.1,0.8-0.2,1.2-0.3c0,0,0,1.6-0.3,2.2L330.5,463.4z"/>
			</g>
			<g>
				<path class="st0" d="M335.6,471.8c0.3-0.2,1.1,0.2,1.9,1.1c0.3,0.3,0.5,0.6,0.6,0.8c0.3,0.5,0.4,1,0.3,1.1
					c-0.3,0.2-1.1-0.2-1.9-1.1C335.7,472.9,335.3,472,335.6,471.8z"/>
				<path class="st3" d="M338.1,473.6c0,0-0.6-1-1.4-1.5c0.3-0.2,0.6-0.5,0.9-0.9c0,0,0.8,1.4,0.8,2.1L338.1,473.6z"/>
			</g>
		</g>
		<g>
			<g>
				<path class="st0" d="M347.2,482.7c0-0.4,1-0.6,2.1-0.5c0.4,0,0.7,0.1,1,0.2c0.6,0.2,1,0.4,1,0.7c0,0.4-1,0.6-2.1,0.5
					C348,483.4,347.1,483,347.2,482.7z"/>
				<path class="st3" d="M350.2,482.3c0,0-1.2-0.3-2-0.1c0-0.4,0-0.8,0-1.2c0,0,1.6,0.4,2.1,0.9L350.2,482.3z"/>
			</g>
			<g>
				<path class="st0" d="M360.3,480.1c-0.1-0.3,0.6-1,1.7-1.3c0.4-0.1,0.7-0.2,1-0.3c0.6-0.1,1.1,0,1.1,0.2c0.1,0.3-0.6,1-1.7,1.3
					C361.4,480.4,360.5,480.4,360.3,480.1z"/>
				<path class="st3" d="M363,478.5c0,0-1.2,0.1-1.9,0.7c-0.1-0.4-0.3-0.7-0.4-1.2c0,0,1.6-0.2,2.2,0L363,478.5z"/>
			</g>
			<g>
				<path class="st0" d="M373.9,472.9c-0.3-0.2-0.1-1.1,0.4-2.1c0.2-0.3,0.4-0.6,0.6-0.9c0.4-0.5,0.8-0.7,1-0.6
					c0.3,0.2,0.1,1.1-0.4,2.1C374.9,472.5,374.2,473.1,373.9,472.9z"/>
				<path class="st3" d="M374.8,470c0,0-0.7,0.9-1,1.8c-0.3-0.2-0.7-0.4-1.1-0.6c0,0,1.1-1.2,1.7-1.5L374.8,470z"/>
			</g>
		</g>
		<g>
			<path class="st3" d="M346.9,462.7c0.2,1.3-0.3,2.5-1.2,2.7c-0.9,0.2-1.8-0.8-2-2.1s0.3-2.5,1.2-2.7
				C345.7,460.5,346.6,461.4,346.9,462.7z"/>
			<path class="st0" d="M346,461.5c0.2,1.3-0.3,2.5-1.2,2.7c-0.9,0.2-1.8-0.8-2-2.1s0.3-2.5,1.2-2.7
				C344.9,459.2,345.8,460.2,346,461.5z"/>
			<path class="st4" d="M346,461.5c0.2,1.3-0.3,2.5-1.2,2.7c-0.9,0.2-1.8-0.8-2-2.1s0.3-2.5,1.2-2.7
				C344.9,459.2,345.8,460.2,346,461.5z"/>
		</g>
		<g>
			<path class="st3" d="M343.8,449.2c1.1-0.8,2.4-0.9,2.9-0.2c0.6,0.7,0.2,2-0.9,2.8s-2.4,0.9-2.9,0.2
				C342.3,451.2,342.7,450,343.8,449.2z"/>
			<path class="st0" d="M342.8,448c1.1-0.8,2.4-0.9,2.9-0.2c0.6,0.7,0.2,2-0.9,2.8s-2.4,0.9-2.9,0.2S341.8,448.9,342.8,448z"/>
			<path class="st4" d="M342.8,448c1.1-0.8,2.4-0.9,2.9-0.2c0.6,0.7,0.2,2-0.9,2.8s-2.4,0.9-2.9,0.2S341.8,448.9,342.8,448z"/>
		</g>
		<g>
			<path class="st3" d="M352.9,469.1c0.2,0.9-0.4,1.7-1.3,1.9c-0.9,0.2-1.7-0.4-1.9-1.3c-0.2-0.9,0.4-1.7,1.3-1.9
				S352.7,468.2,352.9,469.1z"/>
			<path class="st0" d="M352.7,468.2c0.2,0.9-0.4,1.7-1.3,1.9c-0.9,0.2-1.7-0.4-1.9-1.3s0.4-1.7,1.3-1.9
				C351.7,466.8,352.6,467.4,352.7,468.2z"/>
			<path class="st5" d="M352.7,468.2c0.2,0.9-0.4,1.7-1.3,1.9c-0.9,0.2-1.7-0.4-1.9-1.3s0.4-1.7,1.3-1.9
				C351.7,466.8,352.6,467.4,352.7,468.2z"/>
		</g>
		<g>
			<circle class="st3" cx="359.1" cy="452.2" r="2"/>
			<path class="st0" d="M361.4,452.4c-0.6,0.9-1.8,1.2-2.7,0.6c-0.9-0.6-1.2-1.8-0.6-2.7c0.6-0.9,1.8-1.2,2.7-0.6
				C361.7,450.2,361.9,451.4,361.4,452.4z"/>
			<path class="st5" d="M361.4,452.4c-0.6,0.9-1.8,1.2-2.7,0.6c-0.9-0.6-1.2-1.8-0.6-2.7c0.6-0.9,1.8-1.2,2.7-0.6
				C361.7,450.2,361.9,451.4,361.4,452.4z"/>
		</g>
		<g>
			<path class="st3" d="M361.1,469.2c0.1,0.6-0.3,1.2-0.9,1.4c-0.6,0.1-1.2-0.3-1.4-0.9c-0.1-0.6,0.3-1.2,0.9-1.4
				C360.4,468.1,361,468.5,361.1,469.2z"/>
			<path class="st0" d="M361,468.6c0.1,0.6-0.3,1.2-0.9,1.4c-0.6,0.1-1.2-0.3-1.4-0.9c-0.1-0.6,0.3-1.2,0.9-1.4
				S360.9,467.9,361,468.6z"/>
			<path class="st5" d="M361,468.6c0.1,0.6-0.3,1.2-0.9,1.4c-0.6,0.1-1.2-0.3-1.4-0.9c-0.1-0.6,0.3-1.2,0.9-1.4
				S360.9,467.9,361,468.6z"/>
		</g>
		<g>
			<g>
				<path class="st0" d="M378.5,457.1c-0.4,0.1-0.8-0.8-1.1-1.9c-0.1-0.4-0.1-0.7-0.1-1c0-0.6,0.1-1,0.4-1.1
					c0.4-0.1,0.8,0.8,1.1,1.9C378.9,456.1,378.8,457,378.5,457.1z"/>
				<path class="st3" d="M377.3,454.3c0,0,0.1,1.2,0.4,2c-0.4,0.1-0.8,0.2-1.2,0.3c0,0,0-1.6,0.3-2.2L377.3,454.3z"/>
			</g>
			<g>
				<path class="st0" d="M372,445.9c-0.3,0.2-1.1-0.2-1.9-1.1c-0.3-0.3-0.5-0.6-0.6-0.8c-0.3-0.5-0.4-1-0.3-1.1
					c0.3-0.2,1.1,0.2,1.9,1.1C371.8,444.7,372.2,445.6,372,445.9z"/>
				<path class="st3" d="M369.5,444c0,0,0.6,1,1.4,1.5c-0.3,0.2-0.6,0.5-0.9,0.8c0,0-0.8-1.3-0.8-2L369.5,444z"/>
			</g>
			<g>
				<path class="st0" d="M364.8,436.8c-0.1,0.3-1.1,0.3-2.2,0c-0.4-0.1-0.7-0.3-1-0.4c-0.5-0.3-0.8-0.6-0.8-0.9
					c0.1-0.3,1.1-0.3,2.2,0S364.9,436.4,364.8,436.8z"/>
				<path class="st3" d="M361.8,436.4c0,0,1.1,0.5,1.9,0.6c-0.1,0.4-0.2,0.8-0.3,1.2c0,0-1.4-0.8-1.8-1.4L361.8,436.4z"/>
			</g>
			<g>
				<g>
					<path class="st0" d="M352.1,436.5c0.1,0.4-0.8,0.8-1.9,1.1c-0.4,0.1-0.7,0.1-1,0.1c-0.6,0-1-0.1-1.1-0.3
						c-0.1-0.4,0.8-0.8,1.9-1.1C351,436.1,352,436.2,352.1,436.5z"/>
				</g>
				<path class="st3" d="M349.3,437.8c0,0,1.2,0,2-0.4c0.1,0.4,0.2,0.8,0.3,1.2c0,0-1.6,0-2.2-0.3L349.3,437.8z"/>
			</g>
		</g>
		<g>
			<path class="st3" d="M364.6,464.4c-0.4,1.3-1.4,2.1-2.3,1.8c-0.9-0.3-1.2-1.5-0.8-2.8s1.4-2.1,2.3-1.8
				C364.7,461.8,365,463.1,364.6,464.4z"/>
			<path class="st0" d="M365.2,463.6c-0.4,1.3-1.4,2.1-2.3,1.8c-0.9-0.3-1.2-1.5-0.8-2.8c0.4-1.3,1.4-2.1,2.3-1.8
				C365.2,461.1,365.6,462.3,365.2,463.6z"/>
			<path class="st5" d="M365.2,463.6c-0.4,1.3-1.4,2.1-2.3,1.8c-0.9-0.3-1.2-1.5-0.8-2.8c0.4-1.3,1.4-2.1,2.3-1.8
				C365.2,461.1,365.6,462.3,365.2,463.6z"/>
		</g>
		<g>
			<path class="st3" d="M356,458.1c0.2,1.3-0.6,2.6-2,2.8c-1.3,0.2-2.6-0.6-2.8-2c-0.2-1.3,0.6-2.6,2-2.8
				C354.5,455.9,355.8,456.7,356,458.1z"/>
			<path class="st0" d="M355.8,456.7c0.2,1.3-0.6,2.6-2,2.8c-1.3,0.2-2.6-0.6-2.8-2c-0.2-1.3,0.6-2.6,2-2.8S355.5,455.4,355.8,456.7
				z"/>
			<path class="st4" d="M355.8,456.7c0.2,1.3-0.6,2.6-2,2.8c-1.3,0.2-2.6-0.6-2.8-2c-0.2-1.3,0.6-2.6,2-2.8S355.5,455.4,355.8,456.7
				z"/>
		</g>
		<g class="st6">
			<path d="M364.5,470c0.1,0.2,0,0.6-0.5,1.2s-1.3,1.3-2.4,2c-0.6,0.4-1.2,0.7-1.9,1c-0.7,0.3-1.5,0.6-2.4,0.8
				c-1.7,0.4-3.7,0.6-5.8,0.4c-2.1-0.3-4-0.9-5.6-1.7c-0.8-0.4-1.5-0.9-2.2-1.4c-0.6-0.5-1.2-1-1.7-1.5c-0.9-1-1.5-1.9-1.9-2.5
				c-0.3-0.7-0.4-1.1-0.2-1.2c0.4-0.3,1.5,0.8,3.5,2.1c0.5,0.3,1,0.6,1.6,1c0.6,0.3,1.3,0.6,2,0.9c1.4,0.6,3,1,4.7,1.2
				s3.4,0.1,4.9-0.1c0.8-0.1,1.5-0.3,2.1-0.4c0.7-0.2,1.3-0.4,1.8-0.6C362.9,470.4,364.2,469.6,364.5,470z"/>
		</g>
		<g class="st6">
			<path d="M338.7,461.2c0.8-0.2,1.7,0.3,1.8,1.1c0.2,0.8-0.4,1.6-1.2,1.8c-0.8,0.2-1.7-0.3-1.8-1.1
				C337.3,462.2,337.8,461.4,338.7,461.2z"/>
		</g>
	</g>
</g>
</svg>
