<?xml version="1.0" encoding="utf-8"?>
<!-- Generator: Adobe Illustrator 24.2.1, SVG Export Plug-In . SVG Version: 6.00 Build 0)  -->
<svg version="1.1" id="Layer_1" xmlns="http://www.w3.org/2000/svg" xmlns:xlink="http://www.w3.org/1999/xlink" x="0px" y="0px"
	 viewBox="0 0 500 500" style="enable-background:new 0 0 500 500;" xml:space="preserve">
<style type="text/css">
	.st0{display:none;fill:#89BAD2;}
	.st1{fill:#F26222;}
	.st2{fill:#F58049;}
	.st3{fill:#F15D3C;}
	.st4{fill:#FFE5BB;}
	.st5{fill:#FCC08B;}
	.st6{fill:#FDDBAE;}
	.st7{fill:#8F532F;}
	.st8{fill:#FBB78D;}
	.st9{fill:#FFFFFF;}
	.st10{fill:#EF412F;}
	.st11{display:none;}
	.st12{display:inline;}
	.st13{fill:#D39C7B;}
	.st14{fill:#A6765A;}
	.st15{fill:#7D5944;}
	.st16{fill:#FFF5E4;}
	.st17{fill:#2D7592;}
	.st18{fill:#389BC2;}
	.st19{fill:#DADED4;}
	.st20{fill:#FDCEA3;}
	.st21{fill:url(#SVGID_1_);}
	.st22{fill:url(#SVGID_2_);}
</style>
<g>
	<g>
		<path class="st0" d="M581.2,299.9c0,182.8-148.3,331.1-331.1,331.1S-81,482.7-81,299.9S67.3-31.2,250.1-31.2
			S581.2,117.1,581.2,299.9z"/>
		<path class="st1" d="M183.3,393.9c0,37.2-30.2,67.5-67.5,67.5c-37.2,0-67.5-30.2-67.5-67.5c0-37.2,30.2-67.5,67.5-67.5
			C153.2,326.4,183.3,356.5,183.3,393.9z"/>
		<path class="st1" d="M174.6,318c0,37.2-30.2,67.5-67.5,67.5S39.5,355.2,39.5,318s30.2-67.5,67.5-67.5S174.6,280.6,174.6,318z"/>
		<path class="st1" d="M149.8,311.3c0,37.2-30.2,67.5-67.5,67.5c-37.2,0-67.5-30.2-67.5-67.5c0-37.2,30.2-67.5,67.5-67.5
			S149.8,274,149.8,311.3z"/>
		<path class="st1" d="M194.9,210.9c0,37.2-30.2,67.5-67.5,67.5c-37.2,0-67.5-30.2-67.5-67.5c0-37.2,30.2-67.5,67.5-67.5
			C164.6,143.4,194.9,173.7,194.9,210.9z"/>
		<path class="st1" d="M269,153.2c0,42.3-34.3,76.6-76.6,76.6s-76.6-34.3-76.6-76.6s34.3-76.6,76.6-76.6S269,110.9,269,153.2z"/>
		<path class="st1" d="M234.3,103.6c0,37.2-30.2,67.5-67.5,67.5c-37.2,0-67.5-30.2-67.5-67.5c0-37.2,30.2-67.5,67.5-67.5
			C204.1,36.1,234.3,66.3,234.3,103.6z"/>
		<path class="st1" d="M262.3,256.7c0,37.2-30.2,67.5-67.5,67.5c-37.2,0-67.5-30.2-67.5-67.5c0-37.2,30.2-67.5,67.5-67.5
			C232.1,189.1,262.3,219.3,262.3,256.7z"/>
		<path class="st1" d="M250.6,358.8c0,37.2-30.2,67.5-67.5,67.5c-37.2,0-67.5-30.2-67.5-67.5c0-37.2,30.2-67.5,67.5-67.5
			C220.3,291.4,250.6,321.6,250.6,358.8z"/>
		<path class="st2" d="M305.2,403c0,37.2,30.2,67.5,67.5,67.5c37.2,0,67.5-30.2,67.5-67.5c0-37.2-30.2-67.5-67.5-67.5
			S305.2,365.6,305.2,403z"/>
		<path class="st2" d="M332.5,326.4c0,42.3,34.3,76.6,76.6,76.6c42.3,0,76.6-34.3,76.6-76.6s-34.3-76.6-76.6-76.6
			C366.8,249.8,332.5,284.1,332.5,326.4z"/>
		<path class="st2" d="M324.2,318c0,37.2,30.2,67.5,67.5,67.5c37.2,0,67.5-30.2,67.5-67.5c0-37.2-30.2-67.5-67.5-67.5
			S324.2,280.6,324.2,318z"/>
		<ellipse class="st2" cx="369.5" cy="208.4" rx="67.6" ry="67.6"/>
		<path class="st3" d="M197.4,148.6c0,42.3,34.3,76.6,76.6,76.6s76.6-34.3,76.6-76.6S316.3,72,274,72
			C231.7,72.1,197.4,106.4,197.4,148.6z"/>
		<path class="st2" d="M254.8,109.2c0,37.2,30.2,67.5,67.5,67.5c37.2,0,67.5-30.2,67.5-67.5c0-37.2-30.2-67.5-67.5-67.5
			C285.1,41.8,254.8,72,254.8,109.2z"/>
		<path class="st2" d="M232.9,257c0,42.3,34.3,76.6,76.6,76.6s76.6-34.3,76.6-76.6s-34.3-76.6-76.6-76.6S232.9,214.7,232.9,257z"/>
		<path class="st2" d="M254.2,324.5c0,37.2,30.2,67.5,67.5,67.5c37.2,0,67.5-30.2,67.5-67.5c0-37.2-30.2-67.5-67.5-67.5
			C284.4,257.1,254.2,287.3,254.2,324.5z"/>
		<path class="st4" d="M251.7,289.7l-56.2-28.2v127.4c0,0,21.8,26.1,56.2,26.1c40.7,0,56.2-24.1,56.2-24.1V280.2L251.7,289.7z"/>
		<path class="st5" d="M307.9,311.2c0,0-26.9,24.7-112.4,71.3l0.1-83.2L307.9,311.2z"/>
		<g>
			<path class="st6" d="M158.3,186.3c0,0,17.3,108.1,20.2,113.4c2.9,5.3,54.9,36.4,73.1,35.1V60.8
				C230.3,60.8,144.9,65.9,158.3,186.3z"/>
			<path class="st4" d="M253,60.8c-0.4,0-0.9,0-1.3,0V335c18.2,1.3,68.1-29.1,71-34.4S345,186.3,345,186.3
				C355.4,65.6,275.1,60.9,253,60.8z"/>
		</g>
		<path class="st4" d="M308.3,382.5L252,412.8l-56.4-30.3C161.1,410,108.8,428,108.8,428S184,468.2,252,469
			c67.9-0.8,145.5-41.4,145.5-41.4S343.6,406.3,308.3,382.5z"/>
		<g>
			<path class="st7" d="M299,163.6c28.7-3.7,35.6,8.6,35.6,8.6c-18.9-10-38.4-4.3-52.1-2c-11.7,2-11.6-2.8-10.9-6.1
				C272.2,165.3,276.2,166.5,299,163.6z"/>
		</g>
		<g>
			<path class="st7" d="M210.3,162.5c-28.7-3.7-35.6,8.6-35.6,8.6c18.9-10,38.4-4.3,52.1-2c11.7,2,11.6-2.8,10.9-6.1
				C237.2,164.3,233.2,165.5,210.3,162.5z"/>
		</g>
		<g>
			<path class="st3" d="M219.4,274.8c-1.3-0.4-0.8,0-2.1-0.4c0,0,7.7,22.2,30.6,23.4c1.2,0.1,2.5,0.1,4,0.3v-13.3
				C242.8,284.5,230.8,280.6,219.4,274.8z"/>
			<path class="st3" d="M265.8,268.9c-10.1-3.1-11.2-0.3-14.1,2c-2.9-2.3-4-5.1-14.1-2c-9.3,2.8-20.5,5.6-20.5,5.6s3.5,0.7,8.9,1.2
				c5.7,0.5,14.1,1.3,25.7,1.3c11.6,0,19.9-0.8,25.7-1.3c5.5-0.7,8.9-1.2,8.9-1.2S275.1,271.7,265.8,268.9z"/>
			<path class="st8" d="M219.5,275.2c0,0,2.8,0.7,8.8,1.2C222.8,275.8,219.5,275.2,219.5,275.2z"/>
			<g>
				<path class="st3" d="M284.1,274.8c1.3-0.4,0.8,0,2.1-0.4c0,0-7.7,22.2-30.6,23.4c-1.2,0.1-2.5,0.1-4,0.3v-13.3
					C260.6,284.5,272.6,280.6,284.1,274.8z"/>
				<path class="st9" d="M277.4,275.7c-6.4,0.7-15.6,1.5-25.5,1.3c-10.1,0.1-19.3-0.5-25.7-1.3c-6.1-0.7-8.9-1.2-8.9-1.2
					c1.3,0.8,2.7,1.3,3.9,2c11.6,5.9,21.8,8.1,30.7,8.2c8.9-0.1,19.1-2.5,30.7-8.2c1.3-0.7,2.5-1.2,3.9-2
					C286.3,274.5,283.3,275,277.4,275.7z"/>
				<path class="st8" d="M286.3,274.5c0,0-2.9,0.7-8.9,1.2C282.8,275,286.3,274.5,286.3,274.5z"/>
			</g>
		</g>
		<path class="st1" d="M113,147.9c0,24.5,19.8,44.3,44.3,44.3c24.5,0,44.3-19.8,44.3-44.3s-19.8-44.3-44.3-44.3
			C132.7,103.6,113,123.4,113,147.9z"/>
		<path class="st1" d="M164.6,95.1c0,24.5,19.8,44.3,44.3,44.3c24.5,0,44.3-19.8,44.3-44.3s-19.8-44.3-44.3-44.3
			C184.4,51,164.6,70.8,164.6,95.1z"/>
		<path class="st1" d="M175.5,51c0,24.5,19.8,44.3,44.3,44.3s44.3-19.8,44.3-44.3S244.2,6.7,219.8,6.7
			C195.3,6.7,175.5,26.5,175.5,51z"/>
		<path class="st2" d="M296.2,106.6c0,21.1,17.2,38.2,38.2,38.2s38.2-17.2,38.2-38.2s-17-38.2-38.2-38.2S296.2,85.4,296.2,106.6z"/>
		<path class="st4" d="M462.5,503.5c-4.5-27.5-11.4-51.1-21.8-56.8c0,0,0,0,0.1-0.1c-0.1-0.1-0.3-0.1-0.5-0.3
			c-13.7-6.5-79.5-34.3-79.5-34.3l-52.9-27.1c0,0-37.6,28.2-54.5,27.9c-0.4,0-0.9,0-1.5-0.1c-18.5-1.1-56.4-23.8-56.4-23.8L146,412
			l0.1,0.3c-0.1-0.1-0.1-0.1-0.3-0.3c0,0-65.8,27.8-79.5,34.3c-0.1,0.1-0.3,0.1-0.5,0.3l0,0c-10.4,5.6-17.2,29-21.8,56.4
			C107.6,488.5,260.1,463.9,462.5,503.5z"/>
		<g>
			<path class="st1" d="M233.5,54.6c1.2,14.1,8.8,25.9,19.7,33.2V14C240.1,22.7,232,37.9,233.5,54.6z"/>
			<path class="st2" d="M321.6,47.3c-2-24.3-23.4-42.4-47.7-40.4c-7.7,0.7-14.8,3.2-20.7,7.2v73.8c8,5.3,17.8,8.1,28.1,7.2
				C305.5,93,323.6,71.6,321.6,47.3z"/>
		</g>
		<g>
			<g>
				<path class="st10" d="M44.1,503.1c-1.3,8-2.5,16.2-3.5,24.5c-0.9,8.4-1.7,16.9-2.4,24.9c57.6,48.4,131.9,77.7,213,77.7
					c0.3,0,0.4,0,0.7,0l1.1-148.1C155.8,481.4,83.1,494,44.1,503.1z"/>
				<path class="st10" d="M462.5,503.5c-78.1-15.3-148.5-21-209.4-21.4L252,630.2c82.7-0.1,158.2-30.7,216.1-80.8
					c-0.7-7.2-1.3-14.6-2.3-22.1C464.8,519.2,463.8,511.2,462.5,503.5z"/>
			</g>
		</g>
	</g>
	<g class="st11">
		<g class="st12">
			<path class="st13" d="M274.6,187.1c0,0,9.4-17.6,34.4-9.4c3.2,1.1,5.5,1.7,10.4,4.5c0,0-2.1-1.2-16-4.3
				C286.9,174.4,277.6,184.6,274.6,187.1z"/>
			<path class="st14" d="M276.2,196.6c0,0,10.8,6.4,21.1,6.4c13.3,0,19.3-8.2,22.1-10.4c0,0-11,6.2-19,7.4
				C293.7,201.1,277.6,196.3,276.2,196.6z"/>
			<path class="st15" d="M298.1,183.7c0,0,6.2-4.4,8.5-10.6c0,0,0.9,8.9-4,10.6H298.1z"/>
			<path class="st15" d="M303.6,184.7c0,0,6.2-4.4,8.5-10.6c0,0,0.9,8.9-4,10.6H303.6z"/>
			<path class="st15" d="M307.9,187.9c0,0,6.2-4.4,8.5-10.6c0,0,0.9,8.9-4,10.6H307.9z"/>
			<path class="st15" d="M287.2,186.5c0,0,4.5-4.5,5.6-10.2c0,0,1.7,7.8-2.1,9.8L287.2,186.5z"/>
			<path class="st15" d="M293.2,183.5c0,0,4.5-4.5,5.6-10.2c0,0,1.7,7.8-2.1,9.8L293.2,183.5z"/>
			<path class="st16" d="M275.4,192.6c0,0,8.6-9.7,21.3-8.8c12.6,0.9,23.5,3.6,23.5,3.6l-0.8,5.3c-6.8,5.9-11.3,7.2-17.4,8.2
				c-7.6,1.3-21.1-2.9-25.8-4.3L275.4,192.6z"/>
			<path class="st17" d="M307.1,192.2c-0.3,5.2-4.7,9.3-9.8,8.9c-5.2-0.3-9.2-4.8-8.8-10c0.3-5.2,4.8-9.3,9.8-9
				C303.4,182.4,307.4,186.9,307.1,192.2z"/>
			<path class="st18" d="M306.1,192.2c-0.3,4.7-4.3,8.2-8.8,8c-4.7-0.3-8.1-4.3-7.8-8.9s4.3-8.2,8.8-8
				C302.8,183.5,306.3,187.5,306.1,192.2z"/>
			<path class="st9" d="M294.2,189.9c0,1.1-1.1,2-2.1,1.9c-1.1,0-1.9-1.1-1.9-2.1c0-1.1,1.1-2,2.1-1.9
				C293.4,187.8,294.2,188.7,294.2,189.9z"/>
			<path class="st19" d="M303.3,197c-0.1,1.1-1.1,2-2.1,1.9c-1.1,0-2-1.1-1.9-2.1c0-1.1,1.1-2,2.1-1.9S303.4,195.9,303.3,197z"/>
			<path class="st15" d="M300.8,192.1c-0.1,1.6-1.5,2.9-3.2,2.8c-1.6-0.1-2.9-1.5-2.8-3.2c0.1-1.6,1.5-2.9,3.1-2.8
				C299.6,189,300.8,190.5,300.8,192.1z"/>
			<path class="st15" d="M275.4,192.3c0,0,9.4-17.6,34.4-9.4c3.2,1.1,7,4.3,10.4,4.5c0,0-2.4,0.4-16.2-2.7
				C287.3,181,278.4,189.8,275.4,192.3z"/>
		</g>
		<g class="st12">
			<path class="st13" d="M228.8,187.1c0,0-9.4-17.6-34.4-9.4c-3.2,1.1-5.5,1.7-10.4,4.5c0,0,2.1-1.2,16-4.3
				C216.6,174.4,225.8,184.6,228.8,187.1z"/>
			<path class="st14" d="M227.2,196.6c0,0-10.9,6.4-21.1,6.4c-13.3,0-19.3-8.2-22.1-10.4c0,0,11,6.2,19,7.4
				C209.8,201.1,225.8,196.3,227.2,196.6z"/>
			<path class="st15" d="M205.3,183.7c0,0-6.2-4.4-8.5-10.6c0,0-0.9,8.9,4,10.6H205.3z"/>
			<path class="st15" d="M199.8,184.7c0,0-6.2-4.4-8.5-10.6c0,0-0.9,8.9,4,10.6H199.8z"/>
			<path class="st15" d="M195.4,187.9c0,0-6.2-4.4-8.5-10.6c0,0-0.9,8.9,4,10.6H195.4z"/>
			<path class="st15" d="M216.2,186.5c0,0-4.5-4.5-5.6-10.2c0,0-1.7,7.8,2.1,9.8L216.2,186.5z"/>
			<path class="st15" d="M210.2,183.5c0,0-4.5-4.5-5.6-10.2c0,0-1.7,7.8,2.1,9.8L210.2,183.5z"/>
			<path class="st16" d="M228,192.6c0,0-8.6-9.7-21.3-8.8c-12.6,0.9-23.5,3.6-23.5,3.6l0.8,5.3c6.8,5.9,11.3,7.2,17.4,8.2
				c7.6,1.3,21.1-2.9,25.8-4.3L228,192.6z"/>
			<path class="st17" d="M196.2,192.2c0.3,5.2,4.7,9.3,9.8,8.9c5.2-0.3,9.2-4.8,8.9-10c-0.3-5.2-4.7-9.3-9.8-9
				C200,182.4,196,186.9,196.2,192.2z"/>
			<path class="st18" d="M197.3,192.2c0.3,4.7,4.3,8.2,8.8,8c4.7-0.3,8.1-4.3,7.8-8.9c-0.3-4.7-4.3-8.2-8.8-8
				C200.6,183.5,197,187.5,197.3,192.2z"/>
			<path class="st9" d="M209.1,189.9c0,1.1,1.1,2,2.1,1.9c1.1,0,2-1.1,1.9-2.1c0-1.1-1.1-2-2.1-1.9
				C209.9,187.8,209.1,188.7,209.1,189.9z"/>
			<path class="st19" d="M200.1,197c0,1.1,1.1,2,2.1,1.9c1.1,0,2-1.1,1.9-2.1c0-1.1-1.1-2-2.1-1.9S200.1,195.9,200.1,197z"/>
			<path class="st15" d="M202.8,192.1c0.1,1.6,1.5,2.9,3.1,2.8c1.6-0.1,2.9-1.5,2.8-3.2c-0.1-1.6-1.5-2.9-3.1-2.8
				C203.8,189,202.6,190.5,202.8,192.1z"/>
			<path class="st15" d="M228,192.3c0,0-9.4-17.6-34.4-9.4c-3.2,1.1-7,4.3-10.4,4.5c0,0,2.4,0.4,16.2-2.7
				C216.1,181,225,189.8,228,192.3z"/>
		</g>
		<g class="st12">
			<path class="st20" d="M270.8,242.5l-19-0.3V231C251.7,230.9,264.5,230.2,270.8,242.5z"/>
			<path class="st5" d="M232.7,242.5l19-0.3V231C251.7,230.9,238.9,230.2,232.7,242.5z"/>
		</g>
	</g>
	
		<radialGradient id="SVGID_1_" cx="194.3848" cy="263.3237" r="21.178" gradientTransform="matrix(1 0 0 -1 0 500)" gradientUnits="userSpaceOnUse">
		<stop  offset="0.2732" style="stop-color:#FCC6A9"/>
		<stop  offset="0.6091" style="stop-color:#FCCEAB"/>
		<stop  offset="1" style="stop-color:#FDDBAE"/>
	</radialGradient>
	<path class="st21" d="M215.5,236.6c0,11.7-9.4,21.1-21.1,21.1c-11.7,0-21.1-9.4-21.1-21.1c0-11.7,9.4-21.1,21.1-21.1
		C206.1,215.5,215.5,225,215.5,236.6z"/>
	
		<radialGradient id="SVGID_2_" cx="309.078" cy="263.3237" r="21.2087" gradientTransform="matrix(1 0 0 -1 0 500)" gradientUnits="userSpaceOnUse">
		<stop  offset="0.1344" style="stop-color:#FBCEAD"/>
		<stop  offset="0.4917" style="stop-color:#FDD5B1"/>
		<stop  offset="1" style="stop-color:#FFE5BB"/>
	</radialGradient>
	<path class="st22" d="M330.3,236.6c0,11.7-9.4,21.1-21.1,21.1s-21.1-9.4-21.1-21.1c0-11.7,9.4-21.1,21.1-21.1
		C320.8,215.5,330.3,225,330.3,236.6z"/>
</g>
</svg>
