<?xml version="1.0" encoding="utf-8"?>
<!-- Generator: Adobe Illustrator 24.2.1, SVG Export Plug-In . SVG Version: 6.00 Build 0)  -->
<svg version="1.1" id="Layer_1" xmlns="http://www.w3.org/2000/svg" xmlns:xlink="http://www.w3.org/1999/xlink" x="0px" y="0px"
	 viewBox="0 0 500 500" style="enable-background:new 0 0 500 500;" xml:space="preserve">
<style type="text/css">
	.st0{fill:#E7515B;}
	.st1{opacity:0.2;}
	.st2{fill:#FFFFFF;}
	.st3{opacity:0.3;enable-background:new    ;}
	.st4{opacity:0.2;fill:#FFFFFF;enable-background:new    ;}
	.st5{opacity:0.3;fill:#FFFFFF;enable-background:new    ;}
	.st6{opacity:0.3;}
	.st7{fill:#3168B2;}
	.st8{font-family:'MyriadPro-Bold';}
	.st9{font-size:64.2874px;}
	.st10{letter-spacing:2;}

	#corona {
		transform-box: fill-box;
 		 transform-origin: center;
  		<!-- transform: rotate(45deg); -->
		  animation: rotate 6s linear infinite alternate;
	}
	#corona1 {
		<!-- transform-box: fill-box; -->
 		 transform-origin: center;
  		<!-- transform: rotate(45deg); -->
		  animation: rotate2 .5s .2s linear infinite alternate;
	}
	#corona2 {
		<!-- transform-box: fill-box; -->
 		 transform-origin: center;
  		<!-- transform: rotate(45deg); -->
		  animation: rotate2 .5s .4s linear infinite alternate;
	}
	#corona3 {
		<!-- transform-box: fill-box; -->
 		 transform-origin: center;
  		<!-- transform: rotate(45deg); -->
		  animation: rotate2 .5s .6s linear infinite alternate;
	}
	@keyframes rotate {
		0% {
			transform: rotate(0deg);
		}
		10% {
			transform: translate(10px,20px)
		}
		20% {
			transform: translate(-10px,-20px)
		}
		50% {
			transform: translate(-15px,10px)
		}
		70% {
			transform: translate(-10px,20px)
		}
		100% {
			transform: rotate(360deg);
		}
	}
	@keyframes rotate2 {
		0% {
			transform: translate(0px,0px)
		}
		
		100% {
			transform: translate(5px,0px)
		}
	}
</style>
<g id="corona">
	<path class="st0" d="M342,284.4c4.7-11.9,7.1-24.7,6.8-38c8.2-6.9,38.6-14,38.6-14l-2.2-11.4c-12.2,2.4-36.9-0.7-40.4-1.2
		c-3-10-7.4-19.2-13.1-27.4c3.3-9.9,16.7-21.4,16.7-21.4l-7.7-8.7c-9.3,8.2-21,13.5-22.6,14.2c-5.5-5.2-11.6-9.8-18.1-13.7
		c-2-10.3,7.3-40.6,7.3-40.6l-11-3.8c-4.4,12.6-21.3,34-21.4,34.1c-9.3-2.4-19-3.5-29-3.1c-6.7-8-10.1-25.5-10.1-25.5l-11.4,2.3
		c2.5,12.9,1.1,25.8,1,26.2c-8.5,2.2-16.4,5.4-23.8,9.5c-10.3-4-31.6-26.5-31.6-26.5l-8.8,7.8c7.9,9,17,30.2,18.9,34.9
		c-7.8,7.8-14.2,16.8-19,26.6c-10.3,1.2-25-3.8-25-3.8l-3.7,11.2c9.7,3.2,18.2,8.5,21.8,11c-2.2,8.4-3.3,17.2-3.2,26.2
		c-10.7,6.4-36.6,12.5-36.6,12.5l2.3,11.5c10.7-2.1,30.3,0,37.8,1c2.9,10.8,7.6,20.8,13.7,29.7c-4.2,9.5-15.8,19.4-15.8,19.4
		l7.8,8.8c7.7-6.8,16.6-11.5,20.5-13.4c10,9.8,22.1,17.5,35.4,22.3c3.7,11.3,2.2,39.9,2.2,39.9l11.7,1c0.9-10.5,8-28.1,11.1-35.3
		c8.6,0.8,17.5,0.5,26.4-1.1c4.5-0.8,8.8-2,13-3.4c7,7.6,11.7,21.6,11.7,21.6l11.1-3.9c-3.9-11.2-4.6-22.9-4.7-25.6
		c12.3-6.9,22.7-16.3,30.9-27.3c12.2,2.1,36,14.6,36,14.6l5.8-10.2C360.7,305.3,344.9,287.7,342,284.4z M228.4,151.7
		c-0.1,0-0.2,0.1-0.4,0.1C228.2,151.8,228.3,151.7,228.4,151.7z"/>
	<g>
		<g class="st1">
			<path class="st2" d="M320.3,273.1c-4.9-1.6-5.7-11.6-9.3-24.7c-0.4-1.6-1-3.3-1.5-5.1c-0.5-1.7-1.2-3.5-1.8-5.3
				c-1.4-3.6-2.9-7.3-4.9-11c-3.8-7.4-9-14.8-15.5-21.1c-6.6-6.2-14.1-11.1-21.7-14.6c-3.8-1.8-7.6-3.1-11.2-4.4
				c-1.8-0.5-3.6-1.1-5.4-1.6c-1.8-0.4-3.5-1-5.1-1.3c-13.2-3.1-23.3-3.5-25.1-8.3c-0.4-1.2-0.2-2.5,0.6-3.9s2.2-3.2,4.3-4.7
				c4.1-3.3,10.9-6.5,20-8.2c2.3-0.5,4.7-0.7,7.2-1c2.5-0.2,5.2-0.2,7.9-0.2c5.5,0.3,11.4,0.9,17.4,2.6c6,1.6,12.3,3.9,18.4,7.3
				c6.1,3.3,12,7.5,17.5,12.7c5.4,5.2,9.8,11,13.4,16.9s6.1,12.1,8,18c1.9,6,2.8,11.8,3.3,17.3c0.1,2.7,0.3,5.4,0.1,7.9
				c-0.2,2.5-0.2,4.9-0.7,7.2c-1.4,9.2-4.3,16.1-7.4,20.3c-1.5,2.1-3.2,3.6-4.6,4.5C322.8,273.2,321.5,273.4,320.3,273.1z"/>
		</g>
		<g>
			<g>
				<path class="st0" d="M172.1,129.2c1.4,1.6-1.4,6.4-6.2,10.8c-1.6,1.5-3.3,2.7-4.9,3.7c-3,1.8-5.6,2.5-6.5,1.4
					c-1.4-1.6,1.4-6.4,6.2-10.8C165.5,129.9,170.6,127.6,172.1,129.2z"/>
				<path class="st3" d="M161.4,143.4c0,0,5.7-3.8,8.6-8c1.5,1.6,3.2,3.4,5,5.1c0,0-8,4.7-12,4.9L161.4,143.4z"/>
			</g>
			<g>
				<path class="st0" d="M134.8,194.5c2,0.6,2.1,6.2,0.1,12.5c-0.7,2.1-1.5,4-2.3,5.6c-1.7,3.1-3.6,5-4.9,4.5
					c-2-0.6-2.1-6.2-0.1-12.5C129.5,198.4,132.7,193.8,134.8,194.5z"/>
				<path class="st3" d="M132.8,212.1c0,0,3.4-5.8,3.4-11.2c2.1,0.7,4.4,1.4,6.8,2c0,0-4.4,8-7.8,10.1L132.8,212.1z"/>
			</g>
			<g>
				<path class="st0" d="M110.1,256.8c2.1-0.4,4.9,4.4,6.2,10.8c0.5,2.2,0.7,4.2,0.7,6c0.1,3.5-0.7,6.1-2,6.4
					c-2.1,0.4-4.9-4.4-6.2-10.8C107.4,262.8,108,257.3,110.1,256.8z"/>
				<path class="st3" d="M117,273.2c0,0-0.4-6.8-2.5-11.5c2.1-0.5,4.5-1.1,6.9-1.8c0,0,0.1,9.3-1.9,12.9L117,273.2z"/>
			</g>
			<g>
				<path class="st0" d="M146.2,321.3c1.6-1.4,6.4,1.3,10.8,6.2c1.5,1.6,2.7,3.3,3.7,4.9c1.8,3,2.5,5.6,1.5,6.5
					c-1.6,1.4-6.4-1.3-10.8-6.2C146.9,327.9,144.6,322.8,146.2,321.3z"/>
				<path class="st3" d="M160.4,331.9c0,0-3.3-5.9-8-8.6c1.7-1.4,3.4-3.1,5.1-4.9c0,0,4.7,7.8,4.8,11.8L160.4,331.9z"/>
			</g>
		</g>
		<g>
			<g>
				<path class="st0" d="M212.3,383.9c0.2-2.1,5.6-3.5,12.1-3c2.2,0.2,4.3,0.5,6,1c3.4,0.9,5.6,2.3,5.5,3.7c-0.2,2.1-5.6,3.5-12.1,3
					C217.4,388.1,212.2,386,212.3,383.9z"/>
				<path class="st3" d="M230,381.7c0,0-6.7-1.5-11.7-0.7c0.1-2.2,0.2-4.7,0.2-7.2c0,0,9,2.5,11.8,5.3L230,381.7z"/>
			</g>
			<g>
				<path class="st0" d="M287.9,368.9c-0.7-2,3.7-5.4,9.8-7.7c2.1-0.8,4.1-1.3,5.9-1.6c3.5-0.6,6.1-0.2,6.6,1.1
					c0.7,2-3.7,5.4-9.8,7.7C294.3,370.7,288.7,370.9,287.9,368.9z"/>
				<path class="st3" d="M303.1,359.7c0,0-6.7,0.8-11,4.2c-0.7-2.1-1.6-4.3-2.6-6.6c0,0,9-1.4,12.8,0L303.1,359.7z"/>
			</g>
			<g>
				<path class="st0" d="M365.6,328.2c-1.9-1-0.8-6.5,2.4-12.2c1.1-1.9,2.3-3.7,3.4-5c2.3-2.7,4.5-4.1,5.7-3.5
					c1.9,1,0.8,6.5-2.4,12.2C371.5,325.4,367.4,329.2,365.6,328.2z"/>
				<path class="st3" d="M371,311.3c0,0-4.2,5.4-5.6,10.3c-1.9-1-4.1-2.1-6.4-3.2c0,0,6.1-7.1,9.8-8.5L371,311.3z"/>
			</g>
		</g>
		<g>
			<path class="st3" d="M210.7,269.7c1.4,7.5-1.7,14.4-6.7,15.3c-5.1,0.9-10.3-4.5-11.6-12c-1.4-7.5,1.7-14.4,6.7-15.3
				C204.2,256.8,209.4,262.1,210.7,269.7z"/>
			<path class="st0" d="M205.9,262.6c1.4,7.5-1.7,14.4-6.7,15.3c-5.1,0.9-10.3-4.5-11.6-12c-1.4-7.5,1.7-14.4,6.7-15.3
				S204.5,255,205.9,262.6z"/>
			<path class="st4" d="M205.9,262.6c1.4,7.5-1.7,14.4-6.7,15.3c-5.1,0.9-10.3-4.5-11.6-12c-1.4-7.5,1.7-14.4,6.7-15.3
				S204.5,255,205.9,262.6z"/>
		</g>
		<g>
			<path class="st3" d="M192.9,191.9c6-4.7,13.5-5.3,16.7-1.2s0.9,11.2-5.2,15.9c-6,4.7-13.5,5.3-16.7,1.2
				C184.6,203.7,186.9,196.6,192.9,191.9z"/>
			<path class="st0" d="M187.6,185.4c6-4.7,13.5-5.3,16.7-1.2s0.9,11.2-5.2,15.9c-6,4.7-13.5,5.3-16.7,1.2
				C179.3,197.3,181.6,190.1,187.6,185.4z"/>
			<path class="st4" d="M187.6,185.4c6-4.7,13.5-5.3,16.7-1.2s0.9,11.2-5.2,15.9c-6,4.7-13.5,5.3-16.7,1.2
				C179.3,197.3,181.6,190.1,187.6,185.4z"/>
		</g>
		<g>
			<path class="st3" d="M245.1,305.9c0.9,5-2.4,9.7-7.4,10.6s-9.7-2.4-10.6-7.4c-0.9-5,2.4-9.7,7.4-10.6S244.2,300.9,245.1,305.9z"
				/>
			<path class="st0" d="M244.3,301.1c0.9,5-2.4,9.7-7.4,10.6s-9.7-2.4-10.6-7.4c-0.9-5,2.4-9.7,7.4-10.6
				C238.6,292.8,243.4,296.1,244.3,301.1z"/>
			<path class="st5" d="M244.3,301.1c0.9,5-2.4,9.7-7.4,10.6s-9.7-2.4-10.6-7.4c-0.9-5,2.4-9.7,7.4-10.6
				C238.6,292.8,243.4,296.1,244.3,301.1z"/>
		</g>
		<g>
			
				<ellipse transform="matrix(0.9756 -0.2196 0.2196 0.9756 -39.0825 66.8132)" class="st3" cx="281" cy="209.2" rx="11.2" ry="11.2"/>
			<path class="st0" d="M293.7,210.2c-3.3,5.2-10.3,6.8-15.5,3.4c-5.2-3.3-6.8-10.3-3.4-15.5s10.3-6.8,15.5-3.4
				C295.5,198,297,204.9,293.7,210.2z"/>
			<path class="st5" d="M293.7,210.2c-3.3,5.2-10.3,6.8-15.5,3.4c-5.2-3.3-6.8-10.3-3.4-15.5s10.3-6.8,15.5-3.4
				C295.5,198,297,204.9,293.7,210.2z"/>
		</g>
		<g>
			<path class="st3" d="M292.5,306.5c0.7,3.6-1.8,7.1-5.4,7.8c-3.6,0.7-7.1-1.8-7.8-5.4c-0.7-3.6,1.8-7.1,5.4-7.8
				C288.4,300.5,291.8,302.9,292.5,306.5z"/>
			<path class="st0" d="M291.9,303c0.7,3.6-1.8,7.1-5.4,7.8c-3.6,0.7-7.1-1.8-7.8-5.4c-0.7-3.6,1.8-7.1,5.4-7.8
				C287.7,296.9,291.2,299.4,291.9,303z"/>
			<path class="st5" d="M291.9,303c0.7,3.6-1.8,7.1-5.4,7.8c-3.6,0.7-7.1-1.8-7.8-5.4c-0.7-3.6,1.8-7.1,5.4-7.8
				C287.7,296.9,291.2,299.4,291.9,303z"/>
		</g>
		<g>
			<g>
				<path class="st0" d="M391.7,237.2c-2.1,0.4-4.8-4.4-6.1-10.7c-0.5-2.1-0.7-4.2-0.7-6c-0.1-3.5,0.7-6,2-6.3
					c2.1-0.4,4.8,4.4,6.1,10.7C394.4,231.3,393.8,236.8,391.7,237.2z"/>
				<path class="st3" d="M384.9,221.1c0,0,0.4,6.7,2.5,11.3c-2.1,0.5-4.5,1.1-6.9,1.7c0,0-0.1-9.2,1.8-12.7L384.9,221.1z"/>
			</g>
			<g>
				<path class="st0" d="M354.5,172.9c-1.6,1.4-6.3-1.3-10.7-6.1c-1.5-1.6-2.7-3.3-3.6-4.8c-1.8-3-2.5-5.5-1.4-6.4
					c1.6-1.4,6.3,1.3,10.7,6.1C353.8,166.5,356.1,171.5,354.5,172.9z"/>
				<path class="st3" d="M340.5,162.5c0,0,3.3,5.8,7.9,8.5c-1.6,1.4-3.3,3-5.1,4.8c0,0-4.6-7.7-4.8-11.7L340.5,162.5z"/>
			</g>
			<g>
				<path class="st0" d="M313.6,120.9c-0.7,2-6.2,2-12.3-0.1c-2.1-0.7-4-1.5-5.5-2.4c-3-1.7-4.8-3.6-4.4-4.9c0.7-2,6.2-2,12.3,0.1
					C309.8,115.6,314.2,118.9,313.6,120.9z"/>
				<path class="st3" d="M296.2,118.7c0,0,6,3.1,11.1,3.5c-0.6,2.1-1.3,4.4-2,6.8c0,0-8-4.6-10.1-8L296.2,118.7z"/>
			</g>
			<g>
				<g>
					<path class="st0" d="M240.6,119.6c0.4,2.1-4.3,4.8-10.7,6.2c-2.1,0.5-4.2,0.7-6,0.7c-3.5,0.1-6-0.6-6.3-2
						c-0.4-2.1,4.3-4.8,10.7-6.2C234.6,116.9,240.1,117.5,240.6,119.6z"/>
				</g>
				<path class="st3" d="M224.4,126.5c0,0,6.7,0.1,11.3-2.6c0.4,2.1,0.9,4.4,1.6,6.8c0,0-9,0.1-12.5-1.8L224.4,126.5z"/>
			</g>
		</g>
		<g>
			<path class="st3" d="M312.4,278.9c-2.3,7.3-8.2,11.9-13.1,10.4s-7-8.8-4.7-16.1c2.3-7.3,8.2-11.9,13.1-10.4
				C312.6,264.4,314.7,271.6,312.4,278.9z"/>
			<path class="st0" d="M315.7,274.5c-2.3,7.3-8.2,11.9-13.1,10.4s-7-8.8-4.7-16.1c2.3-7.3,8.2-11.9,13.1-10.4
				C315.9,260,318,267.2,315.7,274.5z"/>
			<path class="st5" d="M315.7,274.5c-2.3,7.3-8.2,11.9-13.1,10.4s-7-8.8-4.7-16.1c2.3-7.3,8.2-11.9,13.1-10.4
				C315.9,260,318,267.2,315.7,274.5z"/>
		</g>
		<g>
			<path class="st3" d="M263.1,242.8c1.4,7.5-3.7,14.8-11.2,16.1c-7.5,1.4-14.8-3.7-16.1-11.2c-1.4-7.5,3.7-14.8,11.2-16.1
				C254.5,230.3,261.8,235.3,263.1,242.8z"/>
			<path class="st0" d="M261.7,234.9c1.4,7.5-3.7,14.8-11.2,16.1c-7.5,1.4-14.8-3.7-16.1-11.2c-1.4-7.5,3.7-14.8,11.2-16.1
				C253.1,222.3,260.3,227.4,261.7,234.9z"/>
			<path class="st4" d="M261.7,234.9c1.4,7.5-3.7,14.8-11.2,16.1c-7.5,1.4-14.8-3.7-16.1-11.2c-1.4-7.5,3.7-14.8,11.2-16.1
				C253.1,222.3,260.3,227.4,261.7,234.9z"/>
		</g>
		<g class="st6">
			<path d="M311.9,311.2c0.8,0.9-0.1,3.3-2.8,6.6c-2.7,3.4-7.3,7.6-13.8,11.7c-3.2,2.1-7,4.1-11.1,5.9c-4.2,1.8-8.8,3.5-13.8,4.7
				c-10,2.6-21.5,3.6-33.4,2.3c-11.9-1.4-22.9-5.1-32-9.9c-4.6-2.3-8.7-5.1-12.3-7.7c-3.6-2.8-6.8-5.5-9.5-8.3
				c-5.4-5.5-8.9-10.7-10.7-14.6c-1.9-3.9-2.2-6.4-1.2-7.1c2.1-1.6,8.6,4.6,20,12c2.8,1.9,6,3.7,9.4,5.6c3.5,1.8,7.2,3.7,11.3,5.3
				c8.1,3.3,17.3,5.9,27.1,7.1c9.8,1.1,19.4,0.7,28-0.7c4.3-0.6,8.4-1.6,12.2-2.6c3.8-1.1,7.3-2.1,10.5-3.3
				C302.4,313.7,310.2,309.2,311.9,311.2z"/>
		</g>
		<g class="st6">
			<path d="M163.7,260.7c4.8-1.1,9.5,1.7,10.6,6.3c1,4.6-2,9.1-6.8,10.2s-9.5-1.7-10.6-6.3C155.9,266.3,158.9,261.8,163.7,260.7z"/>
		</g>
	</g>
</g>
<path id="circle" class="st7" d="M250.9,18C122.6,18,18.6,122,18.6,250.4s104,232.3,232.3,232.3s232.3-104,232.3-232.3
	S379.2,18,250.9,18z M250.9,79.6c51,0,96.8,22.4,128.1,57.9L89,304.9c-5.8-17.1-8.9-35.5-8.9-54.5C80.1,156,156.6,79.6,250.9,79.6z
	 M250.9,421.1c-52.4,0-99.3-23.6-130.6-60.8l291.2-168.1c6.6,18.1,10.2,37.7,10.2,58.1C421.7,344.7,345.2,421.1,250.9,421.1z"/>
<text id="covac" transform="matrix(0.8646 -0.5024 0.5024 0.8646 164.9448 323.1509)" class="st2 st8 st9 st10">COVAC</text>
<g id="corona1">
	<path class="st0" d="M69,466.8c0.8-2,1.2-4.1,1.1-6.3c1.4-1.2,6.4-2.3,6.4-2.3l-0.4-1.9c-2,0.4-6.2-0.1-6.7-0.2
		c-0.5-1.7-1.2-3.2-2.2-4.6c0.5-1.7,2.8-3.6,2.8-3.6l-1.3-1.4c-1.6,1.4-3.5,2.3-3.8,2.4c-0.9-0.9-1.9-1.6-3-2.3
		c-0.3-1.7,1.2-6.8,1.2-6.8l-1.8-0.6c-0.7,2.1-3.5,5.7-3.6,5.7c-1.5-0.4-3.2-0.6-4.8-0.5c-1.1-1.3-1.7-4.3-1.7-4.3l-1.9,0.4
		c0.4,2.2,0.2,4.3,0.2,4.4c-1.4,0.4-2.7,0.9-4,1.6c-1.7-0.7-5.3-4.4-5.3-4.4l-1.5,1.3c1.3,1.5,2.8,5,3.2,5.8
		c-1.3,1.3-2.4,2.8-3.2,4.4c-1.7,0.2-4.2-0.6-4.2-0.6l-0.6,1.9c1.6,0.5,3,1.4,3.6,1.8c-0.4,1.4-0.6,2.9-0.5,4.4
		c-1.6,0.9-6,1.9-6,1.9l0.4,1.9c1.8-0.3,5.1,0,6.3,0.2c0.5,1.8,1.3,3.5,2.3,4.9c-0.7,1.6-2.6,3.2-2.6,3.2l1.3,1.5
		c1.3-1.1,2.8-1.9,3.4-2.2c1.7,1.6,3.7,2.9,5.9,3.7c0.6,1.9,0.4,6.7,0.4,6.7l2,0.2c0.2-1.8,1.3-4.7,1.9-5.9c1.4,0.1,2.9,0.1,4.4-0.2
		c0.7-0.1,1.5-0.3,2.2-0.6c1.2,1.3,1.9,3.6,1.9,3.6l1.8-0.6c-0.6-1.9-0.8-3.8-0.8-4.3c2-1.2,3.8-2.7,5.2-4.6c2,0.3,6,2.4,6,2.4
		l1-1.7C72.1,470.3,69.5,467.4,69,466.8z M50,444.7L50,444.7L50,444.7z"/>
	<g>
		<g class="st1">
			<path class="st2" d="M65.4,464.9c-0.8-0.3-0.9-1.9-1.6-4.1c-0.1-0.3-0.2-0.6-0.3-0.8c-0.1-0.3-0.2-0.6-0.3-0.9
				c-0.2-0.6-0.5-1.2-0.8-1.8c-0.6-1.2-1.5-2.5-2.6-3.5s-2.4-1.8-3.6-2.4c-0.6-0.3-1.3-0.5-1.9-0.7c-0.3-0.1-0.6-0.2-0.9-0.3
				c-0.3-0.1-0.6-0.2-0.9-0.2c-2.2-0.5-3.9-0.6-4.2-1.4c-0.1-0.2,0-0.4,0.1-0.7c0.1-0.2,0.4-0.5,0.7-0.8c0.7-0.6,1.8-1.1,3.3-1.4
				c0.4-0.1,0.8-0.1,1.2-0.2c0.4,0,0.9,0,1.3,0c0.9,0,1.9,0.2,2.9,0.4c1,0.3,2.1,0.6,3.1,1.2s2,1.3,2.9,2.1c0.9,0.9,1.6,1.8,2.2,2.8
				s1,2,1.3,3s0.5,2,0.5,2.9c0,0.5,0,0.9,0,1.3s0,0.8-0.1,1.2c-0.2,1.5-0.7,2.7-1.2,3.4c-0.2,0.4-0.5,0.6-0.8,0.7
				C65.8,465,65.5,465,65.4,464.9z"/>
		</g>
		<g>
			<g>
				<path class="st0" d="M40.6,440.9c0.2,0.3-0.2,1.1-1,1.8c-0.3,0.2-0.6,0.5-0.8,0.6c-0.5,0.3-0.9,0.4-1.1,0.2
					c-0.2-0.3,0.2-1.1,1-1.8C39.5,441.1,40.4,440.7,40.6,440.9z"/>
				<path class="st3" d="M38.9,443.3c0,0,1-0.6,1.4-1.3c0.3,0.3,0.5,0.6,0.8,0.9c0,0-1.3,0.8-2,0.8L38.9,443.3z"/>
			</g>
			<g>
				<path class="st0" d="M34.4,451.8c0.3,0.1,0.3,1,0,2.1c-0.1,0.4-0.2,0.7-0.4,0.9c-0.3,0.5-0.6,0.8-0.8,0.8c-0.3-0.1-0.3-1,0-2.1
					S34.1,451.7,34.4,451.8z"/>
				<path class="st3" d="M34.1,454.8c0,0,0.6-1,0.6-1.9c0.3,0.1,0.7,0.2,1.1,0.3c0,0-0.7,1.3-1.3,1.7L34.1,454.8z"/>
			</g>
			<g>
				<path class="st0" d="M30.3,462.2c0.3-0.1,0.8,0.7,1,1.8c0.1,0.4,0.1,0.7,0.1,1c0,0.6-0.1,1-0.3,1.1c-0.3,0.1-0.8-0.7-1-1.8
					C29.9,463.2,30,462.3,30.3,462.2z"/>
				<path class="st3" d="M31.5,465c0,0-0.1-1.1-0.4-1.9c0.4-0.1,0.8-0.2,1.2-0.3c0,0,0,1.6-0.3,2.1L31.5,465z"/>
			</g>
			<g>
				<path class="st0" d="M36.3,473c0.3-0.2,1.1,0.2,1.8,1c0.2,0.3,0.5,0.6,0.6,0.8c0.3,0.5,0.4,0.9,0.2,1.1c-0.3,0.2-1.1-0.2-1.8-1
					C36.4,474.1,36.1,473.2,36.3,473z"/>
				<path class="st3" d="M38.7,474.7c0,0-0.6-1-1.3-1.4c0.3-0.2,0.6-0.5,0.9-0.8c0,0,0.8,1.3,0.8,2L38.7,474.7z"/>
			</g>
		</g>
		<g>
			<g>
				<path class="st0" d="M47.3,483.4c0-0.4,0.9-0.6,2-0.5c0.4,0,0.7,0.1,1,0.2c0.6,0.2,0.9,0.4,0.9,0.6c0,0.4-0.9,0.6-2,0.5
					C48.2,484.1,47.3,483.8,47.3,483.4z"/>
				<path class="st3" d="M50.3,483.1c0,0-1.1-0.3-2-0.1c0-0.4,0-0.8,0-1.2c0,0,1.5,0.4,2,0.9V483.1z"/>
			</g>
			<g>
				<path class="st0" d="M60,480.9c-0.1-0.3,0.6-0.9,1.6-1.3c0.3-0.1,0.7-0.2,1-0.3c0.6-0.1,1,0,1.1,0.2c0.1,0.3-0.6,0.9-1.6,1.3
					C61,481.2,60.1,481.2,60,480.9z"/>
				<path class="st3" d="M62.5,479.4c0,0-1.1,0.1-1.8,0.7c-0.1-0.3-0.3-0.7-0.4-1.1c0,0,1.5-0.2,2.1,0L62.5,479.4z"/>
			</g>
			<g>
				<path class="st0" d="M72.9,474.1c-0.3-0.2-0.1-1.1,0.4-2c0.2-0.3,0.4-0.6,0.6-0.8c0.4-0.5,0.7-0.7,1-0.6c0.3,0.2,0.1,1.1-0.4,2
					C73.9,473.7,73.2,474.3,72.9,474.1z"/>
				<path class="st3" d="M73.8,471.3c0,0-0.7,0.9-0.9,1.7c-0.3-0.2-0.7-0.4-1.1-0.5c0,0,1-1.2,1.6-1.4L73.8,471.3z"/>
			</g>
		</g>
		<g>
			<path class="st3" d="M47.1,464.4c0.2,1.3-0.3,2.4-1.1,2.6s-1.7-0.7-1.9-2s0.3-2.4,1.1-2.6C46,462.2,46.9,463.1,47.1,464.4z"/>
			<path class="st0" d="M46.3,463.2c0.2,1.3-0.3,2.4-1.1,2.6s-1.7-0.7-1.9-2s0.3-2.4,1.1-2.6C45.2,461,46,461.9,46.3,463.2z"/>
			<path class="st4" d="M46.3,463.2c0.2,1.3-0.3,2.4-1.1,2.6s-1.7-0.7-1.9-2s0.3-2.4,1.1-2.6C45.2,461,46,461.9,46.3,463.2z"/>
		</g>
		<g>
			<path class="st3" d="M44.1,451.4c1-0.8,2.3-0.9,2.8-0.2c0.5,0.7,0.1,1.9-0.9,2.7c-1,0.8-2.3,0.9-2.8,0.2
				C42.7,453.4,43.1,452.2,44.1,451.4z"/>
			<path class="st0" d="M43.2,450.3c1-0.8,2.3-0.9,2.8-0.2c0.5,0.7,0.1,1.9-0.9,2.7s-2.3,0.9-2.8,0.2
				C41.8,452.3,42.2,451.1,43.2,450.3z"/>
			<path class="st4" d="M43.2,450.3c1-0.8,2.3-0.9,2.8-0.2c0.5,0.7,0.1,1.9-0.9,2.7s-2.3,0.9-2.8,0.2
				C41.8,452.3,42.2,451.1,43.2,450.3z"/>
		</g>
		<g>
			<path class="st3" d="M52.8,470.4c0.1,0.8-0.4,1.6-1.2,1.8c-0.8,0.1-1.6-0.4-1.8-1.2c-0.1-0.8,0.4-1.6,1.2-1.8
				C51.9,469,52.7,469.6,52.8,470.4z"/>
			<path class="st0" d="M52.7,469.6c0.1,0.8-0.4,1.6-1.2,1.8c-0.8,0.1-1.6-0.4-1.8-1.2c-0.1-0.8,0.4-1.6,1.2-1.8
				S52.5,468.8,52.7,469.6z"/>
			<path class="st5" d="M52.7,469.6c0.1,0.8-0.4,1.6-1.2,1.8c-0.8,0.1-1.6-0.4-1.8-1.2c-0.1-0.8,0.4-1.6,1.2-1.8
				S52.5,468.8,52.7,469.6z"/>
		</g>
		<g>
			<circle class="st3" cx="58.8" cy="454.3" r="1.9"/>
			<path class="st0" d="M60.9,454.4c-0.6,0.9-1.7,1.1-2.6,0.6c-0.9-0.6-1.1-1.7-0.6-2.6c0.6-0.9,1.7-1.1,2.6-0.6
				C61.2,452.4,61.5,453.6,60.9,454.4z"/>
			<path class="st5" d="M60.9,454.4c-0.6,0.9-1.7,1.1-2.6,0.6c-0.9-0.6-1.1-1.7-0.6-2.6c0.6-0.9,1.7-1.1,2.6-0.6
				C61.2,452.4,61.5,453.6,60.9,454.4z"/>
		</g>
		<g>
			<path class="st3" d="M60.7,470.5c0.1,0.6-0.3,1.2-0.9,1.3c-0.6,0.1-1.2-0.3-1.3-0.9s0.3-1.2,0.9-1.3S60.6,469.9,60.7,470.5z"/>
			<path class="st0" d="M60.6,469.9c0.1,0.6-0.3,1.2-0.9,1.3c-0.6,0.1-1.2-0.3-1.3-0.9s0.3-1.2,0.9-1.3
				C59.9,468.9,60.5,469.3,60.6,469.9z"/>
			<path class="st5" d="M60.6,469.9c0.1,0.6-0.3,1.2-0.9,1.3c-0.6,0.1-1.2-0.3-1.3-0.9s0.3-1.2,0.9-1.3
				C59.9,468.9,60.5,469.3,60.6,469.9z"/>
		</g>
		<g>
			<g>
				<path class="st0" d="M77.3,459c-0.3,0.1-0.8-0.7-1-1.8c-0.1-0.4-0.1-0.7-0.1-1c0-0.6,0.1-1,0.3-1c0.3-0.1,0.8,0.7,1,1.8
					C77.7,458,77.6,458.9,77.3,459z"/>
				<path class="st3" d="M76.1,456.3c0,0,0.1,1.1,0.4,1.9c-0.3,0.1-0.7,0.2-1.1,0.3c0,0,0-1.5,0.3-2.1L76.1,456.3z"/>
			</g>
			<g>
				<path class="st0" d="M71.1,448.2c-0.3,0.2-1.1-0.2-1.8-1c-0.2-0.3-0.5-0.5-0.6-0.8c-0.3-0.5-0.4-0.9-0.2-1.1
					c0.3-0.2,1.1,0.2,1.8,1C70.9,447.2,71.3,448,71.1,448.2z"/>
				<path class="st3" d="M68.7,446.5c0,0,0.5,1,1.3,1.4c-0.3,0.2-0.6,0.5-0.8,0.8c0,0-0.8-1.3-0.8-1.9L68.7,446.5z"/>
			</g>
			<g>
				<path class="st0" d="M64.2,439.6c-0.1,0.3-1,0.3-2.1,0c-0.3-0.1-0.7-0.3-0.9-0.4c-0.5-0.3-0.8-0.6-0.7-0.8c0.1-0.3,1-0.3,2.1,0
					C63.6,438.7,64.3,439.2,64.2,439.6z"/>
				<path class="st3" d="M61.3,439.2c0,0,1,0.5,1.8,0.6c-0.1,0.3-0.2,0.7-0.3,1.1c0,0-1.3-0.8-1.7-1.3L61.3,439.2z"/>
			</g>
			<g>
				<g>
					<path class="st0" d="M52.1,439.3c0.1,0.3-0.7,0.8-1.8,1c-0.4,0.1-0.7,0.1-1,0.1c-0.6,0-1-0.1-1-0.3c-0.1-0.3,0.7-0.8,1.8-1
						C51.1,438.9,52,439,52.1,439.3z"/>
				</g>
				<path class="st3" d="M49.4,440.5c0,0,1.1,0,1.9-0.4c0.1,0.4,0.2,0.7,0.3,1.1c0,0-1.5,0-2.1-0.3L49.4,440.5z"/>
			</g>
		</g>
		<g>
			<path class="st3" d="M64,465.9c-0.4,1.2-1.4,2-2.2,1.7s-1.2-1.5-0.8-2.7s1.4-2,2.2-1.7C64.1,463.5,64.4,464.7,64,465.9z"/>
			<path class="st0" d="M64.6,465.2c-0.4,1.2-1.4,2-2.2,1.7s-1.2-1.5-0.8-2.7s1.4-2,2.2-1.7S65,464,64.6,465.2z"/>
			<path class="st5" d="M64.6,465.2c-0.4,1.2-1.4,2-2.2,1.7s-1.2-1.5-0.8-2.7s1.4-2,2.2-1.7S65,464,64.6,465.2z"/>
		</g>
		<g>
			<path class="st3" d="M55.8,459.9c0.2,1.3-0.6,2.5-1.9,2.7c-1.3,0.2-2.5-0.6-2.7-1.9s0.6-2.5,1.9-2.7S55.6,458.6,55.8,459.9z"/>
			<path class="st0" d="M55.6,458.6c0.2,1.3-0.6,2.5-1.9,2.7c-1.3,0.2-2.5-0.6-2.7-1.9s0.6-2.5,1.9-2.7
				C54.1,456.5,55.3,457.3,55.6,458.6z"/>
			<path class="st4" d="M55.6,458.6c0.2,1.3-0.6,2.5-1.9,2.7c-1.3,0.2-2.5-0.6-2.7-1.9s0.6-2.5,1.9-2.7
				C54.1,456.5,55.3,457.3,55.6,458.6z"/>
		</g>
		<g class="st6">
			<path d="M63.9,471.3c0.1,0.2,0,0.5-0.5,1.1c-0.4,0.6-1.2,1.3-2.3,2c-0.5,0.3-1.2,0.7-1.9,1s-1.5,0.6-2.3,0.8
				c-1.7,0.4-3.6,0.6-5.6,0.4s-3.8-0.9-5.3-1.7c-0.8-0.4-1.4-0.8-2.1-1.3c-0.6-0.5-1.1-0.9-1.6-1.4c-0.9-0.9-1.5-1.8-1.8-2.4
				s-0.4-1.1-0.2-1.2c0.4-0.3,1.4,0.8,3.3,2c0.5,0.3,1,0.6,1.6,0.9s1.2,0.6,1.9,0.9c1.3,0.6,2.9,1,4.5,1.2s3.2,0.1,4.7-0.1
				c0.7-0.1,1.4-0.3,2-0.4c0.6-0.2,1.2-0.4,1.7-0.5C62.4,471.7,63.7,471,63.9,471.3z"/>
		</g>
		<g class="st6">
			<path d="M39.2,462.9c0.8-0.2,1.6,0.3,1.8,1c0.2,0.8-0.3,1.5-1.1,1.7s-1.6-0.3-1.8-1C37.9,463.8,38.4,463,39.2,462.9z"/>
		</g>
	</g>
</g>
<g id="corona2">
	<path class="st0" d="M453.1,391.7c0.8-2,1.2-4.1,1.1-6.3c1.4-1.2,6.4-2.3,6.4-2.3l-0.4-1.9c-2,0.4-6.2-0.1-6.7-0.2
		c-0.5-1.7-1.2-3.2-2.2-4.6c0.5-1.7,2.8-3.6,2.8-3.6l-1.3-1.4c-1.6,1.4-3.5,2.3-3.8,2.4c-0.9-0.9-1.9-1.6-3-2.3
		c-0.3-1.7,1.2-6.8,1.2-6.8l-1.8-0.6c-0.7,2.1-3.5,5.7-3.6,5.7c-1.5-0.4-3.2-0.6-4.8-0.5c-1.1-1.3-1.7-4.3-1.7-4.3l-1.9,0.4
		c0.4,2.2,0.2,4.3,0.2,4.4c-1.4,0.4-2.7,0.9-4,1.6c-1.7-0.7-5.3-4.4-5.3-4.4l-1.5,1.3c1.3,1.5,2.8,5,3.2,5.8
		c-1.3,1.3-2.4,2.8-3.2,4.4c-1.7,0.2-4.2-0.6-4.2-0.6l-0.6,1.9c1.6,0.5,3,1.4,3.6,1.8c-0.4,1.4-0.6,2.9-0.5,4.4
		c-1.8,1.1-6.1,2.1-6.1,2.1l0.4,1.9c1.8-0.3,5.1,0,6.3,0.2c0.5,1.8,1.3,3.5,2.3,4.9c-0.7,1.6-2.6,3.2-2.6,3.2l1.3,1.5
		c1.3-1.1,2.8-1.9,3.4-2.2c1.7,1.6,3.7,2.9,5.9,3.7c0.6,1.9,0.4,6.7,0.4,6.7l2,0.2c0.2-1.8,1.3-4.7,1.9-5.9c1.4,0.1,2.9,0.1,4.4-0.2
		c0.7-0.1,1.5-0.3,2.2-0.6c1.2,1.3,1.9,3.6,1.9,3.6l1.8-0.6c-0.6-1.9-0.8-3.8-0.8-4.3c2-1.2,3.8-2.7,5.2-4.6c2,0.3,6,2.4,6,2.4
		l1-1.7C456.2,395.2,453.5,392.2,453.1,391.7z M434.1,369.6L434.1,369.6L434.1,369.6z"/>
	<g>
		<g class="st1">
			<path class="st2" d="M449.4,389.8c-0.8-0.3-0.9-1.9-1.6-4.1c-0.1-0.3-0.2-0.6-0.3-0.8c-0.1-0.3-0.2-0.6-0.3-0.9
				c-0.2-0.6-0.5-1.2-0.8-1.8c-0.6-1.2-1.5-2.5-2.6-3.5s-2.4-1.8-3.6-2.4c-0.6-0.3-1.3-0.5-1.9-0.7c-0.3-0.1-0.6-0.2-0.9-0.3
				c-0.3-0.1-0.6-0.2-0.9-0.2c-2.2-0.5-3.9-0.6-4.2-1.4c-0.1-0.2,0-0.4,0.1-0.7c0.1-0.2,0.4-0.5,0.7-0.8c0.7-0.6,1.8-1.1,3.3-1.4
				c0.4-0.1,0.8-0.1,1.2-0.2c0.4,0,0.9,0,1.3,0c0.9,0,1.9,0.2,2.9,0.4c1,0.3,2.1,0.6,3.1,1.2s2,1.3,2.9,2.1c0.9,0.9,1.6,1.8,2.2,2.8
				s1,2,1.3,3s0.5,2,0.5,2.9c0,0.5,0,0.9,0,1.3s0,0.8-0.1,1.2c-0.2,1.5-0.7,2.7-1.2,3.4c-0.2,0.4-0.5,0.6-0.8,0.7
				C449.9,389.8,449.6,389.9,449.4,389.8z"/>
		</g>
		<g>
			<g>
				<path class="st0" d="M424.7,365.8c0.2,0.3-0.2,1.1-1,1.8c-0.3,0.2-0.6,0.5-0.8,0.6c-0.5,0.3-0.9,0.4-1.1,0.2
					c-0.2-0.3,0.2-1.1,1-1.8C423.6,365.9,424.5,365.5,424.7,365.8z"/>
				<path class="st3" d="M422.9,368.2c0,0,1-0.6,1.4-1.3c0.3,0.3,0.5,0.6,0.8,0.9c0,0-1.3,0.8-2,0.8L422.9,368.2z"/>
			</g>
			<g>
				<path class="st0" d="M418.5,376.7c0.3,0.1,0.3,1,0,2.1c-0.1,0.4-0.2,0.7-0.4,0.9c-0.3,0.5-0.6,0.8-0.8,0.8c-0.3-0.1-0.3-1,0-2.1
					S418.2,376.6,418.5,376.7z"/>
				<path class="st3" d="M418.2,379.6c0,0,0.6-1,0.6-1.9c0.3,0.1,0.7,0.2,1.1,0.3c0,0-0.7,1.3-1.3,1.7L418.2,379.6z"/>
			</g>
			<g>
				<path class="st0" d="M414.4,387.1c0.3-0.1,0.8,0.7,1,1.8c0.1,0.4,0.1,0.7,0.1,1c0,0.6-0.1,1-0.3,1.1c-0.3,0.1-0.8-0.7-1-1.8
					C413.9,388.1,414,387.2,414.4,387.1z"/>
				<path class="st3" d="M415.6,389.8c0,0-0.1-1.1-0.4-1.9c0.4-0.1,0.8-0.2,1.2-0.3c0,0,0,1.6-0.3,2.1L415.6,389.8z"/>
			</g>
			<g>
				<path class="st0" d="M420.4,397.8c0.3-0.2,1.1,0.2,1.8,1c0.2,0.3,0.5,0.6,0.6,0.8c0.3,0.5,0.4,0.9,0.2,1.1
					c-0.3,0.2-1.1-0.2-1.8-1C420.5,398.9,420.1,398.1,420.4,397.8z"/>
				<path class="st3" d="M422.8,399.6c0,0-0.6-1-1.3-1.4c0.3-0.2,0.6-0.5,0.9-0.8c0,0,0.8,1.3,0.8,2L422.8,399.6z"/>
			</g>
		</g>
		<g>
			<g>
				<path class="st0" d="M431.4,408.3c0-0.4,0.9-0.6,2-0.5c0.4,0,0.7,0.1,1,0.2c0.6,0.2,0.9,0.4,0.9,0.6c0,0.4-0.9,0.6-2,0.5
					C432.3,409,431.4,408.6,431.4,408.3z"/>
				<path class="st3" d="M434.4,407.9c0,0-1.1-0.3-2-0.1c0-0.4,0-0.8,0-1.2c0,0,1.5,0.4,2,0.9V407.9z"/>
			</g>
			<g>
				<path class="st0" d="M444,405.8c-0.1-0.3,0.6-0.9,1.6-1.3c0.3-0.1,0.7-0.2,1-0.3c0.6-0.1,1,0,1.1,0.2c0.1,0.3-0.6,0.9-1.6,1.3
					S444.2,406.1,444,405.8z"/>
				<path class="st3" d="M446.6,404.2c0,0-1.1,0.1-1.8,0.7c-0.1-0.3-0.3-0.7-0.4-1.1c0,0,1.5-0.2,2.1,0L446.6,404.2z"/>
			</g>
			<g>
				<path class="st0" d="M457,399c-0.3-0.2-0.1-1.1,0.4-2c0.2-0.3,0.4-0.6,0.6-0.8c0.4-0.5,0.7-0.7,1-0.6c0.3,0.2,0.1,1.1-0.4,2
					C458,398.5,457.3,399.1,457,399z"/>
				<path class="st3" d="M457.9,396.2c0,0-0.7,0.9-0.9,1.7c-0.3-0.2-0.7-0.4-1.1-0.5c0,0,1-1.2,1.6-1.4L457.9,396.2z"/>
			</g>
		</g>
		<g>
			<path class="st3" d="M431.2,389.2c0.2,1.3-0.3,2.4-1.1,2.6c-0.8,0.2-1.7-0.7-1.9-2c-0.2-1.3,0.3-2.4,1.1-2.6
				C430.1,387.1,430.9,388,431.2,389.2z"/>
			<path class="st0" d="M430.4,388c0.2,1.3-0.3,2.4-1.1,2.6s-1.7-0.7-1.9-2c-0.2-1.3,0.3-2.4,1.1-2.6
				C429.3,385.9,430.1,386.8,430.4,388z"/>
			<path class="st4" d="M430.4,388c0.2,1.3-0.3,2.4-1.1,2.6s-1.7-0.7-1.9-2c-0.2-1.3,0.3-2.4,1.1-2.6
				C429.3,385.9,430.1,386.8,430.4,388z"/>
		</g>
		<g>
			<path class="st3" d="M428.2,376.2c1-0.8,2.3-0.9,2.8-0.2c0.5,0.7,0.1,1.9-0.9,2.7c-1,0.8-2.3,0.9-2.8,0.2
				C426.8,378.2,427.2,377,428.2,376.2z"/>
			<path class="st0" d="M427.3,375.2c1-0.8,2.3-0.9,2.8-0.2c0.5,0.7,0.1,1.9-0.9,2.7s-2.3,0.9-2.8,0.2
				C425.9,377.2,426.3,376,427.3,375.2z"/>
			<path class="st4" d="M427.3,375.2c1-0.8,2.3-0.9,2.8-0.2c0.5,0.7,0.1,1.9-0.9,2.7s-2.3,0.9-2.8,0.2
				C425.9,377.2,426.3,376,427.3,375.2z"/>
		</g>
		<g>
			<path class="st3" d="M436.9,395.3c0.1,0.8-0.4,1.6-1.2,1.8c-0.8,0.1-1.6-0.4-1.8-1.2c-0.1-0.8,0.4-1.6,1.2-1.8
				C436,393.9,436.8,394.4,436.9,395.3z"/>
			<path class="st0" d="M436.8,394.5c0.1,0.8-0.4,1.6-1.2,1.8s-1.6-0.4-1.8-1.2c-0.1-0.8,0.4-1.6,1.2-1.8
				C435.8,393.1,436.6,393.6,436.8,394.5z"/>
			<path class="st5" d="M436.8,394.5c0.1,0.8-0.4,1.6-1.2,1.8s-1.6-0.4-1.8-1.2c-0.1-0.8,0.4-1.6,1.2-1.8
				C435.8,393.1,436.6,393.6,436.8,394.5z"/>
		</g>
		<g>
			<circle class="st3" cx="442.9" cy="379.1" r="1.9"/>
			<path class="st0" d="M445,379.3c-0.6,0.9-1.7,1.1-2.6,0.6c-0.9-0.6-1.1-1.7-0.6-2.6c0.6-0.9,1.7-1.1,2.6-0.6
				C445.3,377.3,445.6,378.4,445,379.3z"/>
			<path class="st5" d="M445,379.3c-0.6,0.9-1.7,1.1-2.6,0.6c-0.9-0.6-1.1-1.7-0.6-2.6c0.6-0.9,1.7-1.1,2.6-0.6
				C445.3,377.3,445.6,378.4,445,379.3z"/>
		</g>
		<g>
			<path class="st3" d="M444.8,395.4c0.1,0.6-0.3,1.2-0.9,1.3c-0.6,0.1-1.2-0.3-1.3-0.9c-0.1-0.6,0.3-1.2,0.9-1.3
				S444.7,394.8,444.8,395.4z"/>
			<path class="st0" d="M444.7,394.8c0.1,0.6-0.3,1.2-0.9,1.3c-0.6,0.1-1.2-0.3-1.3-0.9c-0.1-0.6,0.3-1.2,0.9-1.3
				C444,393.8,444.6,394.2,444.7,394.8z"/>
			<path class="st5" d="M444.7,394.8c0.1,0.6-0.3,1.2-0.9,1.3c-0.6,0.1-1.2-0.3-1.3-0.9c-0.1-0.6,0.3-1.2,0.9-1.3
				C444,393.8,444.6,394.2,444.7,394.8z"/>
		</g>
		<g>
			<g>
				<path class="st0" d="M461.3,383.8c-0.3,0.1-0.8-0.7-1-1.8c-0.1-0.4-0.1-0.7-0.1-1c0-0.6,0.1-1,0.3-1c0.3-0.1,0.8,0.7,1,1.8
					C461.8,382.8,461.7,383.7,461.3,383.8z"/>
				<path class="st3" d="M460.2,381.1c0,0,0.1,1.1,0.4,1.9c-0.3,0.1-0.7,0.2-1.1,0.3c0,0,0-1.5,0.3-2.1L460.2,381.1z"/>
			</g>
			<g>
				<path class="st0" d="M455.1,373.1c-0.3,0.2-1.1-0.2-1.8-1c-0.2-0.3-0.5-0.5-0.6-0.8c-0.3-0.5-0.4-0.9-0.2-1.1
					c0.3-0.2,1.1,0.2,1.8,1C455,372,455.4,372.9,455.1,373.1z"/>
				<path class="st3" d="M452.8,371.3c0,0,0.5,1,1.3,1.4c-0.3,0.2-0.6,0.5-0.8,0.8c0,0-0.8-1.3-0.8-1.9L452.8,371.3z"/>
			</g>
			<g>
				<path class="st0" d="M448.3,364.4c-0.1,0.3-1,0.3-2.1,0c-0.3-0.1-0.7-0.3-0.9-0.4c-0.5-0.3-0.8-0.6-0.7-0.8c0.1-0.3,1-0.3,2.1,0
					C447.7,363.5,448.4,364.1,448.3,364.4z"/>
				<path class="st3" d="M445.4,364c0,0,1,0.5,1.8,0.6c-0.1,0.3-0.2,0.7-0.3,1.1c0,0-1.3-0.8-1.7-1.3L445.4,364z"/>
			</g>
			<g>
				<g>
					<path class="st0" d="M436.1,364.2c0.1,0.3-0.7,0.8-1.8,1c-0.4,0.1-0.7,0.1-1,0.1c-0.6,0-1-0.1-1-0.3c-0.1-0.3,0.7-0.8,1.8-1
						C435.2,363.8,436.1,363.9,436.1,364.2z"/>
				</g>
				<path class="st3" d="M433.5,365.3c0,0,1.1,0,1.9-0.4c0.1,0.4,0.2,0.7,0.3,1.1c0,0-1.5,0-2.1-0.3L433.5,365.3z"/>
			</g>
		</g>
		<g>
			<path class="st3" d="M448.1,390.8c-0.4,1.2-1.4,2-2.2,1.7c-0.8-0.3-1.2-1.5-0.8-2.7c0.4-1.2,1.4-2,2.2-1.7
				C448.2,388.4,448.5,389.5,448.1,390.8z"/>
			<path class="st0" d="M448.7,390c-0.4,1.2-1.4,2-2.2,1.7s-1.2-1.5-0.8-2.7c0.4-1.2,1.4-2,2.2-1.7
				C448.7,387.6,449.1,388.8,448.7,390z"/>
			<path class="st5" d="M448.7,390c-0.4,1.2-1.4,2-2.2,1.7s-1.2-1.5-0.8-2.7c0.4-1.2,1.4-2,2.2-1.7
				C448.7,387.6,449.1,388.8,448.7,390z"/>
		</g>
		<g>
			<path class="st3" d="M439.9,384.7c0.2,1.3-0.6,2.5-1.9,2.7s-2.5-0.6-2.7-1.9s0.6-2.5,1.9-2.7
				C438.5,382.7,439.7,383.5,439.9,384.7z"/>
			<path class="st0" d="M439.7,383.4c0.2,1.3-0.6,2.5-1.9,2.7s-2.5-0.6-2.7-1.9s0.6-2.5,1.9-2.7
				C438.2,381.3,439.4,382.2,439.7,383.4z"/>
			<path class="st4" d="M439.7,383.4c0.2,1.3-0.6,2.5-1.9,2.7s-2.5-0.6-2.7-1.9s0.6-2.5,1.9-2.7
				C438.2,381.3,439.4,382.2,439.7,383.4z"/>
		</g>
		<g class="st6">
			<path d="M448,396.2c0.1,0.2,0,0.5-0.5,1.1c-0.4,0.6-1.2,1.3-2.3,2c-0.5,0.3-1.2,0.7-1.9,1c-0.7,0.3-1.5,0.6-2.3,0.8
				c-1.7,0.4-3.6,0.6-5.6,0.4s-3.8-0.9-5.3-1.7c-0.8-0.4-1.4-0.8-2.1-1.3c-0.6-0.5-1.1-0.9-1.6-1.4c-0.9-0.9-1.5-1.8-1.8-2.4
				s-0.4-1.1-0.2-1.2c0.4-0.3,1.4,0.8,3.3,2c0.5,0.3,1,0.6,1.6,0.9s1.2,0.6,1.9,0.9c1.3,0.6,2.9,1,4.5,1.2s3.2,0.1,4.7-0.1
				c0.7-0.1,1.4-0.3,2-0.4c0.6-0.2,1.2-0.4,1.7-0.5C446.5,396.6,447.8,395.8,448,396.2z"/>
		</g>
		<g class="st6">
			<path d="M423.3,387.7c0.8-0.2,1.6,0.3,1.8,1c0.2,0.8-0.3,1.5-1.1,1.7c-0.8,0.2-1.6-0.3-1.8-1S422.5,387.9,423.3,387.7z"/>
		</g>
	</g>
</g>
<g id="corona3">
	<path class="st0" d="M463.9,74.4c0.8-2,1.2-4.1,1.1-6.3c1.4-1.2,6.4-2.3,6.4-2.3l-0.4-1.9c-2,0.4-6.2-0.1-6.7-0.2
		c-0.5-1.7-1.2-3.2-2.2-4.6c0.5-1.7,2.8-3.6,2.8-3.6l-1.3-1.4c-1.6,1.4-3.5,2.3-3.8,2.4c-0.9-0.9-1.9-1.6-3-2.3
		c-0.3-1.7,1.2-6.8,1.2-6.8l-1.8-0.6c-0.7,2.1-3.5,5.7-3.6,5.7c-1.5-0.4-3.2-0.6-4.8-0.5c-1.1-1.3-1.7-4.3-1.7-4.3l-1.9,0.4
		c0.4,2.2,0.2,4.3,0.2,4.4c-1.4,0.4-2.7,0.9-4,1.6c-1.7-0.7-5.3-4.4-5.3-4.4l-1.5,1.3c1.3,1.5,2.8,5,3.2,5.8
		c-1.3,1.3-2.4,2.8-3.2,4.4c-1.7,0.2-4.2-0.6-4.2-0.6l-0.6,1.9c1.6,0.5,3,1.4,3.6,1.8c-0.4,1.4-0.6,2.9-0.5,4.4
		c-1.8,1.1-6.1,2.1-6.1,2.1l0.4,1.9c1.8-0.3,5.1,0,6.3,0.2c0.5,1.8,1.3,3.5,2.3,4.9c-0.7,1.6-2.6,3.2-2.6,3.2l1.3,1.5
		c1.3-1.1,2.8-1.9,3.4-2.2c1.7,1.6,3.7,2.9,5.9,3.7c0.6,1.9,0.4,6.7,0.4,6.7l2,0.2c0.2-1.8,1.3-4.7,1.9-5.9c1.4,0.1,2.9,0.1,4.4-0.2
		c0.7-0.1,1.5-0.3,2.2-0.6c1.2,1.3,1.9,3.6,1.9,3.6l1.8-0.6c-0.6-1.9-0.8-3.8-0.8-4.3c2-1.2,3.8-2.7,5.2-4.6c2,0.3,6,2.4,6,2.4
		l1-1.7C467,77.8,464.4,74.9,463.9,74.4z M444.9,52.2L444.9,52.2L444.9,52.2z"/>
	<g>
		<g class="st1">
			<path class="st2" d="M460.3,72.5c-0.8-0.3-0.9-1.9-1.6-4.1c-0.1-0.3-0.2-0.6-0.3-0.8c-0.1-0.3-0.2-0.6-0.3-0.9
				c-0.2-0.6-0.5-1.2-0.8-1.8c-0.6-1.2-1.5-2.5-2.6-3.5s-2.4-1.8-3.6-2.4c-0.6-0.3-1.3-0.5-1.9-0.7c-0.3-0.1-0.6-0.2-0.9-0.3
				s-0.6-0.2-0.9-0.2c-2.2-0.5-3.9-0.6-4.2-1.4c-0.1-0.2,0-0.4,0.1-0.7c0.1-0.2,0.4-0.5,0.7-0.8c0.7-0.6,1.8-1.1,3.3-1.4
				c0.4-0.1,0.8-0.1,1.2-0.2c0.4,0,0.9,0,1.3,0c0.9,0,1.9,0.2,2.9,0.4c1,0.3,2.1,0.6,3.1,1.2c1,0.6,2,1.3,2.9,2.1
				c0.9,0.9,1.6,1.8,2.2,2.8s1,2,1.3,3s0.5,2,0.5,2.9c0,0.5,0,0.9,0,1.3s0,0.8-0.1,1.2c-0.2,1.5-0.7,2.7-1.2,3.4
				c-0.2,0.4-0.5,0.6-0.8,0.7C460.7,72.5,460.5,72.5,460.3,72.5z"/>
		</g>
		<g>
			<g>
				<path class="st0" d="M435.5,48.5c0.2,0.3-0.2,1.1-1,1.8c-0.3,0.2-0.6,0.5-0.8,0.6c-0.5,0.3-0.9,0.4-1.1,0.2
					c-0.2-0.3,0.2-1.1,1-1.8S435.3,48.2,435.5,48.5z"/>
				<path class="st3" d="M433.8,50.8c0,0,1-0.6,1.4-1.3c0.3,0.3,0.5,0.6,0.8,0.9c0,0-1.3,0.8-2,0.8L433.8,50.8z"/>
			</g>
			<g>
				<path class="st0" d="M429.3,59.4c0.3,0.1,0.3,1,0,2.1c-0.1,0.4-0.2,0.7-0.4,0.9c-0.3,0.5-0.6,0.8-0.8,0.8c-0.3-0.1-0.3-1,0-2.1
					C428.4,60,429,59.3,429.3,59.4z"/>
				<path class="st3" d="M429,62.3c0,0,0.6-1,0.6-1.9c0.3,0.1,0.7,0.2,1.1,0.3c0,0-0.7,1.3-1.3,1.7L429,62.3z"/>
			</g>
			<g>
				<path class="st0" d="M425.2,69.8c0.3-0.1,0.8,0.7,1,1.8c0.1,0.4,0.1,0.7,0.1,1c0,0.6-0.1,1-0.3,1.1c-0.3,0.1-0.8-0.7-1-1.8
					C424.8,70.8,424.9,69.8,425.2,69.8z"/>
				<path class="st3" d="M426.4,72.5c0,0-0.1-1.1-0.4-1.9c0.4-0.1,0.8-0.2,1.2-0.3c0,0,0,1.6-0.3,2.1L426.4,72.5z"/>
			</g>
			<g>
				<path class="st0" d="M431.2,80.5c0.3-0.2,1.1,0.2,1.8,1c0.2,0.3,0.5,0.6,0.6,0.8c0.3,0.5,0.4,0.9,0.2,1.1
					c-0.3,0.2-1.1-0.2-1.8-1C431.3,81.6,431,80.8,431.2,80.5z"/>
				<path class="st3" d="M433.6,82.3c0,0-0.6-1-1.3-1.4c0.3-0.2,0.6-0.5,0.9-0.8c0,0,0.8,1.3,0.8,2L433.6,82.3z"/>
			</g>
		</g>
		<g>
			<g>
				<path class="st0" d="M442.3,90.9c0-0.4,0.9-0.6,2-0.5c0.4,0,0.7,0.1,1,0.2c0.6,0.2,0.9,0.4,0.9,0.6c0,0.4-0.9,0.6-2,0.5
					C443.1,91.6,442.2,91.3,442.3,90.9z"/>
				<path class="st3" d="M445.2,90.6c0,0-1.1-0.3-2-0.1c0-0.4,0-0.8,0-1.2c0,0,1.5,0.4,2,0.9V90.6z"/>
			</g>
			<g>
				<path class="st0" d="M454.9,88.4c-0.1-0.3,0.6-0.9,1.6-1.3c0.3-0.1,0.7-0.2,1-0.3c0.6-0.1,1,0,1.1,0.2c0.1,0.3-0.6,0.9-1.6,1.3
					C455.9,88.7,455,88.8,454.9,88.4z"/>
				<path class="st3" d="M457.4,86.9c0,0-1.1,0.1-1.8,0.7c-0.1-0.3-0.3-0.7-0.4-1.1c0,0,1.5-0.2,2.1,0L457.4,86.9z"/>
			</g>
			<g>
				<path class="st0" d="M467.8,81.6c-0.3-0.2-0.1-1.1,0.4-2c0.2-0.3,0.4-0.6,0.6-0.8c0.4-0.5,0.7-0.7,1-0.6c0.3,0.2,0.1,1.1-0.4,2
					C468.8,81.2,468.1,81.8,467.8,81.6z"/>
				<path class="st3" d="M468.7,78.8c0,0-0.7,0.9-0.9,1.7c-0.3-0.2-0.7-0.4-1.1-0.5c0,0,1-1.2,1.6-1.4L468.7,78.8z"/>
			</g>
		</g>
		<g>
			<path class="st3" d="M442,71.9c0.2,1.3-0.3,2.4-1.1,2.6c-0.8,0.2-1.7-0.7-1.9-2s0.3-2.4,1.1-2.6C440.9,69.7,441.8,70.6,442,71.9z
				"/>
			<path class="st0" d="M441.2,70.7c0.2,1.3-0.3,2.4-1.1,2.6s-1.7-0.7-1.9-2c-0.2-1.3,0.3-2.4,1.1-2.6
				C440.1,68.6,441,69.5,441.2,70.7z"/>
			<path class="st4" d="M441.2,70.7c0.2,1.3-0.3,2.4-1.1,2.6s-1.7-0.7-1.9-2c-0.2-1.3,0.3-2.4,1.1-2.6
				C440.1,68.6,441,69.5,441.2,70.7z"/>
		</g>
		<g>
			<path class="st3" d="M439,58.9c1-0.8,2.3-0.9,2.8-0.2s0.1,1.9-0.9,2.7s-2.3,0.9-2.8,0.2S438,59.7,439,58.9z"/>
			<path class="st0" d="M438.1,57.8c1-0.8,2.3-0.9,2.8-0.2s0.1,1.9-0.9,2.7s-2.3,0.9-2.8,0.2S437.1,58.6,438.1,57.8z"/>
			<path class="st4" d="M438.1,57.8c1-0.8,2.3-0.9,2.8-0.2s0.1,1.9-0.9,2.7s-2.3,0.9-2.8,0.2S437.1,58.6,438.1,57.8z"/>
		</g>
		<g>
			<path class="st3" d="M447.7,77.9c0.1,0.8-0.4,1.6-1.2,1.8s-1.6-0.4-1.8-1.2c-0.1-0.8,0.4-1.6,1.2-1.8S447.6,77.1,447.7,77.9z"/>
			<path class="st0" d="M447.6,77.1c0.1,0.8-0.4,1.6-1.2,1.8c-0.8,0.1-1.6-0.4-1.8-1.2c-0.1-0.8,0.4-1.6,1.2-1.8
				S447.4,76.3,447.6,77.1z"/>
			<path class="st5" d="M447.6,77.1c0.1,0.8-0.4,1.6-1.2,1.8c-0.8,0.1-1.6-0.4-1.8-1.2c-0.1-0.8,0.4-1.6,1.2-1.8
				S447.4,76.3,447.6,77.1z"/>
		</g>
		<g>
			<circle class="st3" cx="453.7" cy="61.8" r="1.9"/>
			<path class="st0" d="M455.8,62c-0.6,0.9-1.7,1.1-2.6,0.6c-0.9-0.6-1.1-1.7-0.6-2.6c0.6-0.9,1.7-1.1,2.6-0.6
				C456.1,59.9,456.4,61.1,455.8,62z"/>
			<path class="st5" d="M455.8,62c-0.6,0.9-1.7,1.1-2.6,0.6c-0.9-0.6-1.1-1.7-0.6-2.6c0.6-0.9,1.7-1.1,2.6-0.6
				C456.1,59.9,456.4,61.1,455.8,62z"/>
		</g>
		<g>
			<path class="st3" d="M455.6,78c0.1,0.6-0.3,1.2-0.9,1.3c-0.6,0.1-1.2-0.3-1.3-0.9c-0.1-0.6,0.3-1.2,0.9-1.3
				C454.9,77,455.5,77.4,455.6,78z"/>
			<path class="st0" d="M455.5,77.5c0.1,0.6-0.3,1.2-0.9,1.3c-0.6,0.1-1.2-0.3-1.3-0.9c-0.1-0.6,0.3-1.2,0.9-1.3
				C454.8,76.4,455.4,76.8,455.5,77.5z"/>
			<path class="st5" d="M455.5,77.5c0.1,0.6-0.3,1.2-0.9,1.3c-0.6,0.1-1.2-0.3-1.3-0.9c-0.1-0.6,0.3-1.2,0.9-1.3
				C454.8,76.4,455.4,76.8,455.5,77.5z"/>
		</g>
		<g>
			<g>
				<path class="st0" d="M472.2,66.5c-0.3,0.1-0.8-0.7-1-1.8c-0.1-0.4-0.1-0.7-0.1-1c0-0.6,0.1-1,0.3-1c0.3-0.1,0.8,0.7,1,1.8
					C472.6,65.5,472.5,66.4,472.2,66.5z"/>
				<path class="st3" d="M471,63.8c0,0,0.1,1.1,0.4,1.9c-0.3,0.1-0.7,0.2-1.1,0.3c0,0,0-1.5,0.3-2.1L471,63.8z"/>
			</g>
			<g>
				<path class="st0" d="M466,55.8c-0.3,0.2-1.1-0.2-1.8-1c-0.2-0.3-0.5-0.5-0.6-0.8c-0.3-0.5-0.4-0.9-0.2-1.1
					c0.3-0.2,1.1,0.2,1.8,1C465.8,54.7,466.2,55.5,466,55.8z"/>
				<path class="st3" d="M463.6,54c0,0,0.5,1,1.3,1.4c-0.3,0.2-0.6,0.5-0.8,0.8c0,0-0.8-1.3-0.8-1.9L463.6,54z"/>
			</g>
			<g>
				<path class="st0" d="M459.1,47.1c-0.1,0.3-1,0.3-2.1,0c-0.3-0.1-0.7-0.3-0.9-0.4c-0.5-0.3-0.8-0.6-0.7-0.8c0.1-0.3,1-0.3,2.1,0
					C458.5,46.2,459.2,46.8,459.1,47.1z"/>
				<path class="st3" d="M456.2,46.7c0,0,1,0.5,1.8,0.6c-0.1,0.3-0.2,0.7-0.3,1.1c0,0-1.3-0.8-1.7-1.3L456.2,46.7z"/>
			</g>
			<g>
				<g>
					<path class="st0" d="M447,46.9c0.1,0.3-0.7,0.8-1.8,1c-0.4,0.1-0.7,0.1-1,0.1c-0.6,0-1-0.1-1-0.3c-0.1-0.3,0.7-0.8,1.8-1
						C446,46.4,446.9,46.5,447,46.9z"/>
				</g>
				<path class="st3" d="M444.3,48c0,0,1.1,0,1.9-0.4c0.1,0.4,0.2,0.7,0.3,1.1c0,0-1.5,0-2.1-0.3L444.3,48z"/>
			</g>
		</g>
		<g>
			<path class="st3" d="M458.9,73.4c-0.4,1.2-1.4,2-2.2,1.7c-0.8-0.3-1.2-1.5-0.8-2.7c0.4-1.2,1.4-2,2.2-1.7
				C459,71,459.3,72.2,458.9,73.4z"/>
			<path class="st0" d="M459.5,72.7c-0.4,1.2-1.4,2-2.2,1.7c-0.8-0.3-1.2-1.5-0.8-2.7c0.4-1.2,1.4-2,2.2-1.7
				C459.5,70.3,459.9,71.5,459.5,72.7z"/>
			<path class="st5" d="M459.5,72.7c-0.4,1.2-1.4,2-2.2,1.7c-0.8-0.3-1.2-1.5-0.8-2.7c0.4-1.2,1.4-2,2.2-1.7
				C459.5,70.3,459.9,71.5,459.5,72.7z"/>
		</g>
		<g>
			<path class="st3" d="M450.7,67.4c0.2,1.3-0.6,2.5-1.9,2.7s-2.5-0.6-2.7-1.9s0.6-2.5,1.9-2.7S450.5,66.2,450.7,67.4z"/>
			<path class="st0" d="M450.5,66.1c0.2,1.3-0.6,2.5-1.9,2.7s-2.5-0.6-2.7-1.9s0.6-2.5,1.9-2.7C449.1,64,450.3,64.8,450.5,66.1z"/>
			<path class="st4" d="M450.5,66.1c0.2,1.3-0.6,2.5-1.9,2.7s-2.5-0.6-2.7-1.9s0.6-2.5,1.9-2.7C449.1,64,450.3,64.8,450.5,66.1z"/>
		</g>
		<g class="st6">
			<path d="M458.9,78.8c0.1,0.2,0,0.5-0.5,1.1c-0.4,0.6-1.2,1.3-2.3,2c-0.5,0.3-1.2,0.7-1.9,1c-0.7,0.3-1.5,0.6-2.3,0.8
				c-1.7,0.4-3.6,0.6-5.6,0.4s-3.8-0.9-5.3-1.7c-0.8-0.4-1.4-0.8-2.1-1.3c-0.6-0.5-1.1-0.9-1.6-1.4c-0.9-0.9-1.5-1.8-1.8-2.4
				s-0.4-1.1-0.2-1.2c0.4-0.3,1.4,0.8,3.3,2c0.5,0.3,1,0.6,1.6,0.9s1.2,0.6,1.9,0.9c1.3,0.6,2.9,1,4.5,1.2s3.2,0.1,4.7-0.1
				c0.7-0.1,1.4-0.3,2-0.4c0.6-0.2,1.2-0.4,1.7-0.5C457.3,79.2,458.6,78.5,458.9,78.8z"/>
		</g>
		<g class="st6">
			<path d="M434.1,70.4c0.8-0.2,1.6,0.3,1.8,1c0.2,0.8-0.3,1.5-1.1,1.7c-0.8,0.2-1.6-0.3-1.8-1C432.8,71.3,433.3,70.6,434.1,70.4z"
				/>
		</g>
	</g>
</g>
</svg>
