<?xml version="1.0" encoding="utf-8"?>
<!-- Generator: Adobe Illustrator 24.2.1, SVG Export Plug-In . SVG Version: 6.00 Build 0)  -->
<svg version="1.1" id="Layer_1" xmlns="http://www.w3.org/2000/svg" xmlns:xlink="http://www.w3.org/1999/xlink" x="0px" y="0px"
	 viewBox="0 0 500 500" style="enable-background:new 0 0 500 500;" xml:space="preserve">
<style type="text/css">
	.st0{display:none;fill:#74BDC4;}
	.st1{fill:#DDE2E2;}
	.st2{fill:#E5E8E8;}
	.st3{fill:#C3C6C8;}
	.st4{fill:#F7F8F8;}
	.st5{fill:#FFFFFF;}
	.st6{fill:#FFE5BB;}
	.st7{fill:#FDCEA3;}
	.st8{fill:#FDDBAE;}
	.st9{fill:#DAB289;}
	.st10{fill:#5C4943;}
	.st11{display:none;fill:#DAB289;}
	.st12{fill:#865D3A;}
	.st13{display:none;fill:#FAB18A;}
	.st14{display:none;}
	.st15{display:inline;fill:#FFFFFF;}
	.st16{display:inline;}
	.st17{fill:#764D2A;}
	.st18{fill:#7D5944;}
	.st19{fill:#DADED4;}
	.st20{fill:#010101;}
	.st21{display:inline;fill:#DAB289;}
	.st22{fill:#F2F2F2;}
	.st23{fill:#DD492C;}
	.st24{fill:#E26D57;}
</style>
<g>
	<circle class="st0" cx="250" cy="287.5" r="337.6"/>
	<g>
		<g>
			<path class="st1" d="M433.9,409.6l-9.3,144.1l-1.1,23.4c31.5-18.9,59.7-42.8,83.5-70.7c-0.3-18.6-0.5-34.2-0.8-41.7
				C504.8,436.1,433.9,409.6,433.9,409.6z"/>
			<path class="st1" d="M433.9,409.6l-83.6-26.2L266,396.6l-8.8-0.9v229.1c51.9-1.1,100.8-13.8,144.4-35.7c0.5-52,1.6-72,4.6-72
				c2.4,0,3.9,35.1,4.7,67.1c4.3-2.3,8.5-4.7,12.6-7.3l1.1-23.4L433.9,409.6z"/>
			<path class="st1" d="M64.4,409.6c0,0-70.9,26.5-72.3,55.1c-0.3,7.3-0.5,21.8-0.8,39.4c23.4,27.8,51.2,52,82.3,71.1l0.1-21.5
				L64.4,409.6z"/>
			<path class="st1" d="M194.3,403.7L149,383.4l-84.6,26.2l9.3,144.1l-0.1,21.5c4.5,2.8,9.1,5.4,13.6,8c0.8-31.7,2.3-66.1,4.7-66.1
				c3,0,4.9,19.9,5.7,71.5c43.2,21.9,91.9,34.7,143.3,36.1V396.2L194.3,403.7z"/>
			<path class="st2" d="M257.1,395H241v1.2v228.6c0.9,0,1.9,0,2.8,0.1c-0.4-0.8-0.7-1.6-0.7-2.6c0-3.2,2.6-5.9,5.8-5.9l0,0l0,0
				c3.2,0,5.9,2.6,5.9,5.9c0,0.9-0.3,1.9-0.7,2.7c0.8,0,1.8,0,2.6,0V395.8V395H257.1z"/>
			<path class="st2" d="M251.8,621c-0.7,0-1.4,0.5-1.4,1.4c0,0.7,0.5,1.4,1.4,1.4c0.7,0,1.4-0.7,1.4-1.4
				C253.2,621.6,252.5,621,251.8,621z"/>
			<path class="st2" d="M247.1,621c-0.7,0-1.4,0.5-1.4,1.4c0,0.8,0.5,1.4,1.4,1.4c0.7,0,1.4-0.5,1.4-1.4
				C248.4,621.6,247.8,621,247.1,621z"/>
			<path class="st3" d="M92.1,517.1c-2.4,0-3.9,34.3-4.7,66.1c3.4,1.9,6.9,3.6,10.4,5.4C96.9,537,95.1,517.1,92.1,517.1z"/>
			<path class="st3" d="M406.1,517.1c-3,0-4.1,20-4.6,72c3.1-1.6,6.3-3.1,9.3-4.7C410.1,552.3,408.7,517.1,406.1,517.1z"/>
			<path class="st4" d="M243.3,622.4c0,0.9,0.3,1.8,0.7,2.6c1.8,0,3.5,0.1,5.3,0.1v-8.6C246,616.4,243.3,619,243.3,622.4z
				 M247.1,623.6c-0.8,0-1.4-0.5-1.4-1.4c0-0.7,0.5-1.4,1.4-1.4c0.7,0,1.4,0.5,1.4,1.4C248.4,623.1,247.8,623.6,247.1,623.6z"/>
			<path class="st5" d="M249.2,616.3L249.2,616.3L249.2,616.3v8.6c0.3,0,0.5,0,0.9,0c1.5,0,3-0.1,4.5-0.1c0.4-0.8,0.7-1.8,0.7-2.7
				C255.2,619,252.6,616.3,249.2,616.3z M251.8,623.6c-0.7,0-1.4-0.5-1.4-1.4c0-0.8,0.5-1.4,1.4-1.4c0.7,0,1.4,0.5,1.4,1.4
				C253.2,623.1,252.5,623.6,251.8,623.6z"/>
		</g>
		<polygon class="st3" points="330.8,352.9 287.6,346.2 286.9,400.1 336.9,387.6 		"/>
		<polygon class="st6" points="321.5,279 321.5,393.8 249.6,397.7 249.6,279 		"/>
		<polygon class="st3" points="168.2,349.5 211.7,346.2 212.4,400.1 162.2,387.6 		"/>
		<polygon class="st6" points="177.6,279 177.6,393.8 249.6,397.7 249.6,279 		"/>
		<path class="st7" d="M321.5,324c0,0-32.2,61.5-143.9,69.8v-95.1L321.5,324z"/>
		<path class="st6" d="M249.6,355.8c0,0,32.7,2.3,53.1-18.4c12.2-12.4,52.4-23.9,52.4-68.9s4.6-91.1,5-119.2
			c0.4-28,7.2-101.9-63.8-102.1c-43.4-0.1-46.7-0.1-46.7-0.1L249.6,355.8L249.6,355.8z"/>
		<path class="st6" d="M351.8,166.4c0,0,16.1-19,24.7-19c9.7,0,16.6,18.6,18.1,27.4c1.8,10.5-13.5,54.4-15.5,59.4
			c-2,5-13.2,15.5-20.3,6.1C346.4,223.7,351.8,166.4,351.8,166.4z"/>
		<path class="st8" d="M249.6,355.8c0,0-32.7,2.3-53.1-18.4c-12.3-12.4-52.4-23.9-52.4-68.9s-4.6-91.1-5-119.2
			c-0.4-28-7.2-101.9,63.8-102.1c43.4-0.1,46.7-0.1,46.7-0.1V355.8z"/>
		<path class="st8" d="M151.7,164c0,0-16.2-19-24.7-19c-9.9,0-16.6,18.6-18.1,27.4c-1.8,10.5,13.5,54.4,15.5,59.4
			c2,5,13.2,15.5,20.3,6.1C157,221.3,151.7,164,151.7,164z"/>
		<path class="st9" d="M249.5,289.9v6.6c0,0,34.9,2.2,55.3-17.6C304.6,279,282.3,289.9,249.5,289.9z"/>
		<path class="st9" d="M249.5,289.9v6.6c0,0-34.9,2.2-55.3-17.6C194.3,279,216.5,289.9,249.5,289.9z"/>
		<path class="st9" d="M249.5,306.7v6.8c0,0,24.3,0,32-10.8C281.4,302.6,262.6,306.8,249.5,306.7z"/>
		<path class="st9" d="M249.5,306.7v6.8c0,0-24.3,0-32-10.8C217.5,302.6,236.3,306.8,249.5,306.7z"/>
		<path class="st9" d="M296.5,275.9c4.3,3.9,6.6,2.7,10.4,13.6c0,0,0.5-12.2-7-16.3C295.8,271,295.3,274.8,296.5,275.9z"/>
		<path class="st9" d="M202.4,275.9c-4.3,3.9-6.6,2.7-10.4,13.6c0,0-0.4-12.2,7-16.3C203,271,203.6,274.8,202.4,275.9z"/>
		<path class="st10" d="M266.7,167.9c-0.5-5.7,12.7-12.8,40.7-8.9c21.2,3,29,9.2,29,10.1c0,0-25.5-6.3-38.9-4.6
			C282.6,166.6,267.5,175.8,266.7,167.9z"/>
		<path class="st10" d="M232.6,167.9c0.5-5.7-12.7-12.8-40.7-8.9c-21.2,3-29,9.2-29,10.1c0,0,25.5-6.3,38.9-4.6
			C216.7,166.6,231.7,175.8,232.6,167.9z"/>
		<path class="st11" d="M257.8,259.4c-0.5-0.9,0.9-7.4,6.2-7.8c5.3-0.3,7.3,7.3,6.6,7.8C270,260.1,258.7,261,257.8,259.4z"/>
		<path class="st11" d="M241.5,259.4c0.5-0.9-0.9-7.4-6.2-7.8c-5.3-0.3-7.3,7.3-6.6,7.8C229.2,260.1,240.6,261,241.5,259.4z"/>
		<g>
			<path class="st9" d="M249.6,239.4c10.1,0,16.5,4.3,16.5,3.8c0-3.9-7.4-7-16.5-7c-9.2,0-16.5,3.1-16.5,7
				C233.2,243.7,237.4,239.4,249.6,239.4z"/>
		</g>
		<path class="st12" d="M147,31.1c-10.4,27.6,24,82.4,94.6,82.4c73.1,0,85.4-22,95.4-22s10.1,112.8,15.9,112.8
			c5.4,0,8.4-47.1,12.2-57.6c6.2-17.3,9.9-34.9,5.7-78.9c-1.1-10.7-17.3-19.7-17.3-19.7s-3.5-15.4-14-24.3
			c-30-25.4-109-17.7-137.3-6.3C161,34,148.7,26.3,147,31.1z"/>
		<path class="st12" d="M165.3,34c0,0-28.5,14.6-34.6,30c-6.1,15.4,9.1,147.5,15.8,145.4c2.8-0.9,13.5-61.1,7.2-93.6
			c-6.3-32.6,31.1-40.1,31.1-40.1L165.3,34z"/>
		<path class="st13" d="M299.4,241.8c0,9.7,9.7,17.7,21.6,17.7c12,0,21.6-7.8,21.6-17.7c0-9.7-9.7-17.7-21.6-17.7
			C309.1,224.1,299.4,232.1,299.4,241.8z"/>
		<path class="st13" d="M198.8,241.8c0,9.7-9.7,17.7-21.6,17.7c-12,0-21.6-7.8-21.6-17.7c0-9.7,9.7-17.7,21.6-17.7
			C189.1,224.1,198.8,232.1,198.8,241.8z"/>
		<g class="st14">
			<path class="st15" d="M227.5,199.3c0,0-10,8.9-25.4,8.9c-17.7-0.1-25.8-11.3-25.8-11.3s11.9-15.4,31.2-12
				C224.7,188.1,227.5,199.3,227.5,199.3z"/>
			<g class="st16">
				<path class="st17" d="M189.9,194.8c-0.1,6.9,5.3,12.6,12,12.7c6.8,0.1,12.4-5.3,12.6-12.2c0.1-6.9-5.1-12.6-12-12.7
					C195.7,182.5,190.1,187.9,189.9,194.8z"/>
				<path class="st18" d="M191.3,195.1c-0.1,6.1,4.6,11.2,10.7,11.3c6.1,0.1,11.1-4.7,11.2-10.8c0.1-6.1-4.6-11.2-10.7-11.3
					C196.4,184.1,191.4,188.9,191.3,195.1z"/>
				<path class="st5" d="M207,193.2c0,1.5,1.1,2.7,2.6,2.7c1.5,0.1,2.7-1.1,2.7-2.6c0-1.5-1.1-2.7-2.6-2.7
					C208.3,190.6,207.1,191.7,207,193.2z"/>
				<path class="st19" d="M194.4,201.6c0,1.5,1.1,2.7,2.6,2.7c1.5,0,2.7-1.1,2.7-2.6c0-1.5-1.1-2.7-2.6-2.7
					C195.6,198.9,194.4,200.1,194.4,201.6z"/>
				<path class="st20" d="M198.3,195.3c0,2.2,1.6,3.9,3.8,4.1c2.2,0,3.9-1.6,3.9-3.8c0.1-2.2-1.6-3.9-3.8-4.1
					C200.2,191.4,198.4,193.2,198.3,195.3z"/>
			</g>
			<path class="st21" d="M227.5,199.3c0,0-3.5-16.8-22.3-18.2c-20.5-1.6-28.9,15.8-28.9,15.8S203.4,168.6,227.5,199.3z"/>
		</g>
		<g class="st14">
			<path class="st15" d="M269.8,199.3c0,0,10,8.9,25.4,8.9c17.7-0.1,25.8-11.3,25.8-11.3s-11.9-15.4-31.1-12
				C272.6,188.1,269.8,199.3,269.8,199.3z"/>
			<g class="st16">
				<path class="st17" d="M307.5,194.8c0.1,6.9-5.3,12.6-12,12.7c-6.8,0.1-12.4-5.3-12.6-12.2c-0.1-6.9,5.1-12.6,12-12.7
					C301.7,182.5,307.2,187.9,307.5,194.8z"/>
				<path class="st18" d="M306.1,195.1c0.1,6.1-4.6,11.2-10.7,11.3c-6.1,0.1-11.1-4.7-11.2-10.8c-0.1-6.1,4.6-11.2,10.7-11.3
					C300.8,184.1,306,188.9,306.1,195.1z"/>
				<path class="st5" d="M290.3,193.2c0,1.5-1.1,2.7-2.6,2.7c-1.5,0.1-2.6-1.1-2.7-2.6c0-1.5,1.1-2.7,2.6-2.7
					C289.1,190.6,290.3,191.7,290.3,193.2z"/>
				<path class="st19" d="M303,201.6c0,1.5-1.1,2.7-2.6,2.7c-1.5,0-2.7-1.1-2.7-2.6c0-1.5,1.1-2.7,2.6-2.7
					C301.7,198.9,302.9,200.1,303,201.6z"/>
				<path class="st20" d="M299.1,195.3c0,2.2-1.6,3.9-3.8,4.1c-2.2,0-3.9-1.6-3.9-3.8c-0.1-2.2,1.6-3.9,3.8-4.1
					C297.2,191.4,299,193.2,299.1,195.3z"/>
			</g>
			<path class="st21" d="M269.8,199.3c0,0,3.5-16.8,22.3-18.2c20.5-1.6,28.9,15.8,28.9,15.8S294,168.6,269.8,199.3z"/>
		</g>
		<path class="st3" d="M229.2,402.6l-28,67.7l-5-9.7C196.4,460.5,200.2,380.6,229.2,402.6z"/>
		<path class="st3" d="M270,402.6l28,67.7l5-9.7C302.9,460.5,299.1,380.6,270,402.6z"/>
		<path class="st22" d="M177.6,344.4v11.1c0,0-3.5-0.7-5.7,2.7c-3.8,6.1,18.4,27.3,77.1,36.9c0,0-31.3,3.9-34.9,12.3
			c-7.7,18.8-16.5,67.5-16.5,67.5c-13.2-35.1-48.9-91.5-48.9-91.5s8.5-15.9,11.6-30.7C161.3,349.2,173.7,345.2,177.6,344.4z"/>
		<path class="st22" d="M321.5,343.3v10.1c0,0,6.3,1.2,8.4,4.5c3.8,6.1-21.2,27.6-79.8,37.2c0,0,31.3,3.9,34.7,12.3
			c7.7,18.8,16.5,67.5,16.5,67.5c13.2-35.1,44.4-90.9,44.4-90.9s-5.7-15.3-8.1-30.1C336.8,348.7,331.4,346.2,321.5,343.3z"/>
		<g>
			<path class="st23" d="M243,394.1c-17.4-9.5-63.8-32.2-65.3-7.6c-0.4,6.1,4.9,17,4.5,23.1c0.5,5.9-4.7,16.9-4.5,23
				c1.4,24.3,46.5,2.4,64.4-7.2C235.6,403.4,243,394.2,243,394.1z"/>
			<path class="st23" d="M322.6,386.5c-1.5-24.6-47.8-1.9-65.3,7.6c0,0,7.4,9.2,0.8,31.3c18,9.7,63.1,31.5,64.4,7.2
				c0.4-6.1-4.9-17-4.5-23C317.6,403.5,322.9,392.7,322.6,386.5z"/>
			<path class="st24" d="M257.3,394.1L257.3,394.1h-7.2H243l0,0c0,0-7.4,9.2-0.8,31.3l0,0h8h8l0,0
				C264.8,403.4,257.3,394.2,257.3,394.1z"/>
		</g>
		<g>
			<path class="st4" d="M243.4,443.8c0,3.2,2.7,5.8,5.8,5.9v-11.9C246,437.8,243.4,440.4,243.4,443.8z M247.2,445
				c-0.8,0-1.4-0.5-1.4-1.4s0.5-1.4,1.4-1.4c0.7,0,1.4,0.5,1.4,1.4C248.4,444.5,247.9,445,247.2,445z"/>
			<path class="st5" d="M249.2,437.7v11.9c0,0,0,0,0.1,0l0,0c3.2,0,5.9-2.7,5.9-5.9S252.6,437.7,249.2,437.7
				C249.4,437.7,249.4,437.7,249.2,437.7C249.4,437.7,249.4,437.7,249.2,437.7z M251.8,442.4c0.7,0,1.4,0.5,1.4,1.4
				c0,0.7-0.5,1.4-1.4,1.4c-0.7,0-1.4-0.5-1.4-1.2C250.6,443,251.1,442.4,251.8,442.4z"/>
		</g>
		<g>
			<path class="st4" d="M243.2,532.1c0,3.2,2.7,5.8,5.8,5.9v-11.9C245.7,526.1,243.2,528.8,243.2,532.1z M246.9,533.4
				c-0.8,0-1.4-0.5-1.4-1.4c0-0.7,0.5-1.4,1.4-1.4c0.7,0,1.4,0.5,1.4,1.4C248.2,532.8,247.6,533.4,246.9,533.4z"/>
			<path class="st5" d="M249.1,526.1v11.9l0,0l0,0c3.2,0,5.9-2.7,5.9-5.9C255,528.8,252.3,526.1,249.1,526.1L249.1,526.1
				L249.1,526.1z M251.7,530.6c0.7,0,1.4,0.5,1.4,1.4c0,0.7-0.5,1.4-1.4,1.4c-0.7,0-1.4-0.5-1.4-1.4
				C250.3,531.3,250.9,530.6,251.7,530.6z"/>
		</g>
	</g>
</g>
</svg>
