<?xml version="1.0" encoding="utf-8"?>
<!-- Generator: Adobe Illustrator 24.2.1, SVG Export Plug-In . SVG Version: 6.00 Build 0)  -->
<svg version="1.1" id="Layer_1" xmlns="http://www.w3.org/2000/svg" xmlns:xlink="http://www.w3.org/1999/xlink" x="0px" y="0px"
	 viewBox="0 0 500 500" style="enable-background:new 0 0 500 500;" xml:space="preserve">
<style type="text/css">
	.st0{fill:#E7515B;}
	.st1{opacity:0.2;}
	.st2{fill:#FFFFFF;}
	.st3{opacity:0.3;enable-background:new    ;}
	.st4{opacity:0.2;fill:#FFFFFF;enable-background:new    ;}
	.st5{opacity:0.3;fill:#FFFFFF;enable-background:new    ;}
	.st6{opacity:0.3;}
	.st7{fill:#3168B2;}
	.st8{font-family:'MyriadPro-Bold';}
	.st9{font-size:64.2874px;}
	.st10{letter-spacing:2;}
</style>
<g id="corona">
	<path class="st0" d="M342,284.4c4.7-11.9,7.1-24.7,6.8-38c8.2-6.9,38.6-14,38.6-14l-2.2-11.4c-12.2,2.4-36.9-0.7-40.4-1.2
		c-3-10-7.4-19.2-13.1-27.4c3.3-9.9,16.7-21.4,16.7-21.4l-7.7-8.7c-9.3,8.2-21,13.5-22.6,14.2c-5.5-5.2-11.6-9.8-18.1-13.7
		c-2-10.3,7.3-40.6,7.3-40.6l-11-3.8c-4.4,12.6-21.3,34-21.4,34.1c-9.3-2.4-19-3.5-29-3.1c-6.7-8-10.1-25.5-10.1-25.5l-11.4,2.3
		c2.5,12.9,1.1,25.8,1,26.2c-8.5,2.2-16.4,5.4-23.8,9.5c-10.3-4-31.6-26.5-31.6-26.5l-8.8,7.8c7.9,9,17,30.2,18.9,34.9
		c-7.8,7.8-14.2,16.8-19,26.6c-10.3,1.2-25-3.8-25-3.8l-3.7,11.2c9.7,3.2,18.2,8.5,21.8,11c-2.2,8.4-3.3,17.2-3.2,26.2
		c-10.7,6.4-36.6,12.5-36.6,12.5l2.3,11.5c10.7-2.1,30.3,0,37.8,1c2.9,10.8,7.6,20.8,13.7,29.7c-4.2,9.5-15.8,19.4-15.8,19.4
		l7.8,8.8c7.7-6.8,16.6-11.5,20.5-13.4c10,9.8,22.1,17.5,35.4,22.3c3.7,11.3,2.2,39.9,2.2,39.9l11.7,1c0.9-10.5,8-28.1,11.1-35.3
		c8.6,0.8,17.5,0.5,26.4-1.1c4.5-0.8,8.8-2,13-3.4c7,7.6,11.7,21.6,11.7,21.6l11.1-3.9c-3.9-11.2-4.6-22.9-4.7-25.6
		c12.3-6.9,22.7-16.3,30.9-27.3c12.2,2.1,36,14.6,36,14.6l5.8-10.2C360.7,305.3,344.9,287.7,342,284.4z M228.4,151.7
		c-0.1,0-0.2,0.1-0.4,0.1C228.2,151.8,228.3,151.7,228.4,151.7z"/>
	<g>
		<g class="st1">
			<path class="st2" d="M320.3,273.1c-4.9-1.6-5.7-11.6-9.3-24.7c-0.4-1.6-1-3.3-1.5-5.1c-0.5-1.7-1.2-3.5-1.8-5.3
				c-1.4-3.6-2.9-7.3-4.9-11c-3.8-7.4-9-14.8-15.5-21.1c-6.6-6.2-14.1-11.1-21.7-14.6c-3.8-1.8-7.6-3.1-11.2-4.4
				c-1.8-0.5-3.6-1.1-5.4-1.6c-1.8-0.4-3.5-1-5.1-1.3c-13.2-3.1-23.3-3.5-25.1-8.3c-0.4-1.2-0.2-2.5,0.6-3.9s2.2-3.2,4.3-4.7
				c4.1-3.3,10.9-6.5,20-8.2c2.3-0.5,4.7-0.7,7.2-1c2.5-0.2,5.2-0.2,7.9-0.2c5.5,0.3,11.4,0.9,17.4,2.6c6,1.6,12.3,3.9,18.4,7.3
				c6.1,3.3,12,7.5,17.5,12.7c5.4,5.2,9.8,11,13.4,16.9s6.1,12.1,8,18c1.9,6,2.8,11.8,3.3,17.3c0.1,2.7,0.3,5.4,0.1,7.9
				c-0.2,2.5-0.2,4.9-0.7,7.2c-1.4,9.2-4.3,16.1-7.4,20.3c-1.5,2.1-3.2,3.6-4.6,4.5C322.8,273.2,321.5,273.4,320.3,273.1z"/>
		</g>
		<g>
			<g>
				<path class="st0" d="M172.1,129.2c1.4,1.6-1.4,6.4-6.2,10.8c-1.6,1.5-3.3,2.7-4.9,3.7c-3,1.8-5.6,2.5-6.5,1.4
					c-1.4-1.6,1.4-6.4,6.2-10.8C165.5,129.9,170.6,127.6,172.1,129.2z"/>
				<path class="st3" d="M161.4,143.4c0,0,5.7-3.8,8.6-8c1.5,1.6,3.2,3.4,5,5.1c0,0-8,4.7-12,4.9L161.4,143.4z"/>
			</g>
			<g>
				<path class="st0" d="M134.8,194.5c2,0.6,2.1,6.2,0.1,12.5c-0.7,2.1-1.5,4-2.3,5.6c-1.7,3.1-3.6,5-4.9,4.5
					c-2-0.6-2.1-6.2-0.1-12.5C129.5,198.4,132.7,193.8,134.8,194.5z"/>
				<path class="st3" d="M132.8,212.1c0,0,3.4-5.8,3.4-11.2c2.1,0.7,4.4,1.4,6.8,2c0,0-4.4,8-7.8,10.1L132.8,212.1z"/>
			</g>
			<g>
				<path class="st0" d="M110.1,256.8c2.1-0.4,4.9,4.4,6.2,10.8c0.5,2.2,0.7,4.2,0.7,6c0.1,3.5-0.7,6.1-2,6.4
					c-2.1,0.4-4.9-4.4-6.2-10.8C107.4,262.8,108,257.3,110.1,256.8z"/>
				<path class="st3" d="M117,273.2c0,0-0.4-6.8-2.5-11.5c2.1-0.5,4.5-1.1,6.9-1.8c0,0,0.1,9.3-1.9,12.9L117,273.2z"/>
			</g>
			<g>
				<path class="st0" d="M146.2,321.3c1.6-1.4,6.4,1.3,10.8,6.2c1.5,1.6,2.7,3.3,3.7,4.9c1.8,3,2.5,5.6,1.5,6.5
					c-1.6,1.4-6.4-1.3-10.8-6.2C146.9,327.9,144.6,322.8,146.2,321.3z"/>
				<path class="st3" d="M160.4,331.9c0,0-3.3-5.9-8-8.6c1.7-1.4,3.4-3.1,5.1-4.9c0,0,4.7,7.8,4.8,11.8L160.4,331.9z"/>
			</g>
		</g>
		<g>
			<g>
				<path class="st0" d="M212.3,383.9c0.2-2.1,5.6-3.5,12.1-3c2.2,0.2,4.3,0.5,6,1c3.4,0.9,5.6,2.3,5.5,3.7c-0.2,2.1-5.6,3.5-12.1,3
					C217.4,388.1,212.2,386,212.3,383.9z"/>
				<path class="st3" d="M230,381.7c0,0-6.7-1.5-11.7-0.7c0.1-2.2,0.2-4.7,0.2-7.2c0,0,9,2.5,11.8,5.3L230,381.7z"/>
			</g>
			<g>
				<path class="st0" d="M287.9,368.9c-0.7-2,3.7-5.4,9.8-7.7c2.1-0.8,4.1-1.3,5.9-1.6c3.5-0.6,6.1-0.2,6.6,1.1
					c0.7,2-3.7,5.4-9.8,7.7C294.3,370.7,288.7,370.9,287.9,368.9z"/>
				<path class="st3" d="M303.1,359.7c0,0-6.7,0.8-11,4.2c-0.7-2.1-1.6-4.3-2.6-6.6c0,0,9-1.4,12.8,0L303.1,359.7z"/>
			</g>
			<g>
				<path class="st0" d="M365.6,328.2c-1.9-1-0.8-6.5,2.4-12.2c1.1-1.9,2.3-3.7,3.4-5c2.3-2.7,4.5-4.1,5.7-3.5
					c1.9,1,0.8,6.5-2.4,12.2C371.5,325.4,367.4,329.2,365.6,328.2z"/>
				<path class="st3" d="M371,311.3c0,0-4.2,5.4-5.6,10.3c-1.9-1-4.1-2.1-6.4-3.2c0,0,6.1-7.1,9.8-8.5L371,311.3z"/>
			</g>
		</g>
		<g>
			<path class="st3" d="M210.7,269.7c1.4,7.5-1.7,14.4-6.7,15.3c-5.1,0.9-10.3-4.5-11.6-12c-1.4-7.5,1.7-14.4,6.7-15.3
				C204.2,256.8,209.4,262.1,210.7,269.7z"/>
			<path class="st0" d="M205.9,262.6c1.4,7.5-1.7,14.4-6.7,15.3c-5.1,0.9-10.3-4.5-11.6-12c-1.4-7.5,1.7-14.4,6.7-15.3
				S204.5,255,205.9,262.6z"/>
			<path class="st4" d="M205.9,262.6c1.4,7.5-1.7,14.4-6.7,15.3c-5.1,0.9-10.3-4.5-11.6-12c-1.4-7.5,1.7-14.4,6.7-15.3
				S204.5,255,205.9,262.6z"/>
		</g>
		<g>
			<path class="st3" d="M192.9,191.9c6-4.7,13.5-5.3,16.7-1.2s0.9,11.2-5.2,15.9c-6,4.7-13.5,5.3-16.7,1.2
				C184.6,203.7,186.9,196.6,192.9,191.9z"/>
			<path class="st0" d="M187.6,185.4c6-4.7,13.5-5.3,16.7-1.2s0.9,11.2-5.2,15.9c-6,4.7-13.5,5.3-16.7,1.2
				C179.3,197.3,181.6,190.1,187.6,185.4z"/>
			<path class="st4" d="M187.6,185.4c6-4.7,13.5-5.3,16.7-1.2s0.9,11.2-5.2,15.9c-6,4.7-13.5,5.3-16.7,1.2
				C179.3,197.3,181.6,190.1,187.6,185.4z"/>
		</g>
		<g>
			<path class="st3" d="M245.1,305.9c0.9,5-2.4,9.7-7.4,10.6s-9.7-2.4-10.6-7.4c-0.9-5,2.4-9.7,7.4-10.6S244.2,300.9,245.1,305.9z"
				/>
			<path class="st0" d="M244.3,301.1c0.9,5-2.4,9.7-7.4,10.6s-9.7-2.4-10.6-7.4c-0.9-5,2.4-9.7,7.4-10.6
				C238.6,292.8,243.4,296.1,244.3,301.1z"/>
			<path class="st5" d="M244.3,301.1c0.9,5-2.4,9.7-7.4,10.6s-9.7-2.4-10.6-7.4c-0.9-5,2.4-9.7,7.4-10.6
				C238.6,292.8,243.4,296.1,244.3,301.1z"/>
		</g>
		<g>
			
				<ellipse transform="matrix(0.9756 -0.2196 0.2196 0.9756 -39.0825 66.8132)" class="st3" cx="281" cy="209.2" rx="11.2" ry="11.2"/>
			<path class="st0" d="M293.7,210.2c-3.3,5.2-10.3,6.8-15.5,3.4c-5.2-3.3-6.8-10.3-3.4-15.5s10.3-6.8,15.5-3.4
				C295.5,198,297,204.9,293.7,210.2z"/>
			<path class="st5" d="M293.7,210.2c-3.3,5.2-10.3,6.8-15.5,3.4c-5.2-3.3-6.8-10.3-3.4-15.5s10.3-6.8,15.5-3.4
				C295.5,198,297,204.9,293.7,210.2z"/>
		</g>
		<g>
			<path class="st3" d="M292.5,306.5c0.7,3.6-1.8,7.1-5.4,7.8c-3.6,0.7-7.1-1.8-7.8-5.4c-0.7-3.6,1.8-7.1,5.4-7.8
				C288.4,300.5,291.8,302.9,292.5,306.5z"/>
			<path class="st0" d="M291.9,303c0.7,3.6-1.8,7.1-5.4,7.8c-3.6,0.7-7.1-1.8-7.8-5.4c-0.7-3.6,1.8-7.1,5.4-7.8
				C287.7,296.9,291.2,299.4,291.9,303z"/>
			<path class="st5" d="M291.9,303c0.7,3.6-1.8,7.1-5.4,7.8c-3.6,0.7-7.1-1.8-7.8-5.4c-0.7-3.6,1.8-7.1,5.4-7.8
				C287.7,296.9,291.2,299.4,291.9,303z"/>
		</g>
		<g>
			<g>
				<path class="st0" d="M391.7,237.2c-2.1,0.4-4.8-4.4-6.1-10.7c-0.5-2.1-0.7-4.2-0.7-6c-0.1-3.5,0.7-6,2-6.3
					c2.1-0.4,4.8,4.4,6.1,10.7C394.4,231.3,393.8,236.8,391.7,237.2z"/>
				<path class="st3" d="M384.9,221.1c0,0,0.4,6.7,2.5,11.3c-2.1,0.5-4.5,1.1-6.9,1.7c0,0-0.1-9.2,1.8-12.7L384.9,221.1z"/>
			</g>
			<g>
				<path class="st0" d="M354.5,172.9c-1.6,1.4-6.3-1.3-10.7-6.1c-1.5-1.6-2.7-3.3-3.6-4.8c-1.8-3-2.5-5.5-1.4-6.4
					c1.6-1.4,6.3,1.3,10.7,6.1C353.8,166.5,356.1,171.5,354.5,172.9z"/>
				<path class="st3" d="M340.5,162.5c0,0,3.3,5.8,7.9,8.5c-1.6,1.4-3.3,3-5.1,4.8c0,0-4.6-7.7-4.8-11.7L340.5,162.5z"/>
			</g>
			<g>
				<path class="st0" d="M313.6,120.9c-0.7,2-6.2,2-12.3-0.1c-2.1-0.7-4-1.5-5.5-2.4c-3-1.7-4.8-3.6-4.4-4.9c0.7-2,6.2-2,12.3,0.1
					C309.8,115.6,314.2,118.9,313.6,120.9z"/>
				<path class="st3" d="M296.2,118.7c0,0,6,3.1,11.1,3.5c-0.6,2.1-1.3,4.4-2,6.8c0,0-8-4.6-10.1-8L296.2,118.7z"/>
			</g>
			<g>
				<g>
					<path class="st0" d="M240.6,119.6c0.4,2.1-4.3,4.8-10.7,6.2c-2.1,0.5-4.2,0.7-6,0.7c-3.5,0.1-6-0.6-6.3-2
						c-0.4-2.1,4.3-4.8,10.7-6.2C234.6,116.9,240.1,117.5,240.6,119.6z"/>
				</g>
				<path class="st3" d="M224.4,126.5c0,0,6.7,0.1,11.3-2.6c0.4,2.1,0.9,4.4,1.6,6.8c0,0-9,0.1-12.5-1.8L224.4,126.5z"/>
			</g>
		</g>
		<g>
			<path class="st3" d="M312.4,278.9c-2.3,7.3-8.2,11.9-13.1,10.4s-7-8.8-4.7-16.1c2.3-7.3,8.2-11.9,13.1-10.4
				C312.6,264.4,314.7,271.6,312.4,278.9z"/>
			<path class="st0" d="M315.7,274.5c-2.3,7.3-8.2,11.9-13.1,10.4s-7-8.8-4.7-16.1c2.3-7.3,8.2-11.9,13.1-10.4
				C315.9,260,318,267.2,315.7,274.5z"/>
			<path class="st5" d="M315.7,274.5c-2.3,7.3-8.2,11.9-13.1,10.4s-7-8.8-4.7-16.1c2.3-7.3,8.2-11.9,13.1-10.4
				C315.9,260,318,267.2,315.7,274.5z"/>
		</g>
		<g>
			<path class="st3" d="M263.1,242.8c1.4,7.5-3.7,14.8-11.2,16.1c-7.5,1.4-14.8-3.7-16.1-11.2c-1.4-7.5,3.7-14.8,11.2-16.1
				C254.5,230.3,261.8,235.3,263.1,242.8z"/>
			<path class="st0" d="M261.7,234.9c1.4,7.5-3.7,14.8-11.2,16.1c-7.5,1.4-14.8-3.7-16.1-11.2c-1.4-7.5,3.7-14.8,11.2-16.1
				C253.1,222.3,260.3,227.4,261.7,234.9z"/>
			<path class="st4" d="M261.7,234.9c1.4,7.5-3.7,14.8-11.2,16.1c-7.5,1.4-14.8-3.7-16.1-11.2c-1.4-7.5,3.7-14.8,11.2-16.1
				C253.1,222.3,260.3,227.4,261.7,234.9z"/>
		</g>
		<g class="st6">
			<path d="M311.9,311.2c0.8,0.9-0.1,3.3-2.8,6.6c-2.7,3.4-7.3,7.6-13.8,11.7c-3.2,2.1-7,4.1-11.1,5.9c-4.2,1.8-8.8,3.5-13.8,4.7
				c-10,2.6-21.5,3.6-33.4,2.3c-11.9-1.4-22.9-5.1-32-9.9c-4.6-2.3-8.7-5.1-12.3-7.7c-3.6-2.8-6.8-5.5-9.5-8.3
				c-5.4-5.5-8.9-10.7-10.7-14.6c-1.9-3.9-2.2-6.4-1.2-7.1c2.1-1.6,8.6,4.6,20,12c2.8,1.9,6,3.7,9.4,5.6c3.5,1.8,7.2,3.7,11.3,5.3
				c8.1,3.3,17.3,5.9,27.1,7.1c9.8,1.1,19.4,0.7,28-0.7c4.3-0.6,8.4-1.6,12.2-2.6c3.8-1.1,7.3-2.1,10.5-3.3
				C302.4,313.7,310.2,309.2,311.9,311.2z"/>
		</g>
		<g class="st6">
			<path d="M163.7,260.7c4.8-1.1,9.5,1.7,10.6,6.3c1,4.6-2,9.1-6.8,10.2s-9.5-1.7-10.6-6.3C155.9,266.3,158.9,261.8,163.7,260.7z"/>
		</g>
	</g>
</g>
<path id="circle" class="st7" d="M250.9,18C122.6,18,18.6,122,18.6,250.4s104,232.3,232.3,232.3s232.3-104,232.3-232.3
	S379.2,18,250.9,18z M250.9,79.6c51,0,96.8,22.4,128.1,57.9L89,304.9c-5.8-17.1-8.9-35.5-8.9-54.5C80.1,156,156.6,79.6,250.9,79.6z
	 M250.9,421.1c-52.4,0-99.3-23.6-130.6-60.8l291.2-168.1c6.6,18.1,10.2,37.7,10.2,58.1C421.7,344.7,345.2,421.1,250.9,421.1z"/>
<text id="covac" transform="matrix(0.8646 -0.5024 0.5024 0.8646 144.9448 333.1509)" class="st2 st8 st9 st10">COVID-19</text>
</svg>
